<svg xmlns="http://www.w3.org/2000/svg" viewBox="0 0 35.677 35.677" preserveAspectRatio="xMidYMid meet">
  <g id="check004_-_E105" data-name="check004 - E105" transform="translate(-180.51 -60.577)" style="isolation: isolate">
    <g id="Group_654" data-name="Group 654" style="isolation: isolate">
      <path id="Path_1545" data-name="Path 1545" d="M209.907,95.754H186.79a5.775,5.775,0,0,1-5.78-5.779V66.856a5.775,5.775,0,0,1,5.78-5.779h23.117a5.775,5.775,0,0,1,5.78,5.779V89.975A5.775,5.775,0,0,1,209.907,95.754Zm-23.117-34a5.092,5.092,0,0,0-5.1,5.1V89.975a5.093,5.093,0,0,0,5.1,5.1h23.117a5.093,5.093,0,0,0,5.1-5.1V66.856a5.092,5.092,0,0,0-5.1-5.1Zm9.757,24.375L189.339,77.9l.544-.475,6.6,7.548,10.3-16.591.544.34Z" fill="#ff2d30" stroke="#ff2d30" stroke-width="1"/>
    </g>
    <g id="Group_655" data-name="Group 655" style="isolation: isolate">
      <path id="Path_1546" data-name="Path 1546" d="M209.907,95.754H186.79a5.775,5.775,0,0,1-5.78-5.779V66.856a5.775,5.775,0,0,1,5.78-5.779h23.117a5.775,5.775,0,0,1,5.78,5.779V89.975A5.775,5.775,0,0,1,209.907,95.754Zm-23.117-34a5.092,5.092,0,0,0-5.1,5.1V89.975a5.093,5.093,0,0,0,5.1,5.1h23.117a5.093,5.093,0,0,0,5.1-5.1V66.856a5.092,5.092,0,0,0-5.1-5.1Zm9.757,24.375L189.339,77.9l.544-.475,6.6,7.548,10.3-16.591.544.34Z" fill="#ff2d30" stroke="#ff2d30" stroke-width="1"/>
    </g>
  </g>
</svg>
