<svg xmlns="http://www.w3.org/2000/svg" viewBox="0 0 32.469 32.469" preserveAspectRatio="xMidYMid meet">
  <g id="check004_-_E105" data-name="check004 - E105" transform="translate(0.5 0.5)" style="isolation: isolate">
    <g id="Group_654" data-name="Group 654" transform="translate(0 0)" style="isolation: isolate">
      <path id="Path_1545" data-name="Path 1545" d="M207.233,92.546H186.255A5.241,5.241,0,0,1,181.01,87.3V66.321a5.241,5.241,0,0,1,5.245-5.244h20.978a5.241,5.241,0,0,1,5.245,5.244V87.3A5.241,5.241,0,0,1,207.233,92.546ZM186.255,61.695a4.621,4.621,0,0,0-4.628,4.626V87.3a4.622,4.622,0,0,0,4.628,4.627h20.978a4.622,4.622,0,0,0,4.628-4.627V66.321a4.621,4.621,0,0,0-4.628-4.626Zm8.854,22.12-6.541-7.467.494-.431,5.986,6.85L204.4,67.711l.494.309Z" transform="translate(-181.01 -61.077)" fill="none" stroke="#1960aa" stroke-width="1"/>
    </g>
    <g id="Group_655" data-name="Group 655" transform="translate(0 0)" style="isolation: isolate">
      <path id="Path_1546" data-name="Path 1546" d="M207.233,92.546H186.255A5.241,5.241,0,0,1,181.01,87.3V66.321a5.241,5.241,0,0,1,5.245-5.244h20.978a5.241,5.241,0,0,1,5.245,5.244V87.3A5.241,5.241,0,0,1,207.233,92.546ZM186.255,61.695a4.621,4.621,0,0,0-4.628,4.626V87.3a4.622,4.622,0,0,0,4.628,4.627h20.978a4.622,4.622,0,0,0,4.628-4.627V66.321a4.621,4.621,0,0,0-4.628-4.626Zm8.854,22.12-6.541-7.467.494-.431,5.986,6.85L204.4,67.711l.494.309Z" transform="translate(-181.01 -61.077)" fill="none" stroke="#1960aa" stroke-width="1"/>
    </g>
  </g>
</svg>
