<svg id="Warstwa_1" data-name="Warstwa 1" xmlns="http://www.w3.org/2000/svg" viewBox="0 0 512 512" preserveAspectRatio="xMidYMid meet"><defs><style>.cls-1{fill:#fff;}.cls-2{fill:#0c426d;}</style></defs><path class="cls-1" d="M256,0C114.84,0,0,114.84,0,256S114.84,512,256,512,512,397.16,512,256,397.16,0,256,0Z" transform="translate(0 0)"/><path class="cls-2" d="M350.27,320.11a21.33,21.33,0,1,1-30.16,30.16L256,286.16l-64.11,64.11a21.33,21.33,0,0,1-30.16-30.16L225.84,256l-64.11-64.11a21.33,21.33,0,0,1,30.16-30.16L256,225.84l64.11-64.11a21.33,21.33,0,0,1,30.16,30.16L286.16,256Z" transform="translate(0 0)"/></svg>