<svg xmlns="http://www.w3.org/2000/svg" viewBox="0 0 98.535 88.882" preserveAspectRatio="xMidYMid meet">
  <path id="Path_1" data-name="Path 1" d="M-17.194-122.424h-4.935l-3.11-45.159a1.61,1.61,0,0,0-1.609-1.5H-36.5a1.61,1.61,0,0,0-1.609,1.5l-3.11,45.159h-3.325v-9.654a1.61,1.61,0,0,0-1.609-1.609,1.6,1.6,0,0,0-1.006.353l-13.475,10.78v-9.523a1.609,1.609,0,0,0-1.609-1.609,1.6,1.6,0,0,0-1.006.353l-13.475,10.78v-9.523a1.609,1.609,0,0,0-1.609-1.609,1.6,1.6,0,0,0-1.006.353l-13.475,10.78v-9.523a1.61,1.61,0,0,0-1.609-1.609,1.61,1.61,0,0,0-.829.23l-16.09,9.654a1.609,1.609,0,0,0-.78,1.379V-83.81a1.609,1.609,0,0,0,1.609,1.609h93.317a1.609,1.609,0,0,0,1.609-1.609v-37.005a1.609,1.609,0,0,0-1.609-1.609ZM-57.417-82.2v-22.525h9.654V-82.2ZM-18.8-85.419" transform="translate(113.12 170.083)" fill="none" stroke="#ff2d30" stroke-miterlimit="10" stroke-width="2"/>
</svg>
