<svg id="Warstwa_1" data-name="Warstwa 1" xmlns="http://www.w3.org/2000/svg" xmlns:xlink="http://www.w3.org/1999/xlink" viewBox="0 0 86.09 45.35" preserveAspectRatio="xMidYMid meet"><defs><style>.cls-1{fill:none;}.cls-2{fill:#164193;}.cls-3{clip-path:url(#clip-path);}.cls-4{fill:#ffec00;}.cls-5{fill:#e20613;}.cls-6{fill:#fff;}.cls-7{fill:#1d1d1b;}</style><clipPath id="clip-path" transform="translate(0 0)"><rect class="cls-1" width="86.09" height="45.35"/></clipPath></defs><polygon class="cls-2" points="22.68 0 0 7.09 0 41.1 22.68 45.35 22.68 0"/><g class="cls-3"><path class="cls-4" d="M0,32.93V24.1a4.45,4.45,0,0,0,3.25-.05,26.62,26.62,0,0,0,4.61-4.44S6.4,23.22,7,24.54,11,26,11,26a57.44,57.44,0,0,0-5.74,4c-1.88,1.61-3.18,7.53-3.18,7.53S1.17,33.72,0,32.93" transform="translate(0 0)"/><path class="cls-5" d="M22.68,17.35a7,7,0,0,1-2.13,1c-1.82.35-3.78-1.74-3.78-1.74s.46,3.06-.68,4.95S11,26,11,26s4.29-.83,5.12.5,1,6.4,1,6.4,2.18-6,4.17-6.78a11.71,11.71,0,0,1,1.38-.46Z" transform="translate(0 0)"/><path class="cls-6" d="M7.86,19.61S10.05,16.17,9.92,15s-2.4-1.58-2.4-1.58a12.75,12.75,0,0,0,4.27-1.89A13.43,13.43,0,0,0,14.14,8s.28,1.93,1.39,2.21,4.22-1,4.22-1a43.46,43.46,0,0,0-3.38,3.55c-1,1.3.41,3.78.41,3.78a10.71,10.71,0,0,0-4-.62c-1.41.26-4.9,3.63-4.9,3.63" transform="translate(0 0)"/><polygon class="cls-7" points="34.01 17.01 34.01 8.5 39.47 8.5 39.47 9.81 35.56 9.81 35.56 11.91 39.04 11.91 39.04 13.2 35.56 13.2 35.56 15.69 39.77 15.69 39.77 17.01 34.01 17.01"/><path class="cls-7" d="M46.11,16.68c-.28.07-.65.15-1.11.22a8.8,8.8,0,0,1-1.51.12,3.3,3.3,0,0,1-1.3-.22,2.09,2.09,0,0,1-.83-.61,2.49,2.49,0,0,1-.45-.94,5.08,5.08,0,0,1-.13-1.2v-3.6h1.48v3.37a2.74,2.74,0,0,0,.3,1.47,1.19,1.19,0,0,0,1,.44l.57,0,.45-.06v-5.2h1.48Z" transform="translate(0 0)"/><path class="cls-7" d="M51.59,11.93a3.67,3.67,0,0,0-.51-.13,3.45,3.45,0,0,0-.76-.07,3.37,3.37,0,0,0-.52,0l-.38.08V17H47.93V10.9A7.34,7.34,0,0,1,49,10.6a6.19,6.19,0,0,1,1.42-.15l.35,0,.39,0,.38.08.3.07Z" transform="translate(0 0)"/><path class="cls-7" d="M58.61,13.63A4.09,4.09,0,0,1,58.39,15a3.16,3.16,0,0,1-.63,1.07,2.79,2.79,0,0,1-1,.68,3,3,0,0,1-1.26.25,3,3,0,0,1-1.25-.25,2.79,2.79,0,0,1-1-.68A3.16,3.16,0,0,1,52.68,15a3.86,3.86,0,0,1-.23-1.39,3.85,3.85,0,0,1,.23-1.38,3.11,3.11,0,0,1,.63-1.06,2.93,2.93,0,0,1,1-.68,3.32,3.32,0,0,1,2.48,0,2.74,2.74,0,0,1,1,.68,3.11,3.11,0,0,1,.63,1.06,4.08,4.08,0,0,1,.23,1.38m-1.52,0a2.51,2.51,0,0,0-.41-1.51,1.46,1.46,0,0,0-2.3,0A2.51,2.51,0,0,0,54,13.63a2.6,2.6,0,0,0,.41,1.54,1.46,1.46,0,0,0,2.3,0,2.6,2.6,0,0,0,.41-1.54" transform="translate(0 0)"/><path class="cls-7" d="M65.85,13.8a4.45,4.45,0,0,1-.19,1.35,3.13,3.13,0,0,1-.55,1.06,2.45,2.45,0,0,1-.89.69,2.9,2.9,0,0,1-1.21.24,3.09,3.09,0,0,1-.83-.11,3.2,3.2,0,0,1-.63-.24v2.49H60.07V10.8a10.53,10.53,0,0,1,1.12-.24,8.83,8.83,0,0,1,1.4-.11,3.66,3.66,0,0,1,1.36.24,2.73,2.73,0,0,1,1,.66,3,3,0,0,1,.65,1.06,4.05,4.05,0,0,1,.23,1.39m-1.52,0a2.4,2.4,0,0,0-.45-1.55,1.74,1.74,0,0,0-1.44-.55l-.44,0a2.36,2.36,0,0,0-.45.08V15.5a2.64,2.64,0,0,0,.53.25,1.92,1.92,0,0,0,.69.12A1.32,1.32,0,0,0,64,15.31a2.57,2.57,0,0,0,.38-1.48" transform="translate(0 0)"/><path class="cls-7" d="M67,13.68a4,4,0,0,1,.25-1.48,3,3,0,0,1,.67-1.07,2.63,2.63,0,0,1,1-.63,2.85,2.85,0,0,1,1.11-.22A2.69,2.69,0,0,1,72,11.1a3.6,3.6,0,0,1,.74,2.46c0,.08,0,.17,0,.28a2.13,2.13,0,0,1,0,.27H68.49a1.66,1.66,0,0,0,.55,1.2,2.07,2.07,0,0,0,1.4.42,4.37,4.37,0,0,0,1-.1,3.11,3.11,0,0,0,.7-.21l.2,1.22-.34.13-.49.12a4.89,4.89,0,0,1-.59.09,4.73,4.73,0,0,1-.65,0,3.92,3.92,0,0,1-1.48-.25,2.81,2.81,0,0,1-1-.7,2.84,2.84,0,0,1-.6-1.06A4.32,4.32,0,0,1,67,13.68m4.3-.66a2.14,2.14,0,0,0-.08-.58,1.37,1.37,0,0,0-.25-.48,1.17,1.17,0,0,0-.41-.32,1.43,1.43,0,0,0-1.17,0,1.48,1.48,0,0,0-.44.34,1.42,1.42,0,0,0-.27.48,2.61,2.61,0,0,0-.14.55Z" transform="translate(0 0)"/><path class="cls-7" d="M76.38,10.31a3.69,3.69,0,0,1,1.24.18,1.92,1.92,0,0,1,.81.52,1.86,1.86,0,0,1,.42.8,3.75,3.75,0,0,1,.13,1v3.89c-.23.05-.57.11-1,.18a12.32,12.32,0,0,1-1.57.1,4.84,4.84,0,0,1-1-.11,2,2,0,0,1-.82-.36,1.63,1.63,0,0,1-.53-.63,2.21,2.21,0,0,1-.19-1A1.84,1.84,0,0,1,74,14a1.72,1.72,0,0,1,.58-.62,2.48,2.48,0,0,1,.85-.34,4.81,4.81,0,0,1,1-.1A3.08,3.08,0,0,1,77,13a4.71,4.71,0,0,1,.58.1v-.25a2,2,0,0,0-.06-.49,1.09,1.09,0,0,0-.22-.41,1,1,0,0,0-.4-.27,1.69,1.69,0,0,0-.64-.1,5.53,5.53,0,0,0-.94.07,4.8,4.8,0,0,0-.7.17l-.18-1.2a5.44,5.44,0,0,1,.82-.2,7,7,0,0,1,1.15-.09m.12,5.53a5.6,5.6,0,0,0,1-.07V14.12a2.86,2.86,0,0,0-.36-.07,2.71,2.71,0,0,0-.51,0,2.81,2.81,0,0,0-.5,0,1.64,1.64,0,0,0-.46.13.87.87,0,0,0-.32.28.95.95,0,0,0,.21,1.18,1.75,1.75,0,0,0,.89.2" transform="translate(0 0)"/><path class="cls-7" d="M80.73,10.8c.28-.08.66-.16,1.11-.24a10.18,10.18,0,0,1,1.53-.11,3.35,3.35,0,0,1,1.31.22,2,2,0,0,1,.84.6,2.23,2.23,0,0,1,.44.93,5.08,5.08,0,0,1,.13,1.2V17H84.61V13.63a5.27,5.27,0,0,0-.07-.87,1.62,1.62,0,0,0-.22-.59.88.88,0,0,0-.42-.34,1.76,1.76,0,0,0-.64-.1,4,4,0,0,0-.59,0l-.46.06V17H80.73Z" transform="translate(0 0)"/><polygon class="cls-7" points="34.01 28.35 34.01 19.84 39.39 19.84 39.39 21.15 35.56 21.15 35.56 23.33 38.96 23.33 38.96 24.64 35.56 24.64 35.56 28.35 34.01 28.35"/><path class="cls-7" d="M45.62,28c-.28.07-.65.14-1.11.22a8.8,8.8,0,0,1-1.51.12,3.3,3.3,0,0,1-1.3-.22,2,2,0,0,1-.83-.62,2.37,2.37,0,0,1-.45-.93,5.06,5.06,0,0,1-.14-1.2v-3.6h1.49v3.37a2.74,2.74,0,0,0,.3,1.47,1.19,1.19,0,0,0,1,.44l.57,0a2.67,2.67,0,0,0,.45-.07V21.79h1.48Z" transform="translate(0 0)"/><path class="cls-7" d="M47.44,22.14a9.53,9.53,0,0,1,1.12-.24,10,10,0,0,1,1.52-.11,3.35,3.35,0,0,1,1.31.22,2,2,0,0,1,.84.6,2.37,2.37,0,0,1,.45.93,5.61,5.61,0,0,1,.12,1.2v3.61H51.32V25a4.48,4.48,0,0,0-.07-.88A1.58,1.58,0,0,0,51,23.5a.87.87,0,0,0-.42-.33,1.72,1.72,0,0,0-.64-.1,4,4,0,0,0-.59,0l-.45.06v5.18H47.44Z" transform="translate(0 0)"/><path class="cls-7" d="M60,28a9.52,9.52,0,0,1-1.11.25,9,9,0,0,1-1.4.11,3.9,3.9,0,0,1-1.37-.23,2.88,2.88,0,0,1-1-.67,3,3,0,0,1-.65-1.06A4.05,4.05,0,0,1,54.19,25a4.56,4.56,0,0,1,.19-1.38,2.9,2.9,0,0,1,.56-1.06,2.44,2.44,0,0,1,.9-.69,2.87,2.87,0,0,1,1.21-.23,2.54,2.54,0,0,1,.82.11,3.65,3.65,0,0,1,.62.24V20.09L60,19.84Zm-4.26-3a2.32,2.32,0,0,0,.47,1.54,1.6,1.6,0,0,0,1.29.56,5.4,5.4,0,0,0,.61,0,3.14,3.14,0,0,0,.41-.07V23.29A2.4,2.4,0,0,0,58,23a1.92,1.92,0,0,0-.69-.12,1.34,1.34,0,0,0-1.18.55,2.64,2.64,0,0,0-.38,1.5" transform="translate(0 0)"/><path class="cls-7" d="M63.4,27.13a2.06,2.06,0,0,0,.86-.14.49.49,0,0,0,.27-.48.63.63,0,0,0-.29-.53,4.67,4.67,0,0,0-.95-.46,6.5,6.5,0,0,1-.75-.31,2.45,2.45,0,0,1-.58-.39,1.62,1.62,0,0,1-.39-.53,1.93,1.93,0,0,1-.14-.77,1.68,1.68,0,0,1,.65-1.39,2.82,2.82,0,0,1,1.77-.51,6.19,6.19,0,0,1,1.08.1,4.64,4.64,0,0,1,.77.21l-.27,1.2a3.78,3.78,0,0,0-.62-.2,3.94,3.94,0,0,0-.89-.09,1.55,1.55,0,0,0-.73.15.5.5,0,0,0-.28.47.61.61,0,0,0,.05.28.59.59,0,0,0,.19.23,1.9,1.9,0,0,0,.36.21,3.83,3.83,0,0,0,.54.21,8.94,8.94,0,0,1,.89.39,2.44,2.44,0,0,1,.61.43,1.4,1.4,0,0,1,.35.55,2.24,2.24,0,0,1,.11.73,1.61,1.61,0,0,1-.68,1.4,3.42,3.42,0,0,1-1.95.47A5.51,5.51,0,0,1,62,28.22c-.34-.1-.58-.17-.72-.23l.25-1.24a6.87,6.87,0,0,0,.8.26,4.1,4.1,0,0,0,1,.12" transform="translate(0 0)"/><path class="cls-7" d="M35.33,39q1.23,0,1.23-.84a.87.87,0,0,0-.11-.44,1,1,0,0,0-.3-.32,2.08,2.08,0,0,0-.42-.23L35.22,37a5,5,0,0,1-.58-.24,2.11,2.11,0,0,1-.48-.32,1.38,1.38,0,0,1-.32-.43,1.41,1.41,0,0,1-.12-.61,1.43,1.43,0,0,1,.5-1.15,2.17,2.17,0,0,1,1.39-.41,3.39,3.39,0,0,1,.93.11,1.92,1.92,0,0,1,.61.24l-.25.64a2.38,2.38,0,0,0-.51-.21,2.59,2.59,0,0,0-.78-.1,1.42,1.42,0,0,0-.42.05,1.16,1.16,0,0,0-.34.14.68.68,0,0,0-.23.25.68.68,0,0,0-.09.35.74.74,0,0,0,.09.38.83.83,0,0,0,.25.28l.38.21.47.19c.25.1.47.2.67.3a2.19,2.19,0,0,1,.53.34,1.39,1.39,0,0,1,.34.49,1.67,1.67,0,0,1,.12.67,1.36,1.36,0,0,1-.53,1.14,2.57,2.57,0,0,1-1.52.39,3.82,3.82,0,0,1-.61,0,4.24,4.24,0,0,1-.5-.11,2.39,2.39,0,0,1-.38-.13l-.25-.11.24-.65a3,3,0,0,0,.56.23,2.88,2.88,0,0,0,.94.13" transform="translate(0 0)"/><path class="cls-7" d="M38.24,35.6l.69-.14a5.7,5.7,0,0,1,1-.07,1.9,1.9,0,0,1,.68.11,1.09,1.09,0,0,1,.46.32l.18-.11a1.4,1.4,0,0,1,.3-.14,3.14,3.14,0,0,1,.4-.13,2.26,2.26,0,0,1,.47,0,2,2,0,0,1,.79.14,1.13,1.13,0,0,1,.48.4,1.55,1.55,0,0,1,.24.62,4.75,4.75,0,0,1,.06.78v2.36h-.75v-2.2a5.6,5.6,0,0,0,0-.64A1.33,1.33,0,0,0,43,36.4a.75.75,0,0,0-.27-.26,1,1,0,0,0-.45-.08,1.6,1.6,0,0,0-.63.1,1.12,1.12,0,0,0-.34.18,2.07,2.07,0,0,1,.1.46,4.45,4.45,0,0,1,0,.53v2.36h-.75v-2.2a4,4,0,0,0,0-.64,1.59,1.59,0,0,0-.14-.45.7.7,0,0,0-.28-.26.94.94,0,0,0-.44-.08h-.24l-.25,0-.21,0-.13,0v3.55h-.76Z" transform="translate(0 0)"/><path class="cls-7" d="M46.54,35.29a2.13,2.13,0,0,1,.76.12,1.22,1.22,0,0,1,.5.33,1.41,1.41,0,0,1,.28.51,2.71,2.71,0,0,1,.08.66v2.63l-.28,0-.39.06-.47,0-.51,0a2.64,2.64,0,0,1-.65-.07,1.55,1.55,0,0,1-.52-.23A1.07,1.07,0,0,1,45,39a1.46,1.46,0,0,1-.12-.62,1.11,1.11,0,0,1,.14-.6,1.07,1.07,0,0,1,.38-.41,1.69,1.69,0,0,1,.57-.22,3,3,0,0,1,.68-.08h.23l.24,0,.19,0,.11,0V37a1.5,1.5,0,0,0,0-.37,1,1,0,0,0-.15-.33A.69.69,0,0,0,47,36a1.11,1.11,0,0,0-.48-.09,4.09,4.09,0,0,0-.65.05l-.42.11-.09-.62a3.49,3.49,0,0,1,.49-.13,4.27,4.27,0,0,1,.74-.06m.06,3.78h.47l.35-.05V37.76a.84.84,0,0,0-.26-.07,2.9,2.9,0,0,0-.45,0l-.36,0a1,1,0,0,0-.34.11.71.71,0,0,0-.27.21.52.52,0,0,0-.1.35.58.58,0,0,0,.26.56,1.27,1.27,0,0,0,.7.16" transform="translate(0 0)"/><path class="cls-7" d="M50.92,35.39h.22l.25,0,.22,0,.15,0-.13.66-.29-.08a2.66,2.66,0,0,0-.53,0,1.93,1.93,0,0,0-.42,0l-.27.06v3.54h-.76v-4a3.74,3.74,0,0,1,.67-.18,4,4,0,0,1,.89-.09" transform="translate(0 0)"/><path class="cls-7" d="M53.15,35.38h1.6V36h-1.6V38a2.47,2.47,0,0,0,.05.52.84.84,0,0,0,.15.33.51.51,0,0,0,.24.16,1.16,1.16,0,0,0,.34.05,1.64,1.64,0,0,0,.55-.08l.29-.11.14.63a3,3,0,0,1-.39.14,2.18,2.18,0,0,1-.65.08,2,2,0,0,1-.71-.1,1.1,1.1,0,0,1-.45-.33,1.48,1.48,0,0,1-.24-.54A3.26,3.26,0,0,1,52.4,38V34.21l.75-.13Z" transform="translate(0 0)"/><path class="cls-7" d="M61,36.82h.79v2.62a2.26,2.26,0,0,1-.28.07l-.42.09c-.16,0-.34,0-.53.06a5.44,5.44,0,0,1-.57,0,2.85,2.85,0,0,1-1.08-.19,2.28,2.28,0,0,1-.83-.57,2.37,2.37,0,0,1-.54-.91,3.73,3.73,0,0,1-.19-1.25,3.45,3.45,0,0,1,.21-1.25,2.84,2.84,0,0,1,.58-.92A2.4,2.4,0,0,1,59,34a2.75,2.75,0,0,1,1-.19,3.49,3.49,0,0,1,.68,0,4,4,0,0,1,.51.11,2.45,2.45,0,0,1,.34.13.67.67,0,0,1,.18.1l-.25.65a1.9,1.9,0,0,0-.62-.25,3,3,0,0,0-.79-.1,2,2,0,0,0-.79.15,1.73,1.73,0,0,0-.6.44,2.3,2.3,0,0,0-.38.71,3,3,0,0,0-.14.94,3.23,3.23,0,0,0,.12.91,1.9,1.9,0,0,0,.36.71,1.5,1.5,0,0,0,.59.46,1.92,1.92,0,0,0,.83.16,4.85,4.85,0,0,0,.58,0l.34-.07Z" transform="translate(0 0)"/><path class="cls-7" d="M64.45,35.39h.23l.24,0,.23,0,.15,0-.13.66-.3-.08a2.6,2.6,0,0,0-.53,0,2,2,0,0,0-.42,0l-.27.06v3.54H62.9v-4a3.85,3.85,0,0,1,.66-.18,4.06,4.06,0,0,1,.89-.09" transform="translate(0 0)"/><path class="cls-7" d="M69.7,37.49a2.9,2.9,0,0,1-.14.91,2.14,2.14,0,0,1-.41.69,1.74,1.74,0,0,1-.63.45,1.89,1.89,0,0,1-.79.16,1.94,1.94,0,0,1-.8-.16,1.74,1.74,0,0,1-.63-.45,2,2,0,0,1-.4-.69,2.63,2.63,0,0,1-.15-.91,2.57,2.57,0,0,1,.15-.9,1.92,1.92,0,0,1,.4-.7,1.74,1.74,0,0,1,.63-.45,1.94,1.94,0,0,1,.8-.16,1.89,1.89,0,0,1,.79.16,1.74,1.74,0,0,1,.63.45,2.09,2.09,0,0,1,.41.7,2.83,2.83,0,0,1,.14.9m-.78,0a1.83,1.83,0,0,0-.32-1.13,1.12,1.12,0,0,0-1.75,0,1.83,1.83,0,0,0-.32,1.13,1.85,1.85,0,0,0,.32,1.13,1.12,1.12,0,0,0,1.75,0,1.85,1.85,0,0,0,.32-1.13" transform="translate(0 0)"/><path class="cls-7" d="M74.06,39.69c-.15-.39-.31-.83-.48-1.33s-.33-1-.47-1.56c-.14.54-.29,1.06-.46,1.56s-.33.94-.48,1.33h-.65a18.12,18.12,0,0,1-.73-1.9c-.24-.71-.46-1.48-.68-2.31h.81c.06.25.12.53.2.83s.15.59.24.89.17.58.26.86.18.51.26.72q.14-.39.27-.81c.09-.28.18-.57.26-.86s.16-.57.23-.85l.19-.78h.62q.08.36.18.78c.07.28.15.56.23.85s.16.58.25.86l.27.81c.09-.21.17-.45.26-.72s.18-.57.26-.86.17-.6.24-.89.15-.58.2-.83h.78c-.21.83-.44,1.6-.68,2.31s-.48,1.35-.72,1.9Z" transform="translate(0 0)"/><path class="cls-7" d="M77.58,35.38h1.59V36H77.58V38a2.55,2.55,0,0,0,0,.52,1,1,0,0,0,.15.33A.56.56,0,0,0,78,39a1.16,1.16,0,0,0,.34.05,1.64,1.64,0,0,0,.55-.08l.29-.11.14.63a2.52,2.52,0,0,1-.39.14,2.18,2.18,0,0,1-.65.08,2.06,2.06,0,0,1-.71-.1,1.1,1.1,0,0,1-.45-.33,1.48,1.48,0,0,1-.24-.54,3.26,3.26,0,0,1-.07-.74V34.21l.76-.13Z" transform="translate(0 0)"/><path class="cls-7" d="M80.09,39.69V33.54l.75-.13v2.15a3,3,0,0,1,.45-.12,2.59,2.59,0,0,1,.47,0,2.23,2.23,0,0,1,.84.14,1.35,1.35,0,0,1,.53.4,1.63,1.63,0,0,1,.28.61,3.84,3.84,0,0,1,.08.79v2.36h-.75v-2.2a3.1,3.1,0,0,0-.06-.66,1,1,0,0,0-.17-.45.7.7,0,0,0-.33-.25,1.43,1.43,0,0,0-.5-.07h-.25l-.25,0-.21,0-.13,0v3.5Z" transform="translate(0 0)"/></g></svg>