<svg xmlns="http://www.w3.org/2000/svg" xmlns:xlink="http://www.w3.org/1999/xlink" viewBox="0 0 1089.243 652.727" preserveAspectRatio="xMidYMid meet">
  <defs>
    <linearGradient id="linear-gradient" x1="0.5" y1="0.105" x2="0.5" y2="1.447" gradientUnits="objectBoundingBox">
      <stop offset="0" stop-color="#0b66c4"/>
      <stop offset="1" stop-opacity="0"/>
    </linearGradient>
    <clipPath id="clip-path">
      <path id="Path_1605" data-name="Path 1605" d="M0,576.476H1089.243V-76.25H0Z" transform="translate(0 76.25)" fill="url(#linear-gradient)"/>
    </clipPath>
  </defs>
  <g id="Group_1" data-name="Group 1" transform="translate(0 76.25)" opacity="0.454">
    <g id="Group_714" data-name="Group 714" transform="translate(0 -76.25)" clip-path="url(#clip-path)">
      <g id="Group_710" data-name="Group 710" transform="translate(2.471 541.227)">
        <path id="Path_1601" data-name="Path 1601" d="M0,98.473V78.99H85.27q7.82,0,12.036-3.981a13.869,13.869,0,0,0,4.229-10.581c0-4.811-1.113-6.934-3.929-9.339s-6.823-3.6-12.036-3.6H34.344a40.317,40.317,0,0,1-14.184-2.38A30.541,30.541,0,0,1,9.425,42.514,28.982,28.982,0,0,1,2.671,32.473,41.591,41.591,0,0,1,0,18.263a34.2,34.2,0,0,1,2.226-12.5,26.591,26.591,0,0,1,6.591-9.9,31.387,31.387,0,0,1,10.812-6.523,42.6,42.6,0,0,1,14.724-2.371H119.93V6.45H34.353c-4.494,0-7.978,1.207-10.426,3.6s-3.681,5.753-3.681,10.05S21.5,27.722,24,30.068,29.9,33.6,34.2,33.6H85.27q17.026,0,25.844,7.97t8.817,24.234a38.394,38.394,0,0,1-2.149,13.037A28.2,28.2,0,0,1,111.344,89.2a29.691,29.691,0,0,1-10.812,6.823A43.477,43.477,0,0,1,85.27,98.473Z" transform="translate(0 13.025)" fill="url(#linear-gradient)"/>
      </g>
      <g id="Group_711" data-name="Group 711" transform="translate(969.31 541.227)">
        <path id="Path_1602" data-name="Path 1602" d="M0,98.473V78.99H85.27q7.82,0,12.036-3.981a13.875,13.875,0,0,0,4.229-10.589c0-4.8-1.113-6.925-3.929-9.331s-6.823-3.6-12.036-3.6H34.344a40.317,40.317,0,0,1-14.184-2.38A30.541,30.541,0,0,1,9.425,42.514,28.982,28.982,0,0,1,2.671,32.473,41.591,41.591,0,0,1,0,18.263a34.2,34.2,0,0,1,2.226-12.5,26.591,26.591,0,0,1,6.591-9.9,31.387,31.387,0,0,1,10.812-6.523,42.6,42.6,0,0,1,14.724-2.371H119.93V6.45H34.353c-4.494,0-7.978,1.207-10.426,3.6s-3.681,5.753-3.681,10.05S21.5,27.722,24,30.068s5.9,3.527,10.2,3.527H85.27q17.026,0,25.844,7.978t8.817,24.234a38.394,38.394,0,0,1-2.149,13.037A28.2,28.2,0,0,1,111.344,89.2a29.691,29.691,0,0,1-10.812,6.823A43.477,43.477,0,0,1,85.27,98.473Z" transform="translate(0 13.025)" fill="url(#linear-gradient)"/>
      </g>
      <g id="Group_712" data-name="Group 712" transform="translate(135.895 541.227)">
        <path id="Path_1603" data-name="Path 1603" d="M47.819,98.473A52.678,52.678,0,0,1,26.264,94.1,53.564,53.564,0,0,1,9.092,82.14,54.143,54.143,0,0,1-2.259,64.121,61.636,61.636,0,0,1-6.325,41.573,59.689,59.689,0,0,1-2.259,19.179,49.8,49.8,0,0,1,9.092,1.93,51.039,51.039,0,0,1,26.264-9.113a58.068,58.068,0,0,1,21.555-3.912H74.964A59.532,59.532,0,0,1,97.127-9.036a49.392,49.392,0,0,1,28.446,28.455,59.455,59.455,0,0,1,3.989,22.154A61.633,61.633,0,0,1,125.5,64.121a54.143,54.143,0,0,1-11.351,18.02A53.372,53.372,0,0,1,96.9,94.1a53.92,53.92,0,0,1-21.932,4.374ZM74.964,78.99a35.418,35.418,0,0,0,14.107-2.756A33.7,33.7,0,0,0,100.2,68.641a34.088,34.088,0,0,0,7.276-11.574,40.156,40.156,0,0,0,2.611-14.578A39.421,39.421,0,0,0,107.476,28a32.717,32.717,0,0,0-18.4-18.867A36.306,36.306,0,0,0,74.964,6.45H47.819A35.334,35.334,0,0,0,33.943,9.138a32.783,32.783,0,0,0-10.966,7.439,34.028,34.028,0,0,0-7.208,11.351,39.077,39.077,0,0,0-2.611,14.561,39.976,39.976,0,0,0,2.611,14.578,34.6,34.6,0,0,0,7.208,11.574,32.927,32.927,0,0,0,10.966,7.593A34.473,34.473,0,0,0,47.819,78.99Z" transform="translate(6.325 13.025)" fill="url(#linear-gradient)"/>
      </g>
      <g id="Group_713" data-name="Group 713" transform="translate(394.326 541.227)">
        <path id="Path_1604" data-name="Path 1604" d="M89.53,0h19.013l.009,60.736a67.832,67.832,0,0,1-3.373,22.471A36.787,36.787,0,0,1,94.589,99.077q-7.2,6.292-18.627,9.356T48.277,111.5q-16.1,0-27.53-3.065T2.111,99.077A36.771,36.771,0,0,1-8.469,83.206a67.611,67.611,0,0,1-3.373-22.471V0H8.249V60.736a44.112,44.112,0,0,0,2.072,14.416,21.518,21.518,0,0,0,6.746,9.819,29.684,29.684,0,0,0,12.5,5.59,89.223,89.223,0,0,0,19.321,1.763A89.2,89.2,0,0,0,68.214,90.56a29.684,29.684,0,0,0,12.5-5.59,21.6,21.6,0,0,0,6.754-9.819A44.357,44.357,0,0,0,89.53,60.736Z" transform="translate(11.842)" fill="url(#linear-gradient)"/>
      </g>
    </g>
    <g id="Group_715" data-name="Group 715" transform="translate(525.765 464.979)">
      <path id="Path_1606" data-name="Path 1606" d="M0,0V19.475H42.331V111.5H61.806V19.475h42.322V0Z" fill="url(#linear-gradient)"/>
    </g>
    <g id="Group_717" data-name="Group 717" transform="translate(0 -76.25)" clip-path="url(#clip-path)">
      <g id="Group_716" data-name="Group 716" transform="translate(680.502 541.227)">
        <path id="Path_1607" data-name="Path 1607" d="M47.819,98.473A52.678,52.678,0,0,1,26.264,94.1,53.564,53.564,0,0,1,9.092,82.14,54.143,54.143,0,0,1-2.259,64.121,61.636,61.636,0,0,1-6.325,41.573,59.689,59.689,0,0,1-2.259,19.179,49.8,49.8,0,0,1,9.092,1.93,51.039,51.039,0,0,1,26.264-9.113a58.068,58.068,0,0,1,21.555-3.912H74.964A59.532,59.532,0,0,1,97.127-9.036a49.392,49.392,0,0,1,28.446,28.455,59.455,59.455,0,0,1,3.989,22.154A61.633,61.633,0,0,1,125.5,64.121a54.143,54.143,0,0,1-11.351,18.02A53.372,53.372,0,0,1,96.9,94.1a53.92,53.92,0,0,1-21.932,4.374ZM74.964,78.99a35.418,35.418,0,0,0,14.107-2.756A33.7,33.7,0,0,0,100.2,68.641a34.088,34.088,0,0,0,7.276-11.574,40.156,40.156,0,0,0,2.611-14.578A39.421,39.421,0,0,0,107.476,28a32.717,32.717,0,0,0-18.4-18.867A36.306,36.306,0,0,0,74.964,6.45H47.819A35.334,35.334,0,0,0,33.943,9.138a32.783,32.783,0,0,0-10.966,7.439,34.028,34.028,0,0,0-7.208,11.351,39.077,39.077,0,0,0-2.611,14.561,39.976,39.976,0,0,0,2.611,14.578,34.6,34.6,0,0,0,7.208,11.574,32.927,32.927,0,0,0,10.966,7.593A34.473,34.473,0,0,0,47.819,78.99Z" transform="translate(6.325 13.025)" fill="url(#linear-gradient)"/>
      </g>
    </g>
    <g id="Group_718" data-name="Group 718" transform="translate(643.849 464.976)">
      <path id="Path_1609" data-name="Path 1609" d="M17.207,34.49V-4.562H-2.276V15.161Z" transform="translate(2.276 4.562)" fill="url(#linear-gradient)"/>
    </g>
    <g id="Group_719" data-name="Group 719" transform="translate(643.849 512.068)">
      <path id="Path_1610" data-name="Path 1610" d="M0,56.884H19.483V12.071L0-7.524Z" transform="translate(0 7.524)" fill="url(#linear-gradient)"/>
    </g>
    <g id="Group_723" data-name="Group 723" transform="translate(0 -76.25)" clip-path="url(#clip-path)">
      <g id="Group_720" data-name="Group 720" transform="translate(287.577 541.23)">
        <path id="Path_1611" data-name="Path 1611" d="M56.325,81.508v-.026c-1.01.026-1.986.06-3.039.06a89.766,89.766,0,0,1-19.321-1.763,29.79,29.79,0,0,1-12.5-5.59,21.453,21.453,0,0,1-6.746-9.819A44.112,44.112,0,0,1,12.65,49.955V-10.781H-7.45l.009,60.736A67.682,67.682,0,0,0-4.069,72.425,36.8,36.8,0,0,0,6.512,88.3q7.2,6.292,18.636,9.356t27.53,3.065c.907,0,1.789-.017,2.671-.034v.034H87.03V81.508Z" transform="translate(7.45 10.781)" fill="url(#linear-gradient)"/>
      </g>
      <g id="Group_721" data-name="Group 721" transform="translate(831.722 541.227)">
        <path id="Path_1612" data-name="Path 1612" d="M16.8,98.473H-2.213l-.009-60.736A67.833,67.833,0,0,1,1.151,15.267,36.787,36.787,0,0,1,11.74-.6Q18.943-6.9,30.367-9.96t27.684-3.065q16.1,0,27.53,3.065T104.217-.6A36.771,36.771,0,0,1,114.8,15.267a67.611,67.611,0,0,1,3.373,22.471V98.473H98.079V37.738a44.112,44.112,0,0,0-2.072-14.416A21.473,21.473,0,0,0,89.262,13.5a29.684,29.684,0,0,0-12.5-5.59A89.166,89.166,0,0,0,57.444,6.142,89.141,89.141,0,0,0,38.114,7.914a29.684,29.684,0,0,0-12.5,5.59,21.554,21.554,0,0,0-6.754,9.819A44.357,44.357,0,0,0,16.8,37.738Z" transform="translate(2.222 13.025)" fill="url(#linear-gradient)"/>
      </g>
      <g id="Group_722" data-name="Group 722" transform="translate(0.001 0.042)">
        <path id="Path_1613" data-name="Path 1613" d="M414.034,237.19a109.386,109.386,0,0,0-54.915-38.855q27.466-8.68,47.21-33.163,19.762-24.41,19.766-70.631,0-30.817-11.043-54.606A103.709,103.709,0,0,0,383.243.429Q362.467-15.3,333.687-23.335q-28.814-8.064-64.314-8.038H-52.752V53.015H252.629q42.194,0,64.973,13.037,22.741,13.084,22.77,47.236,0,32.114-17.42,45.541-17.4,13.405-53.579,13.4H239.986s88.266,85.954,90.329,87.735q18.747,16.063,18.773,46.192,0,32.153-25.458,48.229-25.463,16.1-65.641,16.059H-54.764v85.073H278.772q35.453,0,64.622-10.7,29.109-10.722,49.539-29.8A128.847,128.847,0,0,0,424.427,368.8q11.043-27.145,11.043-60.607,0-42.874-21.435-71" transform="translate(54.764 31.373)" fill="url(#linear-gradient)"/>
      </g>
    </g>
    <g id="Group_724" data-name="Group 724" transform="translate(115.183 127.39)">
      <path id="Path_1615" data-name="Path 1615" d="M0,63.28H130.845L59.743-8.37H0Z" transform="translate(0 8.37)" fill="url(#linear-gradient)"/>
    </g>
    <g id="Group_726" data-name="Group 726" transform="translate(0 -76.25)" clip-path="url(#clip-path)">
      <g id="Group_725" data-name="Group 725" transform="translate(563.251 -0.001)">
        <path id="Path_1616" data-name="Path 1616" d="M73.358,430.017H-9.694L-9.7,164.792q0-56.28,14.724-98.127Q19.775,24.8,51.247-2.64,82.719-30.105,132.63-43.507q49.9-13.367,120.889-13.371,70.366,0,120.239,13.371Q423.655-30.1,455.14-2.64q31.511,27.427,46.226,69.3,14.754,41.86,14.732,98.127l.009,265.225H428.355l-.009-265.225q0-36.839-9.04-62.953-9.04-26.13-29.456-42.879-20.429-16.718-54.606-24.414t-84.388-7.7q-50.258,0-84.4,7.7-34.169,7.666-54.589,24.414a94.08,94.08,0,0,0-29.482,42.879q-9.053,26.118-9.04,62.953Z" transform="translate(9.703 56.878)" fill="url(#linear-gradient)"/>
      </g>
    </g>
  </g>
</svg>
