<svg xmlns="http://www.w3.org/2000/svg" xmlns:xlink="http://www.w3.org/1999/xlink" viewBox="0 0 113 99" preserveAspectRatio="xMidYMid meet">
  <defs>
    <clipPath id="clip-Artboard_1">
      <rect width="113" height="99"/>
    </clipPath>
  </defs>
  <g id="Artboard_1" data-name="Artboard – 1" clip-path="url(#clip-Artboard_1)">
    <rect width="113" height="99" fill="#fff"/>
    <g id="Group_839" data-name="Group 839" transform="translate(-931.729 -129.738)">
      <path id="Path_1647" data-name="Path 1647" d="M1035.97,190.251a68.547,68.547,0,0,0-13.433-29.4l.921-.923a1.311,1.311,0,0,0,0-1.846l-2.716-2.709,3.892-3.892a1.3,1.3,0,0,0,0-1.838l-6.817-6.817a1.3,1.3,0,0,0-1.838,0l-3.892,3.892L1009.378,144a1.312,1.312,0,0,0-1.845,0l-.924.923a68.449,68.449,0,0,0-29.4-13.433,1.306,1.306,0,0,0-1.168,2.2l20.9,20.9-.581.587a1.3,1.3,0,0,0-.379,1.044l.573,6.027-55.446,55.446a1.3,1.3,0,0,0,0,1.838l6.817,6.817a1.3,1.3,0,0,0,1.838,0L1005.21,170.9l6.028.574a1.3,1.3,0,0,0,1.042-.38l.587-.581,20.9,20.906a1.336,1.336,0,0,0,.923.38,1.314,1.314,0,0,0,1.28-1.549Zm-22.186-22.5" transform="translate(0 0)" fill="none" stroke="#ff2d30" stroke-linecap="square" stroke-miterlimit="10" stroke-width="2"/>
      <line id="Line_45" data-name="Line 45" x2="8.656" y2="8.656" transform="translate(1012.087 146.713)" fill="none" stroke="#ff2d30" stroke-linecap="square" stroke-miterlimit="10" stroke-width="2"/>
      <line id="Line_46" data-name="Line 46" x2="8.656" y2="8.656" transform="translate(996.555 162.245)" fill="none" stroke="#ff2d30" stroke-linecap="square" stroke-miterlimit="10" stroke-width="2"/>
    </g>
  </g>
</svg>
