<svg xmlns="http://www.w3.org/2000/svg" xmlns:xlink="http://www.w3.org/1999/xlink" viewBox="0 0 113 99" preserveAspectRatio="xMidYMid meet">
  <defs>
    <clipPath id="clip-Artboard_1">
      <rect width="113" height="99"/>
    </clipPath>
  </defs>
  <g id="Artboard_1" data-name="Artboard – 1" clip-path="url(#clip-Artboard_1)">
    <rect width="113" height="99" fill="#fff"/>
    <g id="Group_842" data-name="Group 842" transform="translate(-436.888 -128.633)">
      <g id="Group_841" data-name="Group 841" transform="translate(453.269 145.113)">
        <path id="Path_1650" data-name="Path 1650" d="M510.948,204.767a3.595,3.595,0,1,1,3.595-3.595,3.6,3.6,0,0,1-3.595,3.595Zm0,0" transform="translate(-447.64 -138.146)" fill="none" stroke="#ff2d30" stroke-linecap="square" stroke-miterlimit="10" stroke-width="2"/>
        <path id="Path_1651" data-name="Path 1651" d="M516.576,224.747H460.458a7.189,7.189,0,0,1,0-14.378V143.748m56.119,81a17.973,17.973,0,1,1,17.973-17.973,17.994,17.994,0,0,1-17.973,17.973Zm0-43.135" transform="translate(-453.269 -143.748)" fill="none" stroke="#ff2d30" stroke-linecap="square" stroke-miterlimit="10" stroke-width="2"/>
      </g>
      <path id="Path_1652" data-name="Path 1652" d="M530.276,208.139V148.606A17.974,17.974,0,0,0,512.3,130.633h0a17.974,17.974,0,0,0-17.973,17.973v59.533" transform="translate(4.273)" fill="none" stroke="#ff2d30" stroke-linecap="square" stroke-miterlimit="10" stroke-width="2"/>
      <path id="Path_1653" data-name="Path 1653" d="M460.458,143.748a7.189,7.189,0,0,0-7.189,7.19v66.62" transform="translate(0 1.365)" fill="none" stroke="#ff2d30" stroke-linecap="square" stroke-miterlimit="10" stroke-width="2"/>
      <line id="Line_47" data-name="Line 47" x2="38.146" transform="translate(460.458 152.12)" fill="none" stroke="#ff2d30" stroke-linecap="square" stroke-miterlimit="10" stroke-width="2"/>
    </g>
  </g>
</svg>
