<svg xmlns="http://www.w3.org/2000/svg" xmlns:xlink="http://www.w3.org/1999/xlink" viewBox="0 0 113 99" preserveAspectRatio="xMidYMid meet">
  <defs>
    <clipPath id="clip-Artboard_1">
      <rect width="113" height="99"/>
    </clipPath>
  </defs>
  <g id="Artboard_1" data-name="Artboard – 1" clip-path="url(#clip-Artboard_1)">
    <rect width="113" height="99" fill="#fff"/>
    <g id="Group_844" data-name="Group 844" transform="translate(-800.917 -129.16)">
      <g id="Group_843" data-name="Group 843" transform="translate(835.645 155.463)">
        <path id="Path_1654" data-name="Path 1654" d="M875.753,206.083l-12.911-31.471a14.356,14.356,0,0,1-1.08-5.475v-8.318a3.33,3.33,0,0,1,.983-2.372,4.063,4.063,0,0,0,1.2-2.892v-1.179a1.193,1.193,0,0,0-1.193-1.192H846.1a1.193,1.193,0,0,0-1.192,1.192v1.179a4.062,4.062,0,0,0,1.2,2.892,3.33,3.33,0,0,1,.983,2.372v8.318a14.356,14.356,0,0,1-1.08,5.475l-3.547,8.647,0,.01L833.1,206.083a5.914,5.914,0,0,0,5.472,8.158h31.712a5.914,5.914,0,0,0,5.472-8.158Zm-2.541,4.21" transform="translate(-832.653 -153.184)" fill="none" stroke="#ff2d30" stroke-linecap="square" stroke-linejoin="round" stroke-width="2"/>
        <path id="Path_1655" data-name="Path 1655" d="M840.132,184.407s2.121-3.573,9.211-3.573,13.256,4.185,15.45,3.561a1.965,1.965,0,0,0,1.342-2.739" transform="translate(-831.875 -150.305)" fill="none" stroke="#ff2d30" stroke-linecap="square" stroke-linejoin="round" stroke-width="2"/>
        <line id="Line_48" data-name="Line 48" x2="3.399" transform="translate(6.777 38.243)" fill="none" stroke="#ff2d30" stroke-linecap="square" stroke-linejoin="round" stroke-width="2"/>
        <line id="Line_49" data-name="Line 49" x2="3.399" transform="translate(5.32 41.552)" fill="none" stroke="#ff2d30" stroke-linecap="square" stroke-linejoin="round" stroke-width="2"/>
        <line id="Line_50" data-name="Line 50" x2="3.399" transform="translate(3.992 44.86)" fill="none" stroke="#ff2d30" stroke-linecap="square" stroke-linejoin="round" stroke-width="2"/>
        <line id="Line_51" data-name="Line 51" x2="2.661" transform="translate(14.435 8.959)" fill="none" stroke="#ff2d30" stroke-linecap="square" stroke-linejoin="round" stroke-width="2"/>
        <line id="Line_52" data-name="Line 52" x2="2.661" transform="translate(14.435 12.839)" fill="none" stroke="#ff2d30" stroke-linecap="square" stroke-linejoin="round" stroke-width="2"/>
        <line id="Line_53" data-name="Line 53" x2="2.661" transform="translate(14.435 16.719)" fill="none" stroke="#ff2d30" stroke-linecap="square" stroke-linejoin="round" stroke-width="2"/>
      </g>
      <path id="Path_1656" data-name="Path 1656" d="M852.981,133.855l-48.37,83.78a5.123,5.123,0,0,0,4.436,7.684h96.74a5.123,5.123,0,0,0,4.436-7.684l-48.37-83.78A5.123,5.123,0,0,0,852.981,133.855Z" fill="none" stroke="#ff2d30" stroke-linecap="square" stroke-linejoin="round" stroke-width="2"/>
    </g>
  </g>
</svg>
