<svg xmlns="http://www.w3.org/2000/svg" xmlns:xlink="http://www.w3.org/1999/xlink" viewBox="0 0 113 99" preserveAspectRatio="xMidYMid meet">
  <defs>
    <clipPath id="clip-Artboard_1">
      <rect width="113" height="99"/>
    </clipPath>
  </defs>
  <g id="Artboard_1" data-name="Artboard – 1" clip-path="url(#clip-Artboard_1)">
    <rect width="113" height="99" fill="#fff"/>
    <g id="Group_840" data-name="Group 840" transform="translate(-557.604 -127.344)">
      <path id="Path_1648" data-name="Path 1648" d="M613.329,141.355a35.1,35.1,0,0,1,34.265,27.716H579.062a35.1,35.1,0,0,1,34.266-27.716Zm-34.508,41.1h.833a14.2,14.2,0,0,1,14.181,14.182,14.02,14.02,0,0,1-2.071,7.351,35.065,35.065,0,0,1-12.943-21.534Zm22.834,26.979a12.263,12.263,0,0,1,23.343,0,34.957,34.957,0,0,1-23.343,0Zm33.237-5.445a14.032,14.032,0,0,1-2.072-7.351A14.2,14.2,0,0,1,647,182.45h.833a35.064,35.064,0,0,1-12.943,21.534Zm0,0" transform="translate(0.87 0.832)" fill="none" stroke="#ff2d30" stroke-linecap="square" stroke-linejoin="round" stroke-width="2"/>
      <path id="Path_1649" data-name="Path 1649" d="M614.2,223.822a46.594,46.594,0,1,1,46.593-46.594A46.6,46.6,0,0,1,614.2,223.822Zm0,0" transform="translate(0)" fill="none" stroke="#ff2d30" stroke-linecap="square" stroke-linejoin="round" stroke-width="2"/>
      <circle id="Ellipse_29" data-name="Ellipse 29" cx="35.04" cy="35.04" r="35.04" transform="translate(579.157 142.187)" stroke-width="2" stroke="#ff2d30" stroke-linecap="square" stroke-linejoin="round" fill="none"/>
      <rect id="Rectangle_181" data-name="Rectangle 181" width="13.405" height="4.121" transform="translate(607.496 175.832)" stroke-width="2" stroke="#ff2d30" stroke-linecap="square" stroke-linejoin="round" fill="none"/>
    </g>
  </g>
</svg>
