<svg xmlns="http://www.w3.org/2000/svg" xmlns:xlink="http://www.w3.org/1999/xlink" viewBox="0 0 113 99" preserveAspectRatio="xMidYMid meet">
  <defs>
    <clipPath id="clip-Artboard_1">
      <rect width="113" height="99"/>
    </clipPath>
  </defs>
  <g id="Artboard_1" data-name="Artboard – 1" clip-path="url(#clip-Artboard_1)">
    <rect width="113" height="99" fill="#fff"/>
    <g id="Group_845" data-name="Group 845" transform="translate(-679.377 -129.642)">
      <g id="Group_845-2" data-name="Group 845" transform="translate(689.197 131.462)">
        <circle id="Ellipse_30" data-name="Ellipse 30" cx="47.59" cy="47.59" r="47.59" stroke-width="2" stroke="#ff2d30" stroke-linecap="square" stroke-linejoin="round" fill="none"/>
      </g>
      <g id="Group_846" data-name="Group 846" transform="translate(707.801 153.601)">
        <path id="Path_1657" data-name="Path 1657" d="M745.577,201.154a29,29,0,0,0-1.6-49.963" transform="translate(-701.11 -151.191)" fill="none" stroke="#ff2d30" stroke-linecap="square" stroke-linejoin="round" stroke-width="2"/>
        <path id="Path_1658" data-name="Path 1658" d="M717.041,153.429a28.994,28.994,0,0,0,3.753,48.346" transform="translate(-705.776 -150.918)" fill="none" stroke="#ff2d30" stroke-linecap="square" stroke-linejoin="round" stroke-width="2"/>
      </g>
      <g id="Group_848" data-name="Group 848" transform="translate(722.821 147.662)">
        <g id="Group_847" data-name="Group 847">
          <path id="Path_1659" data-name="Path 1659" d="M719.161,145.9v17.043a6.907,6.907,0,0,0,6.907,6.907h0a6.906,6.906,0,0,0,6.906-6.907V145.9" transform="translate(-719.161 -145.899)" fill="none" stroke="#ff2d30" stroke-linecap="square" stroke-linejoin="round" stroke-width="2"/>
          <line id="Line_54" data-name="Line 54" y1="15.822" transform="translate(3.409 0)" fill="none" stroke="#ff2d30" stroke-linecap="square" stroke-linejoin="round" stroke-width="2"/>
          <line id="Line_55" data-name="Line 55" y1="15.822" transform="translate(6.906 0)" fill="none" stroke="#ff2d30" stroke-linecap="square" stroke-linejoin="round" stroke-width="2"/>
          <line id="Line_56" data-name="Line 56" y1="15.822" transform="translate(10.016 0)" fill="none" stroke="#ff2d30" stroke-linecap="square" stroke-linejoin="round" stroke-width="2"/>
          <path id="Path_1660" data-name="Path 1660" d="M727.953,167.093v36.9a2.1,2.1,0,0,1-2.1,2.1H725.3a2.1,2.1,0,0,1-2.1-2.1v-36.9" transform="translate(-718.668 -143.311)" fill="none" stroke="#ff2d30" stroke-linecap="square" stroke-linejoin="round" stroke-width="2"/>
        </g>
        <path id="Path_1661" data-name="Path 1661" d="M741.238,176.549v29.9a2.167,2.167,0,0,1-2.1,2.229h-.559a2.166,2.166,0,0,1-2.1-2.229V146.636a.69.69,0,0,1,1.361-.2l7.018,26.021a3.178,3.178,0,0,1-2.907,4.095h0" transform="translate(-717.046 -145.899)" fill="none" stroke="#ff2d30" stroke-linecap="square" stroke-linejoin="round" stroke-width="2"/>
      </g>
    </g>
  </g>
</svg>
