<svg id="Warstwa_1" data-name="Warstwa 1" xmlns="http://www.w3.org/2000/svg" viewBox="0 0 2307.46 561.56">
    <defs><style>.cls-1{fill:#1960aa;}</style></defs>
    <path class="cls-1" d="M2023.7,720.1c-9.5,2.2-19.3,9.4-24.4,18-6.8,11.3-6.3-8-6.3,259.9,0,212.1.2,243.3,1.5,248.3,3.3,12.6,9.9,20.8,21.3,26.4l7.6,3.8h498.1l6.6-3.2a45.86,45.86,0,0,0,19.7-20l2.7-5.8v-499l-3.3-6.7c-4.1-8.4-12.8-16.7-20.9-20l-5.8-2.3-246.5-.2C2133.1,719.3,2025.9,719.6,2023.7,720.1Zm101.8,76c17.4,3.2,32.4,16.4,37.6,33,2.6,8.2,2.5,20.7-.1,29-6.9,22.2-30.6,36.9-53.2,33.1a48.34,48.34,0,0,1-1.3-95.2C2114.4,794.8,2118.9,794.9,2125.5,796.1Zm271.4,127.4c28.8,5.5,48.3,20.2,59.6,44.9,4.2,9.1,6.9,18.3,9.7,32.7,2.1,11.1,2.1,13.9,2.5,102.6l.4,91.3h-83l-.4-79.3c-.3-70.8-.5-80-2.1-86.7-3.7-15.9-10.5-25.7-21.5-30.9-5.2-2.4-6.5-2.6-19.6-2.6-12.2.1-14.7.4-19.8,2.4-15.6,6.2-24.5,19.8-27.6,42.4-.7,5.1-1.1,33.9-1.1,81.3V1195h-84V928h80v18c0,9.9.3,18,.8,18s2-2.1,3.7-4.7c6.5-10.4,20.8-22.9,33-29,5.9-3,19.1-7.2,26-8.3C2361.8,920.7,2386.8,921.6,2396.9,923.5Zm-237.9,138V1195h-84V928h84Z" transform="translate(-346 -719.3)"/>
    <path class="cls-1" d="M659.8,797a62.38,62.38,0,0,0-10,4.1c-23.5,11.9-32.6,40.7-20.3,64.8,3.4,6.8,12.5,16.1,19.1,19.4,19.6,9.9,41.5,6.8,56.5-8.2A46.54,46.54,0,0,0,719,843.5c0-18.8-10.4-35-27.6-43.2-7-3.3-8.5-3.7-17.8-3.9C668.1,796.2,661.8,796.5,659.8,797Z" transform="translate(-346 -719.3)"/>
    <path class="cls-1" d="M1060,998v197h82v-66c0-36.3.4-66,.8-66s20.6,29.7,44.8,66l43.9,65.9,51.4.1c41.2,0,51.2-.3,50.8-1.3-.2-.7-23.9-32.9-52.6-71.6s-52.1-70.7-51.9-71.1c.2-.6,90.7-103.7,104.7-119.3l3.3-3.7h-101l-46.9,54.2-46.8,54.1-.3-117.6L1142,801h-82Z" transform="translate(-346 -719.3)"/>
    <path class="cls-1" d="M1827.7,801.7c-.4.3-.7,35-.7,77,0,50.2-.3,76.3-1,76.3a1,1,0,0,1-1-.8c0-1.8-12.9-13.8-19.2-17.9-15.8-10.2-33.4-15.1-58.3-16-18.4-.6-28.9.8-44,5.8-40.8,13.6-70.5,50.7-81.7,102.2-2,9-2.2,13.1-2.2,34.2s.2,25.2,2.2,34.2c13.7,62.6,58.3,100.8,121.2,103.9,32.9,1.6,64.3-11.6,84.6-35.6,2.6-3,5-5.7,5.5-5.8s.9,7.5.9,17.2V1194h76V801h-40.8C1846.7,801,1828,801.3,1827.7,801.7Zm-46.2,191.8c25.6,4.5,43.4,21,50.2,46.5,2.4,9.1,2.4,32-.1,41-3.3,12.2-8.2,20.8-16.5,29-13.2,13.1-26.5,18.2-47.6,18.2-28.4,0-48.9-11.9-59.6-34.7-5.1-10.8-6.4-17.6-6.4-33.5,0-16.3,1.7-23.8,8.1-36C1722.2,999.9,1750.2,988.1,1781.5,993.5Z" transform="translate(-346 -719.3)"/>
    <path class="cls-1" d="M346.2,998.2l.3,196.3,122.8.3,122.7.2v-79l-79.7-.2-79.8-.3-.3-156.8L432,802H346Z" transform="translate(-346 -719.3)"/>
    <path class="cls-1" d="M1450,921c-52.3,6.1-94.3,33.6-115.4,75.6-9,18-13.3,35.4-14.2,57.9-1.7,39.8,10.8,74.7,36.4,101.6,27.9,29.4,66.4,44.8,111.7,44.9,40.3,0,76-14.6,104.3-42.8l9.3-9.3-2.3-1.8c-11.3-8.7-54.9-40.1-55.8-40.1a1,1,0,0,0-1,.8c0,1.9-11.8,13.7-18.3,18.3-12.9,9-30.9,13.9-46,12.5-9.1-.8-21.7-5.2-28.9-10-7.9-5.2-16.6-14.9-21-23.1-3.6-6.9-7.1-17.9-6-18.9.3-.3,43.7-.6,96.4-.6H1595v-10.8c-.1-47.2-7.1-76.8-24.2-103.3-16.4-25.4-41.4-42.2-73.2-49C1487.1,920.7,1461.7,919.6,1450,921Zm22.1,59.4a50.41,50.41,0,0,1,25.4,14c9.1,9.3,14.5,21.2,14.5,32.3v4.3h-54.4c-30,0-54.7-.3-54.9-.8s.1-3.4.8-6.8A55.88,55.88,0,0,1,1448,980,72.2,72.2,0,0,1,1472.1,980.4Z" transform="translate(-346 -719.3)"/>
    <path class="cls-1" d="M893.2,924.5A86.1,86.1,0,0,0,863,938.8c-7.6,5.7-16.4,15-20.6,21.6-1.6,2.5-3.2,4.6-3.6,4.6s-.8-8.3-.8-18.5V928H759v266h82v-66.8c0-69.7.7-85.9,4-98,5.3-19.2,15.9-30.2,32.7-33.7,17.2-3.7,33.5-.2,42.7,9,7.8,7.7,11.9,19.4,13.6,38,.5,6,1,42.6,1,81.2V1194h82v-80.8c0-44.4-.5-86.1-1-92.7-5.7-69.5-34.8-98.6-98.5-98.4C905,922.1,900.9,922.5,893.2,924.5Z" transform="translate(-346 -719.3)"/><path class="cls-1" d="M630,1061v133h83V928H630Z" transform="translate(-346 -719.3)"/><path class="cls-1" d="M2610.2,1206.1c-12.1,1.6-23.6,10.2-29.1,21.9-2.2,4.7-2.6,6.9-2.6,15,0,10.2,1.5,15,7.2,23.3,6.4,9.2,19.7,15.2,32.3,14.5,26.8-1.5,43.4-30.1,31.6-54.2-3.1-6.3-11.9-15-18-17.7C2626,1206.5,2617,1205.3,2610.2,1206.1Zm19.1,7.3c6.1,2.9,12.4,9.2,15.9,15.8,2,3.7,2.3,5.7,2.3,14.8,0,12.4-1.7,16.6-9.7,24.2-6.9,6.6-13.9,9.1-24.3,8.6-13.3-.5-22.9-6.8-28.7-18.6-2.9-5.9-3.3-7.6-3.3-14.7.1-8.8,2-14.5,7.2-21C2598,1210.7,2615.8,1206.7,2629.3,1213.4Z" transform="translate(-346 -719.3)"/>
    <path class="cls-1" d="M2602,1243.9V1264h6v-18h3.5c3.4,0,3.9.4,9.3,9,4.9,7.7,6.1,8.9,8.5,9,3.2,0,3.4.6-3.5-9.7-5.4-8-5.7-9.3-2.7-9.3,7.9,0,11.5-12.3,5.2-18.2-2.2-2.1-3.5-2.3-14.4-2.6l-11.9-.4Zm21.8-14.3c1.5,1,2.2,2.5,2.2,4.8,0,5.1-2.8,7-11.1,7.4l-6.9.4V1228h6.8C2619.3,1228,2622.3,1228.5,2623.8,1229.6Z" transform="translate(-346 -719.3)"/>
</svg>