<svg xmlns="http://www.w3.org/2000/svg" viewBox="0 0 398 31.847" preserveAspectRatio="xMidYMid meet">
  <g id="Group_1" data-name="Group 1" transform="translate(-137.565 -381.961)">
    <path id="Path_77" data-name="Path 77" d="M655.623,413.807v-5.564h24.356a4.806,4.806,0,0,0,3.438-1.137,3.964,3.964,0,0,0,1.206-3.023,2.873,2.873,0,0,0-1.132-2.625,5.143,5.143,0,0,0-3.438-1.029h-14.63a11.508,11.508,0,0,1-4.053-.68,8.753,8.753,0,0,1-3.066-1.882,8.274,8.274,0,0,1-1.928-2.87,12.091,12.091,0,0,1-.753-4.1,9.8,9.8,0,0,1,.636-3.57,7.616,7.616,0,0,1,1.882-2.825,8.911,8.911,0,0,1,3.089-1.864,12.131,12.131,0,0,1,4.205-.678h24.442v5.563H665.435a4.078,4.078,0,0,0-2.978,1.03,4.446,4.446,0,0,0,.011,5.757,4.079,4.079,0,0,0,2.912,1.008h14.587q4.863,0,7.381,2.277c1.678,1.519,2.528,3.787,2.528,6.882a10.942,10.942,0,0,1-.613,3.723,8.038,8.038,0,0,1-1.839,2.958,8.431,8.431,0,0,1-3.088,1.949,12.389,12.389,0,0,1-4.358.7Z" transform="translate(-154.312 0)" fill="#1961ac"/>
    <path id="Path_78" data-name="Path 78" d="M262.34,413.808v-5.564h24.355a4.808,4.808,0,0,0,3.438-1.137,3.964,3.964,0,0,0,1.206-3.023,2.873,2.873,0,0,0-1.131-2.625,5.145,5.145,0,0,0-3.438-1.029H272.14a11.511,11.511,0,0,1-4.053-.68,8.741,8.741,0,0,1-3.066-1.882,8.265,8.265,0,0,1-1.928-2.87,12.067,12.067,0,0,1-.753-4.1,9.784,9.784,0,0,1,.635-3.57,7.61,7.61,0,0,1,1.882-2.825,8.9,8.9,0,0,1,3.089-1.863,12.123,12.123,0,0,1,4.205-.678h24.442v5.563H272.152a4.082,4.082,0,0,0-2.979,1.03,4.446,4.446,0,0,0,.011,5.757,4.081,4.081,0,0,0,2.912,1.008h14.587q4.862,0,7.382,2.277c1.677,1.519,2.528,3.787,2.528,6.882a10.951,10.951,0,0,1-.613,3.723,8.044,8.044,0,0,1-1.84,2.957,8.433,8.433,0,0,1-3.088,1.949,12.389,12.389,0,0,1-4.359.7Z" transform="translate(-37.166 0)" fill="#1961ac"/>
    <path id="Path_79" data-name="Path 79" d="M332.08,413.808a15.045,15.045,0,0,1-6.156-1.248A15.16,15.16,0,0,1,317.777,404a17.568,17.568,0,0,1-1.161-6.441,17,17,0,0,1,1.161-6.394,14.189,14.189,0,0,1,3.242-4.928,14.6,14.6,0,0,1,4.905-3.155,16.607,16.607,0,0,1,6.156-1.117h7.754a17.027,17.027,0,0,1,6.33,1.14,14.1,14.1,0,0,1,8.125,8.126,16.989,16.989,0,0,1,1.139,6.328,17.6,17.6,0,0,1-1.16,6.441,15.467,15.467,0,0,1-3.242,5.147,15.247,15.247,0,0,1-4.929,3.416,15.408,15.408,0,0,1-6.263,1.248Zm7.754-5.564a10.118,10.118,0,0,0,4.03-.787,9.518,9.518,0,0,0,5.257-5.476,11.462,11.462,0,0,0,.744-4.161,11.279,11.279,0,0,0-.744-4.138,9.36,9.36,0,0,0-5.257-5.389,10.4,10.4,0,0,0-4.03-.767H332.08a10.117,10.117,0,0,0-3.964.767,9.4,9.4,0,0,0-3.132,2.125,9.77,9.77,0,0,0-2.058,3.242,11.2,11.2,0,0,0-.745,4.161,11.421,11.421,0,0,0,.745,4.161,9.88,9.88,0,0,0,2.058,3.307,9.46,9.46,0,0,0,3.132,2.169,9.844,9.844,0,0,0,3.964.787Z" transform="translate(-53.333 0)" fill="#1961ac"/>
    <path id="Path_80" data-name="Path 80" d="M450.695,381.962h5.431V399.31a19.352,19.352,0,0,1-.963,6.418,10.521,10.521,0,0,1-3.023,4.533,13.144,13.144,0,0,1-5.322,2.673,36,36,0,0,1-15.769,0,13.144,13.144,0,0,1-5.321-2.673,10.5,10.5,0,0,1-3.023-4.533,19.315,19.315,0,0,1-.963-6.418V381.962h5.739V399.31a12.643,12.643,0,0,0,.591,4.118,6.153,6.153,0,0,0,1.927,2.8,8.5,8.5,0,0,0,3.571,1.6,30.462,30.462,0,0,0,11.038,0,8.5,8.5,0,0,0,3.57-1.6,6.151,6.151,0,0,0,1.928-2.8,12.643,12.643,0,0,0,.591-4.118Z" transform="translate(-84.646 0)" fill="#1961ac"/>
    <path id="Path_81" data-name="Path 81" d="M195.741,413.808H190.31V396.461a19.348,19.348,0,0,1,.963-6.418,10.512,10.512,0,0,1,3.023-4.533,13.146,13.146,0,0,1,5.322-2.673,35.974,35.974,0,0,1,15.77,0,13.146,13.146,0,0,1,5.321,2.673,10.5,10.5,0,0,1,3.023,4.533,19.313,19.313,0,0,1,.963,6.418v17.347h-5.739V396.461a12.641,12.641,0,0,0-.59-4.118,6.149,6.149,0,0,0-1.927-2.8,8.515,8.515,0,0,0-3.571-1.6,30.509,30.509,0,0,0-11.039,0,8.505,8.505,0,0,0-3.569,1.6,6.148,6.148,0,0,0-1.929,2.8,12.641,12.641,0,0,0-.591,4.118Z" transform="translate(-15.711 0)" fill="#1961ac"/>
    <path id="Path_82" data-name="Path 82" d="M605.1,413.808H599.67V396.461a19.351,19.351,0,0,1,.963-6.418,10.518,10.518,0,0,1,3.023-4.533,13.146,13.146,0,0,1,5.321-2.673,35.975,35.975,0,0,1,15.77,0,13.146,13.146,0,0,1,5.321,2.673,10.5,10.5,0,0,1,3.023,4.533,19.315,19.315,0,0,1,.963,6.418v17.347h-5.738V396.461a12.639,12.639,0,0,0-.591-4.118,6.151,6.151,0,0,0-1.927-2.8,8.515,8.515,0,0,0-3.571-1.6,30.505,30.505,0,0,0-11.038,0,8.5,8.5,0,0,0-3.57,1.6,6.149,6.149,0,0,0-1.929,2.8,12.662,12.662,0,0,0-.591,4.118Z" transform="translate(-137.645 0)" fill="#1961ac"/>
    <path id="Path_83" data-name="Path 83" d="M487.3,413.808V387.525H475.207v-5.563h29.744v5.563h-12.09v26.283Z" transform="translate(-100.572 0)" fill="#1961ac"/>
    <path id="Path_84" data-name="Path 84" d="M553.619,413.808a15.041,15.041,0,0,1-6.155-1.248A15.155,15.155,0,0,1,539.317,404a17.554,17.554,0,0,1-1.162-6.441,16.988,16.988,0,0,1,1.162-6.394,14.177,14.177,0,0,1,3.241-4.928,14.591,14.591,0,0,1,4.906-3.155,16.6,16.6,0,0,1,6.155-1.117h7.755a17.025,17.025,0,0,1,6.329,1.14,14.1,14.1,0,0,1,8.125,8.126,16.991,16.991,0,0,1,1.139,6.328,17.581,17.581,0,0,1-1.16,6.441,15.476,15.476,0,0,1-3.241,5.147,15.234,15.234,0,0,1-11.192,4.664Zm7.755-5.564a10.117,10.117,0,0,0,4.029-.787,9.517,9.517,0,0,0,5.257-5.476,11.464,11.464,0,0,0,.745-4.161,11.28,11.28,0,0,0-.745-4.138,9.36,9.36,0,0,0-5.257-5.389,10.4,10.4,0,0,0-4.029-.767h-7.755a10.116,10.116,0,0,0-3.964.767,9.4,9.4,0,0,0-3.132,2.125,9.768,9.768,0,0,0-2.058,3.242,11.194,11.194,0,0,0-.745,4.161,11.42,11.42,0,0,0,.745,4.161,9.877,9.877,0,0,0,2.058,3.307,9.458,9.458,0,0,0,3.132,2.169,9.844,9.844,0,0,0,3.964.787Z" transform="translate(-119.323 0)" fill="#1961ac"/>
    <g id="Group_147" data-name="Group 147" transform="translate(408.363 381.962)">
      <path id="Path_85" data-name="Path 85" d="M528.809,393.116V381.962h-5.564v5.633Z" transform="translate(-523.244 -381.962)" fill="#e4032e"/>
      <path id="Path_86" data-name="Path 86" d="M523.244,401.117v18.4h5.564v-12.8Z" transform="translate(-523.244 -387.668)" fill="#1961ac"/>
    </g>
    <g id="Group_148" data-name="Group 148" transform="translate(137.565 381.962)">
      <path id="Path_87" data-name="Path 87" d="M168.228,399.528a7.155,7.155,0,0,0-3.592-2.541,6.4,6.4,0,0,0,3.088-2.169,7.19,7.19,0,0,0,1.293-4.62,8.39,8.39,0,0,0-.723-3.571,6.788,6.788,0,0,0-2.08-2.585,9.567,9.567,0,0,0-3.242-1.554,15.6,15.6,0,0,0-4.207-.527H137.7v5.52h19.974a8.673,8.673,0,0,1,4.249.852,3.257,3.257,0,0,1,1.489,3.089,3.536,3.536,0,0,1-1.14,2.979,5.728,5.728,0,0,1-3.5.876h-1.922s5.773,5.623,5.908,5.739a3.759,3.759,0,0,1,1.228,3.021,3.485,3.485,0,0,1-1.665,3.154,7.918,7.918,0,0,1-4.294,1.051H137.565v5.564H159.38a12.216,12.216,0,0,0,4.228-.7,9.513,9.513,0,0,0,3.24-1.948,8.43,8.43,0,0,0,2.06-3.023,10.423,10.423,0,0,0,.722-3.964A7.444,7.444,0,0,0,168.228,399.528Z" transform="translate(-137.565 -381.962)" fill="#1961ac"/>
      <path id="Path_88" data-name="Path 88" d="M148.3,405.615h8.558l-4.651-4.687H148.3Z" transform="translate(-140.761 -387.611)" fill="#e4032e"/>
    </g>
    <path id="Path_89" data-name="Path 89" d="M396.533,408.322v-.007c-.288.006-.567.018-.867.018a25.541,25.541,0,0,1-5.519-.5,8.5,8.5,0,0,1-3.571-1.6,6.152,6.152,0,0,1-1.927-2.8,12.644,12.644,0,0,1-.591-4.118V381.962h-5.739V399.31a19.316,19.316,0,0,0,.963,6.418,10.508,10.508,0,0,0,3.023,4.533,13.153,13.153,0,0,0,5.322,2.673,30.728,30.728,0,0,0,7.863.874c.259,0,.511,0,.763-.009v.009H405.3v-5.486Z" transform="translate(-71.713 0)" fill="#1961ac"/>
  </g>
</svg>
