<svg id="Warstwa_1" data-name="Warstwa 1" xmlns="http://www.w3.org/2000/svg" viewBox="0 0 301.35 68.02" preserveAspectRatio="xMidYMid meet"><defs><style>.cls-1{fill:#164193;}.cls-2{fill:#ffec00;}.cls-3{fill:#1d1d1b;}</style></defs><rect class="cls-1" width="102.04" height="68.02"/><polygon class="cls-2" points="48.84 14.83 51 13.25 53.15 14.83 52.33 12.29 54.52 10.71 51.82 10.71 51 8.14 50.18 10.71 47.48 10.71 49.66 12.29 48.84 14.83"/><polygon class="cls-2" points="37.7 17.82 39.86 16.24 42.01 17.82 41.19 15.28 43.38 13.7 40.68 13.7 39.85 11.13 39.03 13.71 36.34 13.7 38.52 15.28 37.7 17.82"/><polygon class="cls-2" points="31.7 19.3 30.88 21.88 28.18 21.88 30.36 23.45 29.55 25.99 31.7 24.42 33.86 25.99 33.04 23.45 35.23 21.88 32.53 21.88 31.7 19.3"/><polygon class="cls-2" points="28.71 35.54 30.86 37.12 30.04 34.58 32.23 33.01 29.54 33.01 28.71 30.43 27.88 33.01 25.19 33.01 27.37 34.58 26.56 37.12 28.71 35.54"/><polygon class="cls-2" points="32.53 44.16 31.7 41.59 30.88 44.16 28.18 44.16 30.36 45.74 29.55 48.28 31.7 46.7 33.85 48.28 33.03 45.74 35.22 44.16 32.53 44.16"/><polygon class="cls-2" points="40.69 52.33 39.87 49.76 39.04 52.34 36.34 52.33 38.53 53.91 37.72 56.45 39.87 54.87 42.03 56.45 41.21 53.91 43.4 52.33 40.69 52.33"/><polygon class="cls-2" points="51.82 55.29 51 52.71 50.18 55.29 47.48 55.29 49.66 56.86 48.84 59.4 51 57.83 53.16 59.4 52.33 56.86 54.53 55.29 51.82 55.29"/><polygon class="cls-2" points="62.95 52.33 62.12 49.76 61.29 52.34 58.61 52.33 60.79 53.91 59.97 56.45 62.12 54.87 64.28 56.45 63.46 53.91 65.66 52.33 62.95 52.33"/><polygon class="cls-2" points="71.12 44.16 70.29 41.59 69.47 44.16 66.78 44.16 68.97 45.74 68.14 48.28 70.29 46.7 72.45 48.28 71.63 45.74 73.82 44.16 71.12 44.16"/><polygon class="cls-2" points="76.77 32.97 74.08 32.97 73.26 30.39 72.43 32.97 69.74 32.97 71.92 34.55 71.1 37.09 73.26 35.51 75.41 37.09 74.59 34.55 76.77 32.97"/><polygon class="cls-2" points="68.14 25.95 70.3 24.39 72.45 25.95 71.63 23.41 73.82 21.85 71.13 21.85 70.3 19.26 69.47 21.85 66.78 21.85 68.97 23.41 68.14 25.95"/><polygon class="cls-2" points="62.16 11.13 61.34 13.71 58.64 13.7 60.83 15.28 60.01 17.82 62.17 16.24 64.31 17.82 63.5 15.28 65.68 13.7 62.98 13.7 62.16 11.13"/><path class="cls-3" d="M124.79,44.28V33.05h6.86V34.4h-5.28v3.34h4.69v1.31h-4.69v3.89h5.68v1.34Z"/><path class="cls-3" d="M140.26,43.86c-.34.09-.8.18-1.36.28a12.74,12.74,0,0,1-2,.14,4.16,4.16,0,0,1-1.64-.28,2.72,2.72,0,0,1-1.07-.8,3.33,3.33,0,0,1-.58-1.23,6.3,6.3,0,0,1-.18-1.56V35.68H135v4.41a3.85,3.85,0,0,0,.48,2.2,1.91,1.91,0,0,0,1.64.66h.5l.49,0,.41,0,.27-.06V35.68h1.5Z"/><path class="cls-3" d="M145.89,35.68l.44,0,.5.07.44.08.3.07-.26,1.31a5.93,5.93,0,0,0-.59-.15,5.16,5.16,0,0,0-1.06-.09,4,4,0,0,0-.84.09l-.54.12v7.08h-1.5V36.21a9.29,9.29,0,0,1,1.32-.36A8.85,8.85,0,0,1,145.89,35.68Z"/><path class="cls-3" d="M156.38,39.87a5.23,5.23,0,0,1-.29,1.82,4.09,4.09,0,0,1-.82,1.39A3.6,3.6,0,0,1,154,44a4.11,4.11,0,0,1-3.18,0,3.6,3.6,0,0,1-1.25-.9,4.09,4.09,0,0,1-.82-1.39,5.79,5.79,0,0,1,0-3.62,4,4,0,0,1,.82-1.4,3.6,3.6,0,0,1,1.25-.9,4.11,4.11,0,0,1,3.18,0,3.6,3.6,0,0,1,1.25.9,4,4,0,0,1,.82,1.4A5.19,5.19,0,0,1,156.38,39.87Zm-1.57,0a3.61,3.61,0,0,0-.64-2.26,2.24,2.24,0,0,0-3.48,0,3.61,3.61,0,0,0-.64,2.26,3.57,3.57,0,0,0,.64,2.26,2.22,2.22,0,0,0,3.48,0A3.57,3.57,0,0,0,154.81,39.87Z"/><path class="cls-3" d="M165.84,40.09a5.85,5.85,0,0,1-.25,1.76,3.84,3.84,0,0,1-.73,1.39,3.41,3.41,0,0,1-1.19.91,3.78,3.78,0,0,1-1.62.33,4.27,4.27,0,0,1-2.12-.57v3.37h-1.51V36.12c.36-.09.81-.18,1.34-.29a10.22,10.22,0,0,1,1.86-.15,4.66,4.66,0,0,1,1.75.31,3.62,3.62,0,0,1,1.32.87,3.83,3.83,0,0,1,.85,1.39A5.3,5.3,0,0,1,165.84,40.09Zm-1.57,0a3.21,3.21,0,0,0-.73-2.27,2.5,2.5,0,0,0-1.94-.8,9.35,9.35,0,0,0-1.06,0,3.11,3.11,0,0,0-.61.12V42.5a3.13,3.13,0,0,0,.79.44,3,3,0,0,0,1.14.21,2.39,2.39,0,0,0,1.11-.24,1.89,1.89,0,0,0,.75-.65,2.45,2.45,0,0,0,.42-1A5.08,5.08,0,0,0,164.27,40.09Z"/><path class="cls-3" d="M167.41,39.89a5.27,5.27,0,0,1,.33-2,4.1,4.1,0,0,1,.86-1.39,3.41,3.41,0,0,1,1.23-.82,3.71,3.71,0,0,1,1.42-.28,3.25,3.25,0,0,1,2.61,1.06,4.86,4.86,0,0,1,.91,3.23V40a2.46,2.46,0,0,1,0,.28H169a3.07,3.07,0,0,0,.76,2,2.75,2.75,0,0,0,2.07.68,5.15,5.15,0,0,0,1.34-.14,5.78,5.78,0,0,0,.82-.26l.21,1.26a4.6,4.6,0,0,1-1,.31,6.74,6.74,0,0,1-1.56.16,4.93,4.93,0,0,1-1.9-.33,3.44,3.44,0,0,1-1.32-.92,3.6,3.6,0,0,1-.77-1.38A5.8,5.8,0,0,1,167.41,39.89Zm5.79-.83a2.52,2.52,0,0,0-.51-1.67,1.76,1.76,0,0,0-1.45-.66,2.08,2.08,0,0,0-.92.2,2.19,2.19,0,0,0-.67.53,2.53,2.53,0,0,0-.43.75,3.62,3.62,0,0,0-.2.85Z"/><path class="cls-3" d="M179.58,35.48a4.24,4.24,0,0,1,1.53.24,2.36,2.36,0,0,1,1.55,1.68,4.9,4.9,0,0,1,.16,1.31V44l-.54.09c-.23,0-.5.08-.79.11l-.94.09c-.34,0-.68,0-1,0a5.41,5.41,0,0,1-1.31-.15,3.08,3.08,0,0,1-1-.46,2.22,2.22,0,0,1-.68-.83,3,3,0,0,1-.24-1.25,2.37,2.37,0,0,1,.28-1.2,2.22,2.22,0,0,1,.77-.81,3.4,3.4,0,0,1,1.14-.45,6,6,0,0,1,1.36-.15l.47,0,.46.07.38.07.23.05v-.42a3.72,3.72,0,0,0-.08-.74,2,2,0,0,0-.29-.65,1.65,1.65,0,0,0-.58-.45,2.31,2.31,0,0,0-1-.17,7.09,7.09,0,0,0-1.3.11,5.29,5.29,0,0,0-.84.21l-.17-1.24a4.19,4.19,0,0,1,1-.25A8.37,8.37,0,0,1,179.58,35.48Zm.13,7.55c.36,0,.67,0,.95,0a5.32,5.32,0,0,0,.69-.09V40.41a2.28,2.28,0,0,0-.53-.14,5.52,5.52,0,0,0-.88-.06,6.09,6.09,0,0,0-.72,0,2.2,2.2,0,0,0-.7.21,1.46,1.46,0,0,0-.53.42,1.1,1.1,0,0,0-.21.7,1.23,1.23,0,0,0,.52,1.13A2.73,2.73,0,0,0,179.71,43Z"/><path class="cls-3" d="M185.23,36.1c.35-.09.81-.18,1.38-.28a12.78,12.78,0,0,1,2-.14,4.29,4.29,0,0,1,1.67.28,2.69,2.69,0,0,1,1.06.8,3.12,3.12,0,0,1,.56,1.22,7.58,7.58,0,0,1,.16,1.57v4.73h-1.51V39.87a7.17,7.17,0,0,0-.1-1.32,2.21,2.21,0,0,0-.35-.89,1.35,1.35,0,0,0-.65-.5,2.89,2.89,0,0,0-1-.15h-.51l-.49,0-.42.06-.27.05v7.11h-1.51Z"/><path class="cls-3" d="M203.7,39.58c.18.22.39.5.66.85s.54.74.82,1.17.56.87.83,1.34a13.53,13.53,0,0,1,.71,1.34H205c-.22-.41-.45-.83-.71-1.25s-.51-.82-.77-1.2-.51-.75-.76-1.08l-.69-.88a3.1,3.1,0,0,1-.43,0h-1.86v4.39h-1.57V33.22a8.89,8.89,0,0,1,1.48-.22q.83-.06,1.5-.06a6.18,6.18,0,0,1,3.61.89,3.42,3.42,0,0,1,.64,4.57A3.44,3.44,0,0,1,203.7,39.58Zm-2.38-5.26c-.67,0-1.18,0-1.54,0V38.6h1.12a10.68,10.68,0,0,0,1.46-.09,3.27,3.27,0,0,0,1.09-.3,1.65,1.65,0,0,0,.69-.64,2.19,2.19,0,0,0,.24-1.1,2.09,2.09,0,0,0-.24-1,1.74,1.74,0,0,0-.66-.66,2.53,2.53,0,0,0-1-.34A6.44,6.44,0,0,0,201.32,34.32Z"/><path class="cls-3" d="M207.75,39.89a5.27,5.27,0,0,1,.33-2,4,4,0,0,1,.86-1.39,3.41,3.41,0,0,1,1.23-.82,3.71,3.71,0,0,1,1.42-.28,3.25,3.25,0,0,1,2.61,1.06,4.86,4.86,0,0,1,.91,3.23V40a2.46,2.46,0,0,1,0,.28h-5.77a3.07,3.07,0,0,0,.77,2,2.75,2.75,0,0,0,2.07.68,5.33,5.33,0,0,0,2.15-.4l.21,1.26a4.27,4.27,0,0,1-1,.31,6.74,6.74,0,0,1-1.56.16,5,5,0,0,1-1.91-.33,3.6,3.6,0,0,1-1.32-.92,3.88,3.88,0,0,1-.77-1.38A6.13,6.13,0,0,1,207.75,39.89Zm5.79-.83a2.52,2.52,0,0,0-.51-1.67,1.77,1.77,0,0,0-1.45-.66,2.08,2.08,0,0,0-.92.2,2.19,2.19,0,0,0-.67.53,2.33,2.33,0,0,0-.43.75,3.62,3.62,0,0,0-.2.85Z"/><path class="cls-3" d="M222.48,43.44a3.57,3.57,0,0,1-.75.33,3.76,3.76,0,0,1-1.31.2,4.21,4.21,0,0,1-1.43-.24,3.13,3.13,0,0,1-1.18-.75,3.7,3.7,0,0,1-.79-1.27,5,5,0,0,1-.29-1.82A5.08,5.08,0,0,1,217,38.2a3.87,3.87,0,0,1,.8-1.33,3.84,3.84,0,0,1,1.29-.88,4.47,4.47,0,0,1,1.72-.31,10,10,0,0,1,1.84.15c.52.11,1,.2,1.32.29v7.51a3.55,3.55,0,0,1-1,2.82,4.49,4.49,0,0,1-3,.88,8.91,8.91,0,0,1-1.5-.13,8.61,8.61,0,0,1-1.22-.31l.27-1.31a6.62,6.62,0,0,0,1.11.31A6.84,6.84,0,0,0,220,46a2.9,2.9,0,0,0,1.94-.53,2.22,2.22,0,0,0,.59-1.7Zm0-6.25a3.91,3.91,0,0,0-.61-.13,8.82,8.82,0,0,0-1-.05,2.31,2.31,0,0,0-1.88.79,3.24,3.24,0,0,0-.65,2.11,3.78,3.78,0,0,0,.18,1.24A2.48,2.48,0,0,0,219,42a1.93,1.93,0,0,0,.73.51,2.42,2.42,0,0,0,.85.16,3.52,3.52,0,0,0,1.1-.17,2.9,2.9,0,0,0,.79-.4Z"/><path class="cls-3" d="M227.22,34.33a1,1,0,0,1-.68-.26,1,1,0,0,1-.29-.72.92.92,0,0,1,.29-.72.94.94,0,0,1,.68-.27,1,1,0,0,1,.69.27.92.92,0,0,1,.29.72,1,1,0,0,1-.29.72A1,1,0,0,1,227.22,34.33Zm.77,10h-1.51V35.86H228Z"/><path class="cls-3" d="M237.93,39.87a5.23,5.23,0,0,1-.29,1.82,4.09,4.09,0,0,1-.82,1.39,3.6,3.6,0,0,1-1.25.9,4.11,4.11,0,0,1-3.18,0,3.6,3.6,0,0,1-1.25-.9,4.09,4.09,0,0,1-.82-1.39,5.79,5.79,0,0,1,0-3.62,4,4,0,0,1,.82-1.4,3.6,3.6,0,0,1,1.25-.9,4.11,4.11,0,0,1,3.18,0,3.6,3.6,0,0,1,1.25.9,4,4,0,0,1,.82,1.4A5.19,5.19,0,0,1,237.93,39.87Zm-1.57,0a3.61,3.61,0,0,0-.64-2.26,2.1,2.1,0,0,0-1.74-.83,2.07,2.07,0,0,0-1.74.83,3.61,3.61,0,0,0-.64,2.26,3.57,3.57,0,0,0,.64,2.26A2.05,2.05,0,0,0,234,43a2.08,2.08,0,0,0,1.74-.84A3.57,3.57,0,0,0,236.36,39.87Z"/><path class="cls-3" d="M240,36.1c.35-.09.81-.18,1.38-.28a12.78,12.78,0,0,1,2-.14A4.29,4.29,0,0,1,245,36a2.69,2.69,0,0,1,1.06.8,3.12,3.12,0,0,1,.56,1.22,7.58,7.58,0,0,1,.16,1.57v4.73h-1.51V39.87a7.17,7.17,0,0,0-.1-1.32,2.21,2.21,0,0,0-.35-.89,1.4,1.4,0,0,0-.65-.5,3,3,0,0,0-1-.15h-.5l-.49,0-.42.06-.27.05v7.11H240Z"/><path class="cls-3" d="M251.91,35.48a4.24,4.24,0,0,1,1.53.24A2.36,2.36,0,0,1,255,37.4a4.9,4.9,0,0,1,.16,1.31V44l-.54.09c-.23,0-.49.08-.79.11l-.94.09c-.34,0-.68,0-1,0a5.41,5.41,0,0,1-1.31-.15,2.94,2.94,0,0,1-1-.46,2.16,2.16,0,0,1-.69-.83,3,3,0,0,1-.24-1.25,2.37,2.37,0,0,1,.29-1.2,2.12,2.12,0,0,1,.76-.81,3.4,3.4,0,0,1,1.14-.45,6,6,0,0,1,1.36-.15l.47,0,.46.07.38.07.23.05v-.42a3.72,3.72,0,0,0-.08-.74,1.82,1.82,0,0,0-.29-.65,1.56,1.56,0,0,0-.58-.45,2.31,2.31,0,0,0-.95-.17,7.09,7.09,0,0,0-1.3.11,5.6,5.6,0,0,0-.84.21l-.17-1.24a4.19,4.19,0,0,1,1-.25A8.37,8.37,0,0,1,251.91,35.48ZM252,43c.36,0,.67,0,1,0a5.09,5.09,0,0,0,.69-.09V40.41a2.28,2.28,0,0,0-.53-.14,5.52,5.52,0,0,0-.88-.06,6.09,6.09,0,0,0-.72,0,2.2,2.2,0,0,0-.7.21,1.54,1.54,0,0,0-.53.42,1.1,1.1,0,0,0-.21.7,1.23,1.23,0,0,0,.52,1.13A2.73,2.73,0,0,0,252,43Z"/><path class="cls-3" d="M260.09,44.28a2.85,2.85,0,0,1-2-.6,2.35,2.35,0,0,1-.59-1.76V31.81l1.51-.26V41.67a2.65,2.65,0,0,0,.06.62.84.84,0,0,0,.6.61,5.76,5.76,0,0,0,.6.12Z"/><path class="cls-3" d="M134,58.41a6.59,6.59,0,0,1-.45,2.54,4.66,4.66,0,0,1-1.28,1.78,5.37,5.37,0,0,1-2,1.05,8.46,8.46,0,0,1-2.53.35c-.45,0-1,0-1.49-.06a9.06,9.06,0,0,1-1.49-.21V53a9,9,0,0,1,1.49-.22c.54,0,1-.06,1.49-.06a8.79,8.79,0,0,1,2.53.35,5.39,5.39,0,0,1,2,1.06,4.66,4.66,0,0,1,1.28,1.78A6.53,6.53,0,0,1,134,58.41Zm-6.11,4.34a4.44,4.44,0,0,0,3.34-1.14,5.2,5.2,0,0,0,0-6.4,4.44,4.44,0,0,0-3.34-1.14l-1,0-.51,0v8.59l.51,0Z"/><path class="cls-3" d="M135.7,59.74a5.32,5.32,0,0,1,.32-2,4.1,4.1,0,0,1,.86-1.39,3.59,3.59,0,0,1,1.23-.82,3.72,3.72,0,0,1,1.43-.28,3.25,3.25,0,0,1,2.6,1.06,4.88,4.88,0,0,1,.91,3.24v.25a2.53,2.53,0,0,1,0,.28h-5.77a3.07,3.07,0,0,0,.76,2,2.75,2.75,0,0,0,2.07.68,5.67,5.67,0,0,0,1.34-.13,7.12,7.12,0,0,0,.82-.27l.21,1.26a4.6,4.6,0,0,1-1,.31,6.74,6.74,0,0,1-1.56.16,5,5,0,0,1-1.9-.33,3.44,3.44,0,0,1-1.32-.92A3.6,3.6,0,0,1,136,61.5,5.8,5.8,0,0,1,135.7,59.74Zm5.78-.82a2.53,2.53,0,0,0-.51-1.68,1.75,1.75,0,0,0-1.45-.66,2.08,2.08,0,0,0-.92.2,2.49,2.49,0,0,0-.67.53,2.53,2.53,0,0,0-.43.75,3.59,3.59,0,0,0-.2.86Z"/><path class="cls-3" d="M151.72,55.71a43.67,43.67,0,0,1-1.48,4.53c-.57,1.45-1.12,2.75-1.65,3.89h-1.36c-.53-1.14-1.08-2.44-1.64-3.89a41.43,41.43,0,0,1-1.49-4.53h1.62c.13.53.29,1.09.47,1.69s.36,1.19.56,1.78.4,1.16.61,1.71.4,1,.58,1.48c.19-.44.38-.93.59-1.48s.4-1.12.6-1.71.39-1.18.57-1.78.33-1.16.46-1.69Z"/><path class="cls-3" d="M152.5,59.74a5.32,5.32,0,0,1,.32-2,4.1,4.1,0,0,1,.86-1.39,3.41,3.41,0,0,1,1.23-.82,3.72,3.72,0,0,1,1.43-.28,3.25,3.25,0,0,1,2.6,1.06,4.88,4.88,0,0,1,.91,3.24v.25a2.46,2.46,0,0,1,0,.28h-5.76a3.07,3.07,0,0,0,.76,2,2.75,2.75,0,0,0,2.07.68,5.67,5.67,0,0,0,1.34-.13,7.12,7.12,0,0,0,.82-.27l.21,1.26a4.6,4.6,0,0,1-1,.31,6.74,6.74,0,0,1-1.56.16,5,5,0,0,1-1.9-.33,3.44,3.44,0,0,1-1.32-.92,3.6,3.6,0,0,1-.77-1.38A5.8,5.8,0,0,1,152.5,59.74Zm5.78-.82a2.53,2.53,0,0,0-.51-1.68,1.76,1.76,0,0,0-1.45-.66,2.08,2.08,0,0,0-.92.2,2.35,2.35,0,0,0-.67.53,2.53,2.53,0,0,0-.43.75,3.59,3.59,0,0,0-.2.86Z"/><path class="cls-3" d="M164.47,64.13a2.88,2.88,0,0,1-2-.6,2.35,2.35,0,0,1-.58-1.76V51.66l1.5-.26V61.52a2.59,2.59,0,0,0,.07.62.82.82,0,0,0,.21.39,1,1,0,0,0,.39.22,4.86,4.86,0,0,0,.6.12Z"/><path class="cls-3" d="M173.72,59.72a5.47,5.47,0,0,1-.29,1.82,4.26,4.26,0,0,1-.82,1.39,3.55,3.55,0,0,1-1.26.9,4.09,4.09,0,0,1-3.17,0,3.55,3.55,0,0,1-1.26-.9,4.26,4.26,0,0,1-.82-1.39,5.79,5.79,0,0,1,0-3.62,4.21,4.21,0,0,1,.82-1.4,3.55,3.55,0,0,1,1.26-.9,4.09,4.09,0,0,1,3.17,0,3.55,3.55,0,0,1,1.26.9,4.21,4.21,0,0,1,.82,1.4A5.44,5.44,0,0,1,173.72,59.72Zm-1.58,0a3.67,3.67,0,0,0-.63-2.26,2.25,2.25,0,0,0-3.49,0,3.68,3.68,0,0,0-.64,2.26A3.64,3.64,0,0,0,168,62a2.23,2.23,0,0,0,3.49,0A3.63,3.63,0,0,0,172.14,59.72Z"/><path class="cls-3" d="M183.18,59.94a6.18,6.18,0,0,1-.25,1.76,4,4,0,0,1-.74,1.39A3.24,3.24,0,0,1,181,64a3.77,3.77,0,0,1-1.61.33,3.88,3.88,0,0,1-1.29-.2,4,4,0,0,1-.83-.37v3.37h-1.51V56c.35-.09.8-.18,1.34-.29a10.1,10.1,0,0,1,1.85-.15,4.62,4.62,0,0,1,1.75.31,3.66,3.66,0,0,1,1.33.87,4,4,0,0,1,.85,1.39A5.3,5.3,0,0,1,183.18,59.94Zm-1.57,0a3.26,3.26,0,0,0-.73-2.27,2.53,2.53,0,0,0-1.95-.8,9.48,9.48,0,0,0-1.06.05,3.15,3.15,0,0,0-.6.12v5.31a3.18,3.18,0,0,0,1.92.65,2.39,2.39,0,0,0,1.11-.24,2,2,0,0,0,.76-.65,2.77,2.77,0,0,0,.42-1A5.66,5.66,0,0,0,181.61,59.94Z"/><path class="cls-3" d="M185.22,56c.35-.09.8-.18,1.37-.28a12.55,12.55,0,0,1,2-.14,3.62,3.62,0,0,1,1.36.22,2.39,2.39,0,0,1,.92.64l.36-.23a3.39,3.39,0,0,1,.6-.28,6.15,6.15,0,0,1,.79-.25,4,4,0,0,1,.94-.1,3.81,3.81,0,0,1,1.59.28,2.3,2.3,0,0,1,1,.8,3.18,3.18,0,0,1,.47,1.24,9.29,9.29,0,0,1,.12,1.55v4.73h-1.5V59.72a9.15,9.15,0,0,0-.08-1.27,2.66,2.66,0,0,0-.27-.9,1.31,1.31,0,0,0-.55-.52,2,2,0,0,0-.9-.17,3.46,3.46,0,0,0-1.26.2,2.9,2.9,0,0,0-.67.36,5.1,5.1,0,0,1,.19.93,7,7,0,0,1,.07,1v4.73h-1.51V59.72a7.82,7.82,0,0,0-.08-1.27,2.65,2.65,0,0,0-.28-.9,1.31,1.31,0,0,0-.55-.52,1.94,1.94,0,0,0-.89-.17h-.48l-.5,0L187,57l-.25.05v7.11h-1.51Z"/><path class="cls-3" d="M198.62,59.74a5.32,5.32,0,0,1,.32-2,4.1,4.1,0,0,1,.86-1.39,3.59,3.59,0,0,1,1.23-.82,3.72,3.72,0,0,1,1.43-.28,3.25,3.25,0,0,1,2.6,1.06A4.88,4.88,0,0,1,206,59.6v.25a2.53,2.53,0,0,1,0,.28h-5.77a3.07,3.07,0,0,0,.76,2,2.75,2.75,0,0,0,2.07.68,5.67,5.67,0,0,0,1.34-.13,7.12,7.12,0,0,0,.82-.27l.21,1.26a4.6,4.6,0,0,1-1,.31,6.68,6.68,0,0,1-1.56.16,5,5,0,0,1-1.9-.33,3.44,3.44,0,0,1-1.32-.92,3.6,3.6,0,0,1-.77-1.38A5.8,5.8,0,0,1,198.62,59.74Zm5.78-.82a2.53,2.53,0,0,0-.51-1.68,1.75,1.75,0,0,0-1.45-.66,2.08,2.08,0,0,0-.92.2,2.49,2.49,0,0,0-.67.53,2.77,2.77,0,0,0-.43.75,3.59,3.59,0,0,0-.2.86Z"/><path class="cls-3" d="M208.06,56c.35-.09.81-.18,1.38-.28a12.74,12.74,0,0,1,2-.14,4.25,4.25,0,0,1,1.67.28,2.55,2.55,0,0,1,1.06.8,2.86,2.86,0,0,1,.56,1.22,7,7,0,0,1,.16,1.57v4.73h-1.5V59.72a7.08,7.08,0,0,0-.11-1.32,2.08,2.08,0,0,0-.35-.89,1.32,1.32,0,0,0-.64-.5,3,3,0,0,0-1-.15h-.5l-.49,0-.42.06-.27.05v7.11h-1.51Z"/><path class="cls-3" d="M218.69,55.51h3.19v1.27h-3.19v3.88a5.06,5.06,0,0,0,.09,1.05,1.71,1.71,0,0,0,.3.65,1.15,1.15,0,0,0,.48.33,2.32,2.32,0,0,0,.68.1,3,3,0,0,0,1.1-.16l.57-.22.29,1.25a4.63,4.63,0,0,1-.79.28,4.3,4.3,0,0,1-1.3.18,4,4,0,0,1-1.41-.22,2,2,0,0,1-.9-.66,2.55,2.55,0,0,1-.48-1.08,7.16,7.16,0,0,1-.14-1.48V53.16l1.51-.26Z"/><path class="cls-3" d="M227.47,64.13V52.9h6.77v1.35H229v3.39h4.62V59H229v5.17Z"/><path class="cls-3" d="M242.29,63.71c-.35.09-.8.18-1.37.28a12.64,12.64,0,0,1-2,.14,4.14,4.14,0,0,1-1.63-.28,2.65,2.65,0,0,1-1.07-.8,3.35,3.35,0,0,1-.59-1.23,6.84,6.84,0,0,1-.17-1.56V55.53H237v4.41a3.76,3.76,0,0,0,.49,2.2,1.89,1.89,0,0,0,1.63.66h.51l.48,0,.42,0,.26-.06V55.53h1.51Z"/><path class="cls-3" d="M244.8,56c.35-.09.81-.18,1.38-.28a12.74,12.74,0,0,1,2-.14,4.25,4.25,0,0,1,1.67.28,2.55,2.55,0,0,1,1.06.8,2.86,2.86,0,0,1,.56,1.22,7,7,0,0,1,.16,1.57v4.73h-1.5V59.72A7.08,7.08,0,0,0,250,58.4a2.08,2.08,0,0,0-.35-.89A1.32,1.32,0,0,0,249,57a3,3,0,0,0-1-.15h-.5l-.49,0-.42.06-.27.05v7.11H244.8Z"/><path class="cls-3" d="M259.46,51.62l1.51-.25V63.69c-.35.1-.79.2-1.33.3a11.37,11.37,0,0,1-1.86.14,4.62,4.62,0,0,1-1.75-.31A3.66,3.66,0,0,1,254.7,63a3.83,3.83,0,0,1-.85-1.39,5.26,5.26,0,0,1-.3-1.84,5.94,5.94,0,0,1,.25-1.78,3.94,3.94,0,0,1,.74-1.39,3.35,3.35,0,0,1,1.19-.91,4.09,4.09,0,0,1,3.73.25Zm0,5.67a3.14,3.14,0,0,0-.79-.43,3,3,0,0,0-1.14-.21,2.45,2.45,0,0,0-1.1.23,2.08,2.08,0,0,0-.76.65,2.91,2.91,0,0,0-.42,1,5.22,5.22,0,0,0-.13,1.21,3.24,3.24,0,0,0,.73,2.28,2.48,2.48,0,0,0,1.94.8,9.55,9.55,0,0,0,1,0,3.91,3.91,0,0,0,.64-.13Z"/><path class="cls-3" d="M124.93,21.61V4.6h10.92V7.22H128v4.2h7V14h-7v5h8.42v2.63Z"/><path class="cls-3" d="M149.13,21c-.57.14-1.32.3-2.23.45a17.74,17.74,0,0,1-3,.23,6.55,6.55,0,0,1-2.59-.44A4.12,4.12,0,0,1,139.62,20a4.84,4.84,0,0,1-.9-1.88,10,10,0,0,1-.27-2.4V8.5h3v6.73a5.43,5.43,0,0,0,.6,2.94,2.37,2.37,0,0,0,2.1.89c.36,0,.74,0,1.15,0a7.15,7.15,0,0,0,.89-.12V8.5h3Z"/><path class="cls-3" d="M160.08,11.45a10.46,10.46,0,0,0-1-.26,7.46,7.46,0,0,0-1.51-.14,6.51,6.51,0,0,0-1,.1c-.37.07-.63.13-.78.17V21.61h-3V9.39a15.71,15.71,0,0,1,2.15-.61,13.94,13.94,0,0,1,2.86-.28,6,6,0,0,1,.69,0c.26,0,.52.06.79.1l.76.14.59.16Z"/><path class="cls-3" d="M174.12,14.86a8.38,8.38,0,0,1-.44,2.77,6.2,6.2,0,0,1-1.25,2.14,5.51,5.51,0,0,1-2,1.37,6.29,6.29,0,0,1-2.52.49,6.13,6.13,0,0,1-2.5-.49,5.48,5.48,0,0,1-1.94-1.37,6.24,6.24,0,0,1-1.27-2.14,8.13,8.13,0,0,1-.45-2.77,8,8,0,0,1,.45-2.76A6.15,6.15,0,0,1,163.53,10a5.81,5.81,0,0,1,1.95-1.36A6.27,6.27,0,0,1,168,8.13a6.35,6.35,0,0,1,2.49.48,5.62,5.62,0,0,1,2,1.36,6.45,6.45,0,0,1,1.27,2.13A8,8,0,0,1,174.12,14.86Zm-3,0a5,5,0,0,0-.83-3A2.66,2.66,0,0,0,168,10.71a2.69,2.69,0,0,0-2.3,1.12,5,5,0,0,0-.82,3,5.18,5.18,0,0,0,.82,3.07,2.7,2.7,0,0,0,2.3,1.13,2.67,2.67,0,0,0,2.29-1.13A5.11,5.11,0,0,0,171.08,14.86Z"/><path class="cls-3" d="M188.6,15.2a8.86,8.86,0,0,1-.38,2.7A6,6,0,0,1,187.13,20a4.86,4.86,0,0,1-1.78,1.38,5.69,5.69,0,0,1-2.42.49,5.92,5.92,0,0,1-1.67-.22,6.65,6.65,0,0,1-1.25-.49v5h-3v-17c.61-.16,1.35-.32,2.24-.47a17.73,17.73,0,0,1,2.79-.22A7.51,7.51,0,0,1,184.8,9a5.62,5.62,0,0,1,2,1.34,5.87,5.87,0,0,1,1.3,2.11A8.07,8.07,0,0,1,188.6,15.2Zm-3,.05a4.78,4.78,0,0,0-.9-3.09,3.48,3.48,0,0,0-2.88-1.11c-.28,0-.57,0-.87,0a5.47,5.47,0,0,0-.9.16v7.34a4.3,4.3,0,0,0,1.05.5,3.93,3.93,0,0,0,1.38.24,2.66,2.66,0,0,0,2.37-1.11A5.18,5.18,0,0,0,185.56,15.25Z"/><path class="cls-3" d="M190.81,15a8,8,0,0,1,.51-3,6.33,6.33,0,0,1,1.33-2.13,5.55,5.55,0,0,1,1.92-1.27,5.87,5.87,0,0,1,2.21-.43,5.33,5.33,0,0,1,4.14,1.64,7.19,7.19,0,0,1,1.48,4.91c0,.17,0,.35,0,.55s0,.39,0,.56h-8.47A3.39,3.39,0,0,0,195,18.21a4.2,4.2,0,0,0,2.82.85,9.25,9.25,0,0,0,2-.2,7.62,7.62,0,0,0,1.41-.42l.4,2.43a4.08,4.08,0,0,1-.68.26c-.29.09-.61.17-1,.25s-.77.13-1.19.18a11.2,11.2,0,0,1-1.3.07,7.82,7.82,0,0,1-2.95-.5,5.42,5.42,0,0,1-2.06-1.4,5.64,5.64,0,0,1-1.2-2.11A8.38,8.38,0,0,1,190.81,15Zm8.62-1.33a4,4,0,0,0-.17-1.16,2.76,2.76,0,0,0-.51-1,2.42,2.42,0,0,0-.81-.64,2.6,2.6,0,0,0-1.14-.23,2.68,2.68,0,0,0-1.2.25,2.92,2.92,0,0,0-.87.68,3,3,0,0,0-.55,1,5.36,5.36,0,0,0-.27,1.1Z"/><path class="cls-3" d="M209.67,8.21a7.1,7.1,0,0,1,2.47.37,3.77,3.77,0,0,1,1.61,1,3.81,3.81,0,0,1,.86,1.6,8,8,0,0,1,.26,2.08v7.78q-.69.15-2.07.36a21.21,21.21,0,0,1-3.13.2,9.18,9.18,0,0,1-2.11-.22,4.3,4.3,0,0,1-1.64-.71,3.34,3.34,0,0,1-1-1.27,4.36,4.36,0,0,1-.38-1.94,3.72,3.72,0,0,1,.43-1.87,3.45,3.45,0,0,1,1.16-1.24,5,5,0,0,1,1.71-.69,9.48,9.48,0,0,1,2-.21,9.38,9.38,0,0,1,1,.07,11.32,11.32,0,0,1,1.16.2v-.49a3.93,3.93,0,0,0-.12-1,2.22,2.22,0,0,0-.43-.82,2,2,0,0,0-.81-.55,3.56,3.56,0,0,0-1.27-.2,11,11,0,0,0-1.89.15,8.71,8.71,0,0,0-1.4.34l-.37-2.4a11.75,11.75,0,0,1,1.65-.4A13,13,0,0,1,209.67,8.21Zm.24,11.07a10.91,10.91,0,0,0,2.09-.15V15.84a6,6,0,0,0-.71-.15,6.58,6.58,0,0,0-1-.07,6.82,6.82,0,0,0-1,.07,3.22,3.22,0,0,0-.91.27,1.77,1.77,0,0,0-.65.56,1.53,1.53,0,0,0-.24.89,1.57,1.57,0,0,0,.66,1.46A3.41,3.41,0,0,0,209.91,19.28Z"/><path class="cls-3" d="M218.36,9.19a20.87,20.87,0,0,1,2.23-.47,20.18,20.18,0,0,1,3-.22,6.92,6.92,0,0,1,2.63.43,4.22,4.22,0,0,1,1.68,1.2,4.71,4.71,0,0,1,.89,1.87,10.56,10.56,0,0,1,.25,2.39v7.22h-3V14.86A9.89,9.89,0,0,0,226,13.1a3.14,3.14,0,0,0-.44-1.17,1.79,1.79,0,0,0-.84-.67,3.48,3.48,0,0,0-1.29-.21,9.88,9.88,0,0,0-1.18.08l-.9.12V21.61h-3Z"/><path class="cls-3" d="M244.84,21.63a7.9,7.9,0,0,1-3-.5,5.41,5.41,0,0,1-2.08-1.41,5.87,5.87,0,0,1-1.21-2.14,8.8,8.8,0,0,1-.39-2.7V4.25h3.11V14.59a6.74,6.74,0,0,0,.26,2,3.42,3.42,0,0,0,.74,1.33,2.79,2.79,0,0,0,1.13.76,4,4,0,0,0,1.46.25,4,4,0,0,0,1.47-.25,2.83,2.83,0,0,0,1.14-.76,3.42,3.42,0,0,0,.74-1.33,6.74,6.74,0,0,0,.26-2V4.25h3.11V14.88a8.51,8.51,0,0,1-.4,2.7A5.91,5.91,0,0,1,250,19.72a5.41,5.41,0,0,1-2.1,1.41A8.1,8.1,0,0,1,244.84,21.63Z"/><path class="cls-3" d="M255.25,9.19a21.43,21.43,0,0,1,2.23-.47,20.32,20.32,0,0,1,3-.22,7,7,0,0,1,2.63.43,4.22,4.22,0,0,1,1.68,1.2,4.7,4.7,0,0,1,.88,1.87,10.55,10.55,0,0,1,.26,2.39v7.22h-3V14.86a9.8,9.8,0,0,0-.14-1.76,3,3,0,0,0-.44-1.17,1.72,1.72,0,0,0-.83-.67,3.52,3.52,0,0,0-1.29-.21,9.75,9.75,0,0,0-1.18.08l-.91.12V21.61h-3Z"/><path class="cls-3" d="M272.78,5a1.7,1.7,0,0,1-.54,1.32,1.94,1.94,0,0,1-2.58,0A1.7,1.7,0,0,1,269.12,5a1.71,1.71,0,0,1,.54-1.35,1.91,1.91,0,0,1,2.58,0A1.71,1.71,0,0,1,272.78,5Zm-.32,16.59h-3V8.77h3Z"/><path class="cls-3" d="M287.7,14.86a8.13,8.13,0,0,1-.44,2.77A6,6,0,0,1,286,19.77a5.51,5.51,0,0,1-1.95,1.37,6.26,6.26,0,0,1-2.52.49,6.13,6.13,0,0,1-2.5-.49,5.48,5.48,0,0,1-1.94-1.37,6.4,6.4,0,0,1-1.27-2.14,8.13,8.13,0,0,1-.45-2.77,8,8,0,0,1,.45-2.76A6.31,6.31,0,0,1,277.11,10a5.81,5.81,0,0,1,1.95-1.36,6.67,6.67,0,0,1,5,0A5.62,5.62,0,0,1,286,10a6.29,6.29,0,0,1,1.27,2.13A8,8,0,0,1,287.7,14.86Zm-3,0a5,5,0,0,0-.82-3,2.69,2.69,0,0,0-2.3-1.12,2.66,2.66,0,0,0-2.29,1.12,5,5,0,0,0-.83,3,5.11,5.11,0,0,0,.83,3.07,2.67,2.67,0,0,0,2.29,1.13,2.7,2.7,0,0,0,2.3-1.13A5.11,5.11,0,0,0,284.66,14.86Z"/><path class="cls-3" d="M290.62,9.19a21.69,21.69,0,0,1,2.24-.47,20.08,20.08,0,0,1,3-.22,7,7,0,0,1,2.63.43,4.22,4.22,0,0,1,1.68,1.2,4.57,4.57,0,0,1,.88,1.87,10,10,0,0,1,.26,2.39v7.22h-3V14.86a9.89,9.89,0,0,0-.13-1.76,3,3,0,0,0-.45-1.17,1.72,1.72,0,0,0-.83-.67,3.48,3.48,0,0,0-1.29-.21,9.75,9.75,0,0,0-1.18.08l-.91.12V21.61h-3Z"/></svg>