<svg xmlns="http://www.w3.org/2000/svg" viewBox="0 0 19 21.322" preserveAspectRatio="xMidYMid meet">
  <g id="map001_-_E02C" data-name="map001 - E02C" transform="translate(-298.917 -57.78)" style="isolation: isolate">
    <g id="Group_660" data-name="Group 660" transform="translate(299.417 58.28)" style="isolation: isolate">
      <path id="Path_1551" data-name="Path 1551" d="M317.417,64.811V75.218L311.653,78.2l-6.471-2.911-5.765,2.986V67.9l5.765-3,3.082,1.388V62.911a2.362,2.362,0,1,1,.307,0v3.529l3.082,1.387ZM299.724,77.782l5.305-2.745V65.31l-5.305,2.774Zm8.54-8.25V66.621l-2.929-1.311v9.728L311.5,77.8V68.084l-2.928-1.311v2.759Zm.153-6.922a2.014,2.014,0,1,0-2.055-2.022A2.028,2.028,0,0,0,308.418,62.61Zm8.694,2.7-5.305,2.774V77.8l5.305-2.759Z" transform="translate(-299.417 -58.28)" fill="#ff2d30" stroke="#ff2d30" stroke-width="1"/>
    </g>
    <g id="Group_661" data-name="Group 661" transform="translate(299.417 58.28)" style="isolation: isolate">
      <path id="Path_1552" data-name="Path 1552" d="M317.417,64.811V75.218L311.653,78.2l-6.471-2.911-5.765,2.986V67.9l5.765-3,3.082,1.388V62.911a2.362,2.362,0,1,1,.307,0v3.529l3.082,1.387ZM299.724,77.782l5.305-2.745V65.31l-5.305,2.774Zm8.54-8.25V66.621l-2.929-1.311v9.728L311.5,77.8V68.084l-2.928-1.311v2.759Zm.153-6.922a2.014,2.014,0,1,0-2.055-2.022A2.028,2.028,0,0,0,308.418,62.61Zm8.694,2.7-5.305,2.774V77.8l5.305-2.759Z" transform="translate(-299.417 -58.28)" fill="#ff2d30" stroke="#ff2d30" stroke-width="1"/>
    </g>
  </g>
</svg>
