<svg xmlns="http://www.w3.org/2000/svg" viewBox="0 0 90.625 69.73" preserveAspectRatio="xMidYMid meet">
  <g id="Group_20" data-name="Group 20" transform="translate(1 -114.6)">
    <path id="Path_1509" data-name="Path 1509" d="M34.293,129.69a44.918,44.918,0,0,0-11.772,4.365,24.55,24.55,0,0,0-12.458,18.339h0c-.124-.011-.248-.022-.372-.035a6.422,6.422,0,0,0-.473-2.573,5.283,5.283,0,0,0-3.916-3.42,3.565,3.565,0,0,0-3.357,1.495,3.4,3.4,0,0,0-.645,3.706c.65,1.339,2.319,2.285,5.091,2.881q-.114.171-.252.344a6.329,6.329,0,0,1-4.819,2.55A1.354,1.354,0,0,0,0,158.689v.006a1.351,1.351,0,0,0,1.294,1.347q.139.006.29.007c1.585,0,4.129-.585,6.572-3.649a7.355,7.355,0,0,0,.942-1.521q.365.041.7.072h0c-.044.7-.068,1.408-.068,2.13a26.58,26.58,0,0,0,3.805,14.234,26.076,26.076,0,0,0,9.911,9.145l1.753,9.108a3.161,3.161,0,0,0,3.1,2.572H34.4a3.161,3.161,0,0,0,3.1-2.572l.891-4.71a54.36,54.36,0,0,0,5.706.3A56.665,56.665,0,0,0,52,184.6l.94,4.965a3.162,3.162,0,0,0,3.1,2.571h6.091a3.162,3.162,0,0,0,3.1-2.572l1.824-9.657a28.121,28.121,0,0,0,11.546-10.641,1.41,1.41,0,0,1,.784-.646l5.849-1.873a4.856,4.856,0,0,0,3.385-4.639v-6.019a4.856,4.856,0,0,0-3.385-4.639l-3.63-1.163a1.519,1.519,0,0,1-.98-.993,23.406,23.406,0,0,0-3.432-6.788,24.911,24.911,0,0,0-2.292-2.7h0a31.994,31.994,0,0,0,.789-7.306c-.054-3.286-.711-5.214-2.008-5.893-.7-.366-2.824-1.479-14.329,3.788a4.187,4.187,0,0,0-.762.454c-.776-.208-1.568-.4-2.366-.574a37.732,37.732,0,0,0-8.4-1.5M3.621,150.441c-.133-.275.182-.759.381-1.023a1.029,1.029,0,0,1,.829-.5.973.973,0,0,1,.13.009,2.811,2.811,0,0,1,1.864,1.826,3.916,3.916,0,0,1,.27,1.216C5.31,151.6,3.922,151.062,3.621,150.441Zm46.855-14.617q-1.628-.231-3.259-.36m-11.655.388q-1.776.26-3.536.642" transform="translate(0 -8.806)" fill="none" stroke="#ff2d30" stroke-linejoin="round" stroke-miterlimit="10" stroke-width="2"/>
    <path id="Path_1510" data-name="Path 1510" d="M211.355,122.737a7.1,7.1,0,0,1-1.172,3.921,52.4,52.4,0,0,0-11.655.388,7.137,7.137,0,1,1,12.826-4.308Z" transform="translate(-162.966)" fill="none" stroke="#ff2d30" stroke-linejoin="round" stroke-miterlimit="10" stroke-width="2"/>
  </g>
</svg>
