<svg xmlns="http://www.w3.org/2000/svg" viewBox="0 0 55.009 70.1" preserveAspectRatio="xMidYMid meet">
  <g id="Group_583" data-name="Group 583" transform="translate(-1027.083 -355.973)">
    <path id="Path_1488" data-name="Path 1488" d="M1080.418,370.775l-25.586-13.633a1.272,1.272,0,0,0-1.212.007l-24.878,13.633a1.276,1.276,0,0,0-.66,1.117v17.808a36.872,36.872,0,0,0,22.1,33.747l3.453,1.505a1.275,1.275,0,0,0,1.014,0l3.89-1.681a36.8,36.8,0,0,0,22.552-33.928V371.9a1.274,1.274,0,0,0-.674-1.125Z" fill="none" stroke="#ff2d30" stroke-linecap="round" stroke-linejoin="round" stroke-width="2"/>
    <path id="Path_1489" data-name="Path 1489" d="M1060,429.222" transform="translate(-17.097 -38.686)" fill="none" stroke="#ff2d30" stroke-linecap="round" stroke-linejoin="round" stroke-width="2"/>
    <path id="Path_1489-2" data-name="Path 1489" d="M1084.545,414.1l-.022.018-17.24,14.03-6.94-8.128" transform="translate(-17.279 -30.585)" fill="none" stroke="#ff2d30" stroke-linecap="round" stroke-miterlimit="10" stroke-width="2"/>
  </g>
</svg>
