<svg xmlns="http://www.w3.org/2000/svg" viewBox="0 0 87.009 88.887" preserveAspectRatio="xMidYMid meet">
  <g id="OM3Ik4" transform="translate(-1153.144 -776.24)">
    <g id="Group_141" data-name="Group 141" transform="translate(1154.151 777.241)">
      <path id="Path_72" data-name="Path 72" d="M1239.139,819.6c-.528-23.888-20.043-42.953-43.535-42.342-24.115.627-42.568,21.377-41.4,45.264,1.24,25.324,21.633,42.245,43.683,41.585C1221.345,863.4,1239.694,843.425,1239.139,819.6Z" transform="translate(-1154.151 -777.241)" fill="none" stroke="#ff2d30" stroke-miterlimit="10" stroke-width="2"/>
      <path id="Path_73" data-name="Path 73" d="M1327.2,919.248h21.882c1.559,9.852-8.009,26.418-17.452,30.244-.14-.211-.3-.424-.431-.652-3.5-6.062-7-12.125-10.555-18.285A13.457,13.457,0,0,0,1327.2,919.248Z" transform="translate(-1272.527 -876.095)" fill="none" stroke="#ff2d30" stroke-miterlimit="10" stroke-width="2"/>
      <path id="Path_74" data-name="Path 74" d="M1165.4,919.313h21.879c.2,4.92,2.527,8.53,6.613,11.3l-10.945,18.967C1171.867,943.792,1164.994,930.606,1165.4,919.313Z" transform="translate(-1156.94 -876.143)" fill="none" stroke="#ff2d30" stroke-miterlimit="10" stroke-width="2"/>
      <path id="Path_75" data-name="Path 75" d="M1254.916,811.8a13.421,13.421,0,0,0-13.12.01l-10.971-19c10.023-6.211,24.326-6.519,35.065-.028Z" transform="translate(-1205.818 -780.065)" fill="none" stroke="#ff2d30" stroke-miterlimit="10" stroke-width="2"/>
      <path id="Path_76" data-name="Path 76" d="M1281.539,895.82a8.254,8.254,0,0,1-7.714,8.63,8.42,8.42,0,1,1-1.281-16.79C1277.432,887.317,1281.165,890.7,1281.539,895.82Z" transform="translate(-1230.651 -852.96)" fill="none" stroke="#ff2d30" stroke-miterlimit="10" stroke-width="2"/>
    </g>
  </g>
</svg>
