<svg version="1.1" id="znak" xmlns="http://www.w3.org/2000/svg" xmlns:xlink="http://www.w3.org/1999/xlink" x="0px" y="0px"
	 viewBox="0 0 340 99.5" style="enable-background:new 0 0 340 99.5;" xml:space="preserve" preserveAspectRatio="xMidYMid meet">
<style type="text/css">
	.st0{fill:#FFFFFF;}
	.st1{fill:#B61F2B;}
	.st2{fill:#878787;}
</style>
<g>
	<rect class="st0" width="149.1" height="49.8"/>
	<rect y="49.8" class="st1" width="149.1" height="49.7"/>
	<path class="st2" d="M0.5,0.5h148.2V99H0.5V0.5z M0,99.5h149.1V0H0V99.5z"/>
	<g>
		<g>
			<path d="M311.6,40c0.4,1.2,1,2.3,1.8,3.2c0.8,0.9,1.8,1.6,3,2.1c1.2,0.5,2.6,0.8,4.3,0.8c1,0,2.1-0.1,3.1-0.3
				c1-0.2,1.7-0.4,2.2-0.7l-0.6-3.7c-0.5,0.2-1.2,0.4-1.9,0.5c-0.7,0.1-1.5,0.2-2.2,0.2c-2,0-3.5-0.6-4.3-1.7
				c-0.9-1.1-1.3-2.6-1.3-4.5c0-2,0.5-3.5,1.4-4.6c0.9-1.1,2.2-1.6,4-1.6c0.7,0,1.4,0.1,2.1,0.2c0.6,0.1,1.2,0.3,1.7,0.6l1-3.6
				c-1.6-0.7-3.3-1-5.1-1c-1.5,0-2.8,0.3-4,0.8c-1.2,0.5-2.2,1.2-3,2.1c-0.8,0.9-1.4,2-1.9,3.2c-0.4,1.2-0.7,2.6-0.7,4
				C311,37.4,311.2,38.8,311.6,40 M306.1,18.8c-0.5-0.5-1.2-0.7-1.9-0.7c-0.8,0-1.4,0.2-1.9,0.7c-0.5,0.5-0.8,1.2-0.8,2
				c0,0.8,0.3,1.5,0.8,2c0.5,0.5,1.2,0.7,1.9,0.7c0.7,0,1.4-0.2,1.9-0.7c0.5-0.5,0.8-1.1,0.8-2C306.9,20,306.7,19.3,306.1,18.8
				 M306.5,26.4H302v19.1h4.4V26.4z M298.4,42.3c-0.6-0.1-1.1-0.2-1.4-0.3c-0.4-0.1-0.7-0.3-0.9-0.6c-0.2-0.3-0.4-0.6-0.5-0.9
				c-0.1-0.4-0.1-0.8-0.1-1.4V17.1l-4.4,0.7v22c0,1,0.1,1.8,0.3,2.5c0.2,0.7,0.6,1.4,1.1,1.9c0.5,0.5,1.2,0.9,2.1,1.2
				c0.9,0.3,2,0.4,3.3,0.4L298.4,42.3z M286,31.9c-0.4-1.2-0.9-2.3-1.6-3.2c-0.7-0.9-1.6-1.6-2.7-2c-1.1-0.5-2.3-0.7-3.6-0.7
				c-0.9,0-1.7,0.1-2.5,0.3c-0.7,0.2-1.4,0.5-1.9,0.7v-9.9l-4.4,0.7V45c0.9,0.3,2,0.5,3.3,0.7c1.3,0.2,2.7,0.3,4.2,0.3
				c1.5,0,2.9-0.2,4.1-0.7c1.2-0.5,2.2-1.1,3.1-2c0.8-0.9,1.5-1.9,1.9-3.2c0.5-1.2,0.7-2.6,0.7-4.2C286.5,34.5,286.4,33.1,286,31.9
				 M280.6,40.5c-0.9,1.1-2.2,1.7-3.8,1.7c-0.7,0-1.3,0-1.8-0.1c-0.5-0.1-0.9-0.1-1.2-0.2v-11c0.4-0.3,0.9-0.5,1.6-0.7
				c0.6-0.2,1.3-0.3,2.1-0.3c1.6,0,2.8,0.5,3.5,1.6c0.7,1.1,1.1,2.6,1.1,4.5C282,37.9,281.5,39.4,280.6,40.5 M263.7,26.4h-4.4v15.5
				c-0.3,0.1-0.7,0.1-1.3,0.2c-0.6,0-1.2,0.1-1.7,0.1c-1.5,0-2.5-0.4-3.1-1.3c-0.6-0.9-0.9-2.3-0.9-4.4v-10h-4.4v10.7
				c0,1.3,0.1,2.5,0.4,3.6c0.3,1.1,0.7,2,1.3,2.8c0.6,0.8,1.5,1.4,2.5,1.8c1,0.4,2.3,0.7,3.9,0.7c1.6,0,3.1-0.1,4.5-0.3
				c1.4-0.2,2.5-0.5,3.3-0.7V26.4z M242.7,31.8c-0.5-1.2-1.1-2.3-1.9-3.1c-0.8-0.9-1.9-1.5-3.1-2c-1.2-0.5-2.6-0.7-4.1-0.7
				c-1.5,0-2.9,0.1-4.2,0.3c-1.3,0.2-2.4,0.5-3.3,0.7v25.3h4.4v-7.4c0.5,0.3,1.1,0.5,1.9,0.7c0.8,0.2,1.6,0.3,2.5,0.3
				c1.3,0,2.5-0.2,3.6-0.7c1.1-0.5,1.9-1.2,2.7-2.1c0.7-0.9,1.3-1.9,1.6-3.1c0.4-1.2,0.6-2.6,0.6-4
				C243.4,34.5,243.2,33.1,242.7,31.8 M237.7,40.5c-0.7,1.1-1.9,1.6-3.5,1.6c-0.7,0-1.4-0.1-2.1-0.3c-0.6-0.2-1.2-0.5-1.6-0.7V30.1
				c0.4-0.1,0.9-0.2,1.3-0.2c0.4,0,0.9-0.1,1.3-0.1c2,0,3.4,0.5,4.3,1.6c0.9,1.1,1.3,2.6,1.3,4.6C238.8,37.9,238.5,39.4,237.7,40.5
				 M208.8,34.1c0.1-0.6,0.2-1.1,0.4-1.6c0.2-0.5,0.5-1,0.8-1.4c0.4-0.4,0.8-0.8,1.3-1c0.5-0.3,1.1-0.4,1.8-0.4
				c0.7,0,1.2,0.1,1.7,0.3c0.5,0.2,0.9,0.5,1.2,1c0.3,0.4,0.6,0.9,0.8,1.4c0.2,0.5,0.3,1.1,0.3,1.7H208.8z M204.8,40
				c0.4,1.2,1,2.3,1.8,3.1c0.8,0.9,1.8,1.6,3.1,2.1c1.2,0.5,2.7,0.8,4.4,0.8c0.7,0,1.3,0,1.9-0.1c0.6-0.1,1.2-0.2,1.8-0.3
				c0.5-0.1,1-0.2,1.5-0.4c0.4-0.1,0.8-0.3,1-0.4l-0.6-3.6c-0.5,0.2-1.2,0.4-2.1,0.6c-0.9,0.2-1.9,0.3-2.9,0.3
				c-1.8,0-3.2-0.4-4.2-1.3c-1-0.8-1.5-2-1.6-3.6h12.6c0-0.2,0-0.5,0.1-0.8c0-0.3,0-0.6,0-0.8c0-3.2-0.7-5.7-2.2-7.3
				c-1.5-1.6-3.5-2.5-6.2-2.5c-1.1,0-2.2,0.2-3.3,0.6c-1.1,0.4-2,1.1-2.9,1.9c-0.8,0.8-1.5,1.9-2,3.2c-0.5,1.3-0.8,2.7-0.8,4.4
				C204.2,37.5,204.4,38.8,204.8,40 M191.8,24.1c0.8,0.1,1.4,0.4,2,0.7c0.6,0.3,1,0.7,1.3,1.3c0.3,0.5,0.4,1.2,0.4,2
				c0,0.8-0.1,1.5-0.4,2.1c-0.3,0.5-0.7,1-1.3,1.3c-0.6,0.3-1.3,0.5-2.1,0.7c-0.9,0.1-1.8,0.2-3,0.2h-2V24c0.8-0.1,1.7-0.1,2.7-0.1
				C190.3,23.9,191.1,24,191.8,24.1 M185.6,20.1c-1.3,0.1-2.5,0.2-3.6,0.5v25h4.6V36h2.2h0.7c0.2,0,0.5,0,0.9,0c0.5,0.6,1,1.2,1.5,2
				c0.5,0.7,1.1,1.5,1.6,2.4c0.5,0.8,1.1,1.7,1.6,2.6c0.5,0.9,1,1.8,1.5,2.7h5.2c-0.4-0.9-0.9-1.9-1.5-2.9c-0.6-1-1.1-2-1.8-2.9
				c-0.6-0.9-1.2-1.8-1.8-2.6c-0.6-0.8-1.1-1.5-1.6-2.1c3.4-1.2,5.1-3.6,5.1-7c0-2.8-1-4.8-2.9-6.2c-1.9-1.3-4.7-2-8.4-2
				C188,19.9,186.9,20,185.6,20.1"/>
			<path d="M340,53.4l-4.4,0.7v9.2c-0.5-0.3-1.1-0.5-1.8-0.7c-0.7-0.2-1.5-0.3-2.5-0.3c-1.4,0-2.6,0.2-3.6,0.7c-1,0.5-1.9,1.2-2.7,2
				c-0.7,0.9-1.3,1.9-1.7,3.2c-0.4,1.2-0.6,2.6-0.6,4.1c0,1.5,0.2,2.9,0.7,4.2c0.5,1.2,1.1,2.3,1.9,3.1c0.8,0.9,1.9,1.5,3.1,2
				c1.2,0.5,2.6,0.7,4.1,0.7c1.5,0,2.9-0.1,4.2-0.3c1.3-0.2,2.4-0.5,3.3-0.7V53.4z M328.5,67.7c0.7-1.1,1.9-1.6,3.5-1.6
				c0.7,0,1.4,0.1,2.1,0.3c0.6,0.2,1.2,0.5,1.6,0.7v11c-0.3,0.1-0.7,0.1-1.2,0.2c-0.5,0.1-1.1,0.1-1.8,0.1c-1.6,0-2.9-0.6-3.8-1.7
				c-0.9-1.1-1.4-2.6-1.4-4.6C327.3,70.3,327.7,68.8,328.5,67.7 M302.5,81.8h4.4V66.4c0.3,0,0.7-0.1,1.4-0.2
				c0.6-0.1,1.2-0.1,1.8-0.1c0.8,0,1.4,0.1,1.9,0.3c0.5,0.2,0.9,0.5,1.2,1c0.3,0.5,0.5,1,0.7,1.8c0.1,0.7,0.2,1.6,0.2,2.6v10.1h4.4
				V71c0-1.3-0.1-2.5-0.4-3.6c-0.3-1.1-0.7-2-1.3-2.8c-0.6-0.8-1.5-1.4-2.5-1.8c-1-0.4-2.4-0.6-3.9-0.6c-1.7,0-3.2,0.1-4.5,0.3
				c-1.4,0.2-2.5,0.5-3.3,0.7V81.8z M285.8,62.5c-1.1,0.2-1.9,0.4-2.5,0.6l0.5,3.6c0.5-0.2,1.2-0.4,2.1-0.5c0.9-0.1,1.8-0.2,2.8-0.2
				c0.8,0,1.4,0.1,1.9,0.3c0.5,0.2,0.9,0.5,1.2,0.8c0.3,0.4,0.5,0.8,0.6,1.2c0.1,0.5,0.2,0.9,0.2,1.5v0.7c-0.6-0.1-1.2-0.2-1.7-0.3
				c-0.5-0.1-1-0.1-1.5-0.1c-1,0-2.1,0.1-3,0.3c-1,0.2-1.8,0.5-2.5,1c-0.7,0.5-1.3,1.1-1.7,1.8c-0.4,0.8-0.6,1.7-0.6,2.8
				c0,1.1,0.2,2.1,0.6,2.9c0.4,0.8,0.9,1.4,1.6,1.9c0.7,0.5,1.5,0.8,2.4,1.1c1,0.2,2,0.3,3.1,0.3c1.7,0,3.3-0.1,4.7-0.3
				c1.4-0.2,2.4-0.4,3.1-0.5V69.8c0-1.1-0.1-2.2-0.4-3.1c-0.3-0.9-0.7-1.7-1.3-2.4c-0.6-0.7-1.4-1.2-2.4-1.5c-1-0.4-2.2-0.5-3.7-0.5
				C288.1,62.2,286.9,62.3,285.8,62.5 M287,78.1c-0.7-0.4-1-1.1-1-2.2c0-0.5,0.1-1,0.4-1.3c0.2-0.4,0.6-0.6,1-0.8
				c0.4-0.2,0.9-0.3,1.4-0.4c0.5-0.1,1-0.1,1.5-0.1c0.6,0,1.1,0,1.5,0.1c0.5,0.1,0.8,0.1,1.1,0.2v4.9c-0.7,0.1-1.7,0.2-3.1,0.2
				C288.5,78.7,287.6,78.5,287,78.1 M279.3,78.5c-0.6-0.1-1.1-0.2-1.4-0.3c-0.4-0.1-0.7-0.3-0.9-0.6c-0.2-0.3-0.4-0.6-0.5-0.9
				c-0.1-0.4-0.1-0.8-0.1-1.4V53.4l-4.4,0.7v22c0,1,0.1,1.8,0.3,2.5c0.2,0.7,0.6,1.4,1.1,1.9c0.5,0.5,1.2,0.9,2.1,1.2
				c0.9,0.3,2,0.4,3.3,0.4L279.3,78.5z M261.7,76.8c-0.8,1.1-2,1.7-3.4,1.7c-1.5,0-2.6-0.6-3.4-1.7c-0.8-1.1-1.2-2.6-1.2-4.6
				c0-1.9,0.4-3.4,1.2-4.5c0.8-1.1,2-1.7,3.4-1.7c1.5,0,2.6,0.6,3.4,1.7c0.8,1.1,1.2,2.6,1.2,4.5C262.9,74.1,262.5,75.7,261.7,76.8
				 M266.8,68.1c-0.5-1.2-1.1-2.3-1.9-3.2c-0.8-0.9-1.8-1.6-2.9-2c-1.1-0.5-2.4-0.7-3.7-0.7c-1.3,0-2.6,0.2-3.7,0.7
				c-1.1,0.5-2.1,1.2-2.9,2c-0.8,0.9-1.5,1.9-1.9,3.2c-0.5,1.2-0.7,2.6-0.7,4.1c0,1.5,0.2,2.9,0.7,4.1c0.5,1.2,1.1,2.3,1.9,3.2
				c0.8,0.9,1.8,1.6,2.9,2c1.1,0.5,2.4,0.7,3.7,0.7c1.4,0,2.6-0.2,3.8-0.7c1.1-0.5,2.1-1.2,2.9-2c0.8-0.9,1.4-1.9,1.9-3.2
				c0.4-1.2,0.7-2.6,0.7-4.1C267.5,70.7,267.2,69.3,266.8,68.1 M238.2,60.4c0.8,0.1,1.4,0.4,2,0.7c0.6,0.3,1,0.8,1.3,1.3
				c0.3,0.6,0.5,1.3,0.5,2.1c0,1.7-0.6,2.9-1.8,3.5c-1.2,0.6-2.9,0.9-5.1,0.9h-2.2v-8.6c0.8-0.1,1.7-0.1,2.9-0.1
				C236.6,60.2,237.4,60.2,238.2,60.4 M231.8,56.3c-1.3,0.1-2.5,0.3-3.6,0.5v25h4.6v-8.9h2.3c1.9,0,3.5-0.2,4.9-0.5
				c1.4-0.3,2.7-0.8,3.7-1.5c1-0.7,1.8-1.5,2.3-2.6c0.5-1.1,0.8-2.3,0.8-3.8c0-2.9-1-5-2.9-6.3c-2-1.3-4.8-2-8.5-2
				C234.3,56.2,233.1,56.2,231.8,56.3 M206.8,55.5c-1.3,1.4-1.9,3.3-1.9,5.8v20.5h4.4V66.4h7v-3.7h-7v-1.3c0-0.6,0.1-1.2,0.2-1.7
				c0.1-0.5,0.3-1,0.6-1.3c0.3-0.4,0.7-0.7,1.2-0.9c0.5-0.2,1.1-0.3,1.8-0.3c0.6,0,1.2,0.1,1.8,0.2c0.6,0.1,1,0.3,1.4,0.5l0.8-3.7
				c-0.4-0.1-1-0.3-1.8-0.5c-0.8-0.2-1.7-0.3-2.7-0.3C210,53.4,208.1,54.1,206.8,55.5 M194.5,76.8c-0.8,1.1-2,1.7-3.4,1.7
				c-1.5,0-2.6-0.6-3.4-1.7c-0.8-1.1-1.2-2.6-1.2-4.6c0-1.9,0.4-3.4,1.2-4.5c0.8-1.1,2-1.7,3.4-1.7c1.5,0,2.6,0.6,3.4,1.7
				c0.8,1.1,1.2,2.6,1.2,4.5C195.7,74.1,195.3,75.7,194.5,76.8 M199.6,68.1c-0.5-1.2-1.1-2.3-1.9-3.2c-0.8-0.9-1.8-1.6-2.9-2
				c-1.1-0.5-2.4-0.7-3.7-0.7c-1.3,0-2.6,0.2-3.7,0.7c-1.1,0.5-2.1,1.2-2.9,2c-0.8,0.9-1.5,1.9-1.9,3.2c-0.5,1.2-0.7,2.6-0.7,4.1
				c0,1.5,0.2,2.9,0.7,4.1c0.5,1.2,1.1,2.3,1.9,3.2c0.8,0.9,1.8,1.6,2.9,2c1.1,0.5,2.4,0.7,3.7,0.7c1.4,0,2.6-0.2,3.8-0.7
				c1.1-0.5,2.1-1.2,2.9-2c0.8-0.9,1.4-1.9,1.9-3.2c0.4-1.2,0.7-2.6,0.7-4.1C200.2,70.7,200,69.3,199.6,68.1"/>
		</g>
	</g>
</g>
</svg>
