<svg version="1.1" id="znak" xmlns="http://www.w3.org/2000/svg" xmlns:xlink="http://www.w3.org/1999/xlink" x="0px" y="0px"
	 viewBox="0 0 430.5 99.5" style="enable-background:new 0 0 430.5 99.5;" xml:space="preserve" preserveAspectRatio="xMidYMid meet">
<style type="text/css">
	.st0{fill:#FFFFFF;}
	.st1{fill:#B61F2B;}
	.st2{fill:#878787;}
</style>
<g>
	<g>
		<path d="M189.4,24.9c-1,0-1.9,0-2.7,0.1v8.1h2c1.1,0,2.1-0.1,2.9-0.2c0.8-0.1,1.6-0.3,2.1-0.6c0.6-0.3,1-0.7,1.3-1.3
			c0.3-0.5,0.4-1.2,0.4-2c0-0.8-0.1-1.4-0.4-2c-0.3-0.5-0.7-1-1.3-1.3c-0.5-0.3-1.2-0.5-1.9-0.7C191.2,25,190.3,24.9,189.4,24.9
			 M189.1,21c3.6,0,6.4,0.7,8.3,2c1.9,1.3,2.9,3.4,2.9,6.1c0,3.4-1.7,5.7-5,6.9c0.5,0.6,1,1.2,1.6,2c0.6,0.8,1.2,1.7,1.8,2.6
			c0.6,0.9,1.2,1.9,1.7,2.9c0.6,1,1.1,1.9,1.5,2.9h-5.1c-0.5-0.9-1-1.7-1.5-2.6c-0.5-0.9-1.1-1.7-1.6-2.6c-0.5-0.8-1.1-1.6-1.6-2.4
			c-0.5-0.7-1-1.4-1.5-2c-0.3,0-0.6,0-0.9,0H189h-2.2v9.5h-4.6V21.6c1.1-0.2,2.3-0.4,3.6-0.5C187,21,188.1,21,189.1,21"/>
		<path d="M218.7,30.4c-0.5,0.5-1.1,1.2-1.9,2.1c-0.8,0.9-1.6,1.9-2.5,3.1c-0.9,1.1-1.8,2.3-2.7,3.5c-0.9,1.2-1.7,2.4-2.4,3.5h9.8
			v3.7h-15.1v-2.7c0.5-1,1.2-2,2-3.2c0.8-1.1,1.6-2.3,2.5-3.4c0.8-1.1,1.7-2.2,2.5-3.3c0.8-1,1.6-1.9,2.2-2.7h-8.7v-3.7h14.4V30.4z"
			/>
		<path d="M234,35c0-0.6-0.1-1.2-0.3-1.7c-0.2-0.5-0.4-1-0.7-1.4c-0.3-0.4-0.7-0.7-1.2-0.9c-0.5-0.2-1-0.3-1.7-0.3
			c-0.7,0-1.3,0.1-1.8,0.4c-0.5,0.3-0.9,0.6-1.3,1c-0.4,0.4-0.6,0.9-0.8,1.4c-0.2,0.5-0.3,1.1-0.4,1.6H234z M221.3,36.9
			c0-1.7,0.2-3.1,0.7-4.4c0.5-1.3,1.2-2.3,2-3.1c0.8-0.8,1.8-1.5,2.8-1.9c1.1-0.4,2.1-0.6,3.3-0.6c2.6,0,4.6,0.8,6.1,2.4
			c1.5,1.6,2.2,4,2.2,7.2c0,0.2,0,0.5,0,0.8c0,0.3,0,0.6-0.1,0.8h-12.5c0.1,1.5,0.7,2.7,1.6,3.5c1,0.8,2.3,1.3,4.1,1.3
			c1.1,0,2-0.1,2.9-0.3c0.9-0.2,1.6-0.4,2.1-0.6l0.6,3.6c-0.2,0.1-0.6,0.3-1,0.4c-0.4,0.1-0.9,0.3-1.4,0.4c-0.5,0.1-1.1,0.2-1.8,0.3
			c-0.6,0.1-1.3,0.1-1.9,0.1c-1.7,0-3.1-0.2-4.3-0.7c-1.2-0.5-2.2-1.2-3-2.1c-0.8-0.9-1.4-1.9-1.8-3.1
			C221.5,39.7,221.3,38.4,221.3,36.9"/>
		<path d="M242,36.9c0-1.4,0.2-2.7,0.7-3.9c0.4-1.2,1.1-2.3,1.9-3.2c0.8-0.9,1.8-1.6,3-2.1c1.2-0.5,2.5-0.8,3.9-0.8
			c1.8,0,3.5,0.3,5.1,1l-0.9,3.6c-0.5-0.2-1.1-0.4-1.7-0.5c-0.6-0.1-1.3-0.2-2-0.2c-1.7,0-3,0.5-3.9,1.6c-0.9,1.1-1.3,2.6-1.3,4.5
			c0,1.9,0.4,3.4,1.3,4.5c0.8,1.1,2.3,1.6,4.3,1.6c0.8,0,1.5-0.1,2.2-0.2c0.7-0.1,1.4-0.3,1.9-0.5l0.6,3.6c-0.5,0.2-1.2,0.5-2.2,0.6
			c-1,0.2-2,0.3-3,0.3c-1.6,0-3-0.2-4.2-0.7c-1.2-0.5-2.2-1.2-3-2.1c-0.8-0.9-1.4-1.9-1.8-3.2C242.2,39.6,242,38.3,242,36.9"/>
		<path d="M273.4,30.4c-0.5,0.5-1.1,1.2-1.9,2.1c-0.8,0.9-1.6,1.9-2.5,3.1c-0.9,1.1-1.8,2.3-2.7,3.5c-0.9,1.2-1.7,2.4-2.4,3.5h9.8
			v3.7h-15.1v-2.7c0.5-1,1.2-2,2-3.2c0.8-1.1,1.6-2.3,2.5-3.4c0.8-1.1,1.7-2.2,2.5-3.3c0.8-1,1.6-1.9,2.2-2.7H259v-3.7h14.4V30.4z"
			/>
		<path d="M290.2,36.9c0-2-0.4-3.5-1.3-4.6c-0.9-1.1-2.3-1.6-4.3-1.6c-0.4,0-0.8,0-1.3,0.1c-0.4,0-0.9,0.1-1.3,0.2v10.8
			c0.4,0.3,0.9,0.5,1.5,0.7c0.6,0.2,1.3,0.3,2,0.3c1.6,0,2.8-0.5,3.5-1.6C289.8,40.2,290.2,38.8,290.2,36.9 M294.7,36.9
			c0,1.4-0.2,2.8-0.6,4c-0.4,1.2-0.9,2.2-1.6,3.1c-0.7,0.9-1.6,1.5-2.6,2c-1.1,0.5-2.2,0.7-3.6,0.7c-0.9,0-1.7-0.1-2.5-0.3
			c-0.7-0.2-1.4-0.5-1.8-0.7V53h-4.4V28c0.9-0.2,2-0.5,3.3-0.7c1.3-0.2,2.7-0.3,4.1-0.3c1.5,0,2.8,0.2,4,0.7c1.2,0.5,2.2,1.1,3,2
			c0.8,0.9,1.5,1.9,1.9,3.1C294.5,34,294.7,35.3,294.7,36.9"/>
		<path d="M311.8,36.8c0-1.9-0.4-3.4-1.2-4.5c-0.8-1.1-1.9-1.6-3.4-1.6c-1.4,0-2.6,0.5-3.4,1.6c-0.8,1.1-1.2,2.6-1.2,4.5
			c0,1.9,0.4,3.4,1.2,4.5c0.8,1.1,1.9,1.7,3.4,1.7c1.5,0,2.6-0.6,3.4-1.7C311.4,40.2,311.8,38.7,311.8,36.8 M316.3,36.8
			c0,1.5-0.2,2.9-0.7,4.1c-0.4,1.2-1.1,2.3-1.8,3.2c-0.8,0.9-1.8,1.5-2.9,2c-1.1,0.5-2.4,0.7-3.7,0.7c-1.3,0-2.6-0.2-3.7-0.7
			c-1.1-0.5-2.1-1.2-2.9-2c-0.8-0.9-1.4-1.9-1.9-3.2c-0.5-1.2-0.7-2.6-0.7-4.1c0-1.5,0.2-2.9,0.7-4.1c0.4-1.2,1.1-2.3,1.9-3.1
			c0.8-0.9,1.8-1.5,2.9-2c1.1-0.5,2.3-0.7,3.6-0.7c1.3,0,2.6,0.2,3.7,0.7c1.1,0.5,2.1,1.1,2.9,2s1.4,1.9,1.9,3.1
			C316.1,34,316.3,35.3,316.3,36.8"/>
		<path d="M325.6,43.2c1.2,0,2-0.1,2.5-0.4c0.5-0.3,0.8-0.8,0.8-1.4c0-0.6-0.3-1.1-0.9-1.6c-0.6-0.4-1.5-0.9-2.8-1.3
			c-0.8-0.3-1.5-0.6-2.2-0.9c-0.7-0.3-1.2-0.7-1.7-1.1c-0.5-0.4-0.9-1-1.1-1.6c-0.3-0.6-0.4-1.4-0.4-2.3c0-1.7,0.6-3.1,1.9-4.1
			c1.3-1,3-1.5,5.2-1.5c1.1,0,2.2,0.1,3.2,0.3c1,0.2,1.8,0.4,2.3,0.6l-0.8,3.5c-0.5-0.2-1.1-0.4-1.8-0.6c-0.7-0.2-1.6-0.3-2.6-0.3
			c-0.9,0-1.6,0.2-2.2,0.5c-0.6,0.3-0.8,0.8-0.8,1.4c0,0.3,0.1,0.6,0.2,0.8c0.1,0.2,0.3,0.5,0.6,0.7c0.3,0.2,0.6,0.4,1.1,0.6
			c0.4,0.2,1,0.4,1.6,0.6c1,0.4,1.9,0.8,2.6,1.1c0.7,0.4,1.3,0.8,1.8,1.3c0.5,0.5,0.8,1,1,1.6c0.2,0.6,0.3,1.3,0.3,2.2
			c0,1.8-0.7,3.2-2,4.1c-1.3,0.9-3.3,1.4-5.7,1.4c-1.7,0-3-0.1-4-0.4c-1-0.3-1.7-0.5-2.1-0.7l0.8-3.7c0.7,0.3,1.4,0.5,2.3,0.8
			C323.4,43,324.4,43.2,325.6,43.2"/>
		<path d="M350,36.9c0-2-0.4-3.5-1.3-4.6c-0.9-1.1-2.3-1.6-4.3-1.6c-0.4,0-0.8,0-1.3,0.1c-0.4,0-0.9,0.1-1.3,0.2v10.8
			c0.4,0.3,0.9,0.5,1.5,0.7c0.6,0.2,1.3,0.3,2,0.3c1.6,0,2.8-0.5,3.5-1.6C349.6,40.2,350,38.8,350,36.9 M354.4,36.9
			c0,1.4-0.2,2.8-0.6,4c-0.4,1.2-0.9,2.2-1.6,3.1c-0.7,0.9-1.6,1.5-2.6,2c-1,0.5-2.2,0.7-3.6,0.7c-0.9,0-1.7-0.1-2.5-0.3
			c-0.7-0.2-1.4-0.5-1.8-0.7V53h-4.4V28c0.9-0.2,2-0.5,3.3-0.7c1.3-0.2,2.7-0.3,4.1-0.3c1.5,0,2.8,0.2,4,0.7c1.2,0.5,2.2,1.1,3,2
			c0.8,0.9,1.5,1.9,1.9,3.1C354.2,34,354.4,35.3,354.4,36.9"/>
		<path d="M371.6,36.8c0-1.9-0.4-3.4-1.2-4.5c-0.8-1.1-1.9-1.6-3.4-1.6c-1.4,0-2.6,0.5-3.4,1.6c-0.8,1.1-1.2,2.6-1.2,4.5
			c0,1.9,0.4,3.4,1.2,4.5c0.8,1.1,1.9,1.7,3.4,1.7c1.5,0,2.6-0.6,3.4-1.7C371.2,40.2,371.6,38.7,371.6,36.8 M376.1,36.8
			c0,1.5-0.2,2.9-0.7,4.1c-0.4,1.2-1.1,2.3-1.8,3.2c-0.8,0.9-1.8,1.5-2.9,2c-1.1,0.5-2.4,0.7-3.7,0.7c-1.4,0-2.6-0.2-3.7-0.7
			c-1.1-0.5-2.1-1.2-2.9-2c-0.8-0.9-1.4-1.9-1.9-3.2c-0.5-1.2-0.7-2.6-0.7-4.1c0-1.5,0.2-2.9,0.7-4.1c0.4-1.2,1.1-2.3,1.9-3.1
			c0.8-0.9,1.8-1.5,2.9-2c1.1-0.5,2.3-0.7,3.7-0.7c1.3,0,2.6,0.2,3.7,0.7c1.1,0.5,2.1,1.1,2.9,2c0.8,0.9,1.4,1.9,1.9,3.1
			C375.9,34,376.1,35.3,376.1,36.8"/>
		<path d="M387.2,46.7c-1.3,0-2.4-0.2-3.2-0.4c-0.9-0.3-1.5-0.6-2-1.1c-0.5-0.5-0.9-1.1-1.1-1.8c-0.2-0.7-0.3-1.6-0.3-2.5V22.2
			l4.4-0.7v18.4c0,0.5,0,1,0.1,1.3c0.1,0.4,0.2,0.7,0.5,0.9c0.2,0.3,0.5,0.4,0.9,0.6c0.4,0.1,0.9,0.2,1.4,0.3L387.2,46.7z"/>
		<path d="M395.8,46.3h-4.4V27.4h4.4V46.3z M396.2,21.8c0,0.8-0.3,1.5-0.8,2c-0.5,0.5-1.2,0.7-1.9,0.7c-0.7,0-1.4-0.2-1.9-0.7
			c-0.5-0.5-0.8-1.1-0.8-2c0-0.8,0.3-1.5,0.8-2c0.5-0.5,1.2-0.7,1.9-0.7c0.7,0,1.4,0.2,1.9,0.7C396,20.3,396.2,21,396.2,21.8"/>
		<path d="M401.1,22.2l4.4-0.7v5.9h6.7V31h-6.7v7.7c0,1.5,0.2,2.6,0.7,3.3c0.5,0.7,1.3,1,2.5,1c0.8,0,1.5-0.1,2.1-0.3
			c0.6-0.2,1.1-0.3,1.5-0.5l0.7,3.5c-0.5,0.2-1.2,0.4-2,0.7c-0.8,0.2-1.8,0.3-2.9,0.3c-1.4,0-2.5-0.2-3.4-0.5
			c-0.9-0.4-1.6-0.9-2.2-1.6c-0.5-0.7-0.9-1.5-1.1-2.5c-0.2-1-0.3-2.1-0.3-3.3V22.2z"/>
		<path d="M423.1,43.2c1.4,0,2.4-0.1,3.1-0.2v-4.8c-0.2-0.1-0.6-0.1-1.1-0.2c-0.5-0.1-1-0.1-1.5-0.1c-0.5,0-1,0-1.5,0.1
			c-0.5,0.1-0.9,0.2-1.3,0.4c-0.4,0.2-0.7,0.5-1,0.8c-0.2,0.3-0.4,0.8-0.4,1.3c0,1,0.3,1.8,1,2.2C421.1,43,422,43.2,423.1,43.2
			 M422.8,26.9c1.5,0,2.7,0.2,3.7,0.5c1,0.4,1.8,0.9,2.4,1.5c0.6,0.7,1,1.4,1.3,2.4c0.2,0.9,0.4,1.9,0.4,3.1v11.5
			c-0.7,0.1-1.7,0.3-3.1,0.5c-1.4,0.2-2.9,0.3-4.6,0.3c-1.1,0-2.2-0.1-3.1-0.3c-0.9-0.2-1.7-0.6-2.4-1.1c-0.7-0.5-1.2-1.1-1.6-1.9
			c-0.4-0.8-0.6-1.7-0.6-2.9c0-1.1,0.2-2,0.6-2.8c0.4-0.7,1-1.4,1.7-1.8c0.7-0.5,1.6-0.8,2.5-1c1-0.2,1.9-0.3,3-0.3
			c0.5,0,1,0,1.5,0.1c0.5,0.1,1.1,0.2,1.7,0.3v-0.7c0-0.5-0.1-1-0.2-1.4c-0.1-0.5-0.3-0.9-0.6-1.2c-0.3-0.4-0.7-0.6-1.2-0.8
			c-0.5-0.2-1.1-0.3-1.9-0.3c-1,0-1.9,0.1-2.8,0.2c-0.8,0.1-1.5,0.3-2.1,0.5l-0.5-3.5c0.6-0.2,1.4-0.4,2.4-0.6
			C420.4,27,421.6,26.9,422.8,26.9"/>
		<path d="M189.6,58.5c-1.2,0-2.1,0-2.9,0.1v8.5h2.2c2.2,0,3.9-0.3,5.1-0.9c1.2-0.6,1.8-1.8,1.8-3.5c0-0.8-0.2-1.5-0.5-2.1
			c-0.3-0.6-0.7-1-1.3-1.3c-0.6-0.3-1.2-0.5-2-0.7C191.3,58.5,190.5,58.5,189.6,58.5 M189.3,54.5c3.6,0,6.4,0.7,8.4,2
			c1.9,1.3,2.9,3.4,2.9,6.2c0,1.5-0.3,2.7-0.8,3.8c-0.5,1-1.3,1.9-2.3,2.6c-1,0.7-2.2,1.2-3.6,1.5c-1.4,0.3-3.1,0.5-4.9,0.5h-2.3
			v8.8h-4.6V55.1c1.1-0.2,2.2-0.4,3.5-0.5C187,54.6,188.2,54.5,189.3,54.5"/>
		<path d="M216.5,70.4c0-1.9-0.4-3.4-1.2-4.5c-0.8-1.1-1.9-1.6-3.4-1.6c-1.4,0-2.6,0.5-3.4,1.6c-0.8,1.1-1.2,2.6-1.2,4.5
			c0,1.9,0.4,3.4,1.2,4.5c0.8,1.1,1.9,1.7,3.4,1.7c1.4,0,2.6-0.6,3.4-1.7C216.1,73.8,216.5,72.3,216.5,70.4 M221,70.4
			c0,1.5-0.2,2.9-0.7,4.1c-0.4,1.2-1,2.3-1.8,3.2c-0.8,0.9-1.8,1.5-2.9,2c-1.1,0.5-2.4,0.7-3.7,0.7c-1.4,0-2.6-0.2-3.7-0.7
			c-1.1-0.5-2.1-1.2-2.9-2c-0.8-0.9-1.4-1.9-1.9-3.2c-0.4-1.2-0.7-2.6-0.7-4.1c0-1.5,0.2-2.9,0.7-4.1c0.4-1.2,1.1-2.3,1.9-3.1
			c0.8-0.9,1.8-1.5,2.9-2c1.1-0.5,2.3-0.7,3.6-0.7c1.3,0,2.6,0.2,3.7,0.7c1.1,0.5,2.1,1.1,2.9,2c0.8,0.9,1.4,1.9,1.9,3.1
			C220.8,67.5,221,68.9,221,70.4"/>
		<path d="M232.1,80.2c-1.3,0-2.4-0.2-3.2-0.4c-0.9-0.3-1.5-0.6-2-1.1c-0.5-0.5-0.9-1.1-1.1-1.8c-0.2-0.7-0.3-1.6-0.3-2.5V55.8
			l4.4-0.7v18.4c0,0.5,0,1,0.1,1.3c0.1,0.4,0.2,0.7,0.5,0.9c0.2,0.3,0.5,0.4,0.9,0.6c0.4,0.1,0.8,0.2,1.4,0.3L232.1,80.2z"/>
		<path d="M241,76.7c1.2,0,2-0.1,2.5-0.4c0.5-0.3,0.8-0.8,0.8-1.4c0-0.6-0.3-1.2-0.8-1.6c-0.6-0.4-1.5-0.9-2.8-1.3
			c-0.8-0.3-1.5-0.6-2.2-0.9c-0.7-0.3-1.2-0.7-1.7-1.1c-0.5-0.4-0.9-1-1.1-1.6c-0.3-0.6-0.4-1.4-0.4-2.3c0-1.7,0.6-3.1,1.9-4.1
			c1.3-1,3-1.5,5.2-1.5c1.1,0,2.2,0.1,3.2,0.3c1,0.2,1.8,0.4,2.3,0.6l-0.8,3.5c-0.5-0.2-1.1-0.4-1.8-0.6c-0.8-0.2-1.6-0.3-2.6-0.3
			c-0.9,0-1.6,0.1-2.2,0.4c-0.6,0.3-0.8,0.8-0.8,1.4c0,0.3,0.1,0.6,0.2,0.8c0.1,0.2,0.3,0.5,0.6,0.7c0.3,0.2,0.6,0.4,1,0.6
			c0.4,0.2,1,0.4,1.6,0.6c1,0.4,1.9,0.8,2.6,1.1c0.7,0.4,1.3,0.8,1.8,1.3c0.5,0.5,0.8,1,1,1.6c0.2,0.6,0.3,1.3,0.3,2.2
			c0,1.8-0.7,3.2-2,4.1c-1.3,0.9-3.3,1.4-5.7,1.4c-1.7,0-3-0.1-4-0.4c-1-0.3-1.7-0.5-2.1-0.7l0.8-3.7c0.7,0.3,1.4,0.5,2.3,0.8
			C238.8,76.6,239.9,76.7,241,76.7"/>
		<path d="M257.2,68.3c0.6-0.6,1.1-1.2,1.8-1.9c0.6-0.7,1.2-1.3,1.8-2c0.6-0.7,1.2-1.3,1.7-1.9c0.5-0.6,1-1.2,1.4-1.6h5.2
			c-1.2,1.3-2.5,2.7-3.8,4.2c-1.3,1.4-2.7,2.9-4,4.2c0.7,0.6,1.5,1.3,2.3,2.2c0.8,0.9,1.6,1.8,2.3,2.7c0.7,1,1.4,1.9,2.1,2.9
			c0.7,1,1.2,1.9,1.6,2.7h-5.1c-0.4-0.7-0.9-1.5-1.5-2.3c-0.6-0.8-1.2-1.6-1.8-2.4c-0.7-0.8-1.3-1.5-2-2.2c-0.7-0.7-1.3-1.3-2-1.8
			v8.7h-4.4V55.8l4.4-0.7V68.3z"/>
		<path d="M279.4,76.8c1.4,0,2.4-0.1,3.1-0.2v-4.8c-0.2-0.1-0.6-0.1-1.1-0.2c-0.5-0.1-1-0.1-1.5-0.1c-0.5,0-1,0-1.5,0.1
			c-0.5,0.1-0.9,0.2-1.3,0.4c-0.4,0.2-0.7,0.5-1,0.8c-0.2,0.4-0.4,0.8-0.4,1.3c0,1,0.3,1.8,1,2.2C277.4,76.6,278.3,76.8,279.4,76.8
			 M279.1,60.5c1.4,0,2.7,0.2,3.7,0.5c1,0.4,1.8,0.9,2.4,1.5c0.6,0.7,1,1.4,1.3,2.4c0.3,0.9,0.4,1.9,0.4,3.1v11.5
			c-0.7,0.1-1.7,0.3-3.1,0.5c-1.4,0.2-2.9,0.3-4.6,0.3c-1.1,0-2.2-0.1-3.1-0.3c-0.9-0.2-1.7-0.6-2.4-1.1c-0.7-0.5-1.2-1.1-1.6-1.9
			c-0.4-0.8-0.6-1.7-0.6-2.9c0-1.1,0.2-2,0.6-2.8c0.4-0.7,1-1.4,1.7-1.8c0.7-0.5,1.6-0.8,2.5-1c1-0.2,1.9-0.3,3-0.3
			c0.5,0,1,0,1.5,0.1c0.5,0.1,1.1,0.2,1.7,0.3v-0.7c0-0.5-0.1-1-0.2-1.4c-0.1-0.5-0.3-0.9-0.6-1.2c-0.3-0.3-0.7-0.6-1.2-0.8
			c-0.5-0.2-1.1-0.3-1.9-0.3c-1,0-1.9,0.1-2.8,0.2c-0.8,0.1-1.5,0.3-2.1,0.5l-0.5-3.5c0.6-0.2,1.4-0.4,2.4-0.6
			C276.7,60.6,277.9,60.5,279.1,60.5"/>
	</g>
	<g>
		<rect x="0" y="0" class="st0" width="149.1" height="49.8"/>
		<rect x="0" y="49.8" class="st1" width="149.1" height="49.8"/>
	</g>
	<path class="st2" d="M0.5,0.5h148.2v98.6H0.5V0.5z M0,99.5h149.1V0H0V99.5z"/>
</g>
</svg>
