<svg xmlns="http://www.w3.org/2000/svg" viewBox="0 0 18.45 38.657">
  <path id="Path_1" data-name="Path 1" d="M111.489,129.482H98.955a2.994,2.994,0,0,1-2.109-.879A2.9,2.9,0,0,1,96,126.524V93.785a2.906,2.906,0,0,1,.849-2.081,2.994,2.994,0,0,1,2.109-.879h12.534a2.994,2.994,0,0,1,2.109.879,2.906,2.906,0,0,1,.849,2.081v32.739a2.9,2.9,0,0,1-.849,2.079A2.994,2.994,0,0,1,111.489,129.482ZM96.583,96.1h17.276V93.785a2.283,2.283,0,0,0-.7-1.671,2.24,2.24,0,0,0-1.669-.7H98.955a2.24,2.24,0,0,0-1.669.7,2.285,2.285,0,0,0-.7,1.671Zm0,25.83h17.276V96.682H96.583Zm0,.586v4.012a2.28,2.28,0,0,0,.7,1.669,2.234,2.234,0,0,0,1.669.7h12.534a2.234,2.234,0,0,0,1.669-.7,2.279,2.279,0,0,0,.7-1.669v-4.012Zm8.668,5.064a1.9,1.9,0,1,1,1.9-1.9A1.9,1.9,0,0,1,105.251,127.576Zm0-3.219a1.318,1.318,0,1,0,1.318,1.318A1.312,1.312,0,0,0,105.251,124.357Z" transform="translate(-95.997 -90.825)" fill="#fff"/>
</svg>
