<svg xmlns="http://www.w3.org/2000/svg" viewBox="0 0 11 21" preserveAspectRatio="xMidYMid meet">
  <g id="smartphone001_-_E108" data-name="smartphone001 - E108" transform="translate(-95.497 -90.325)" style="isolation: isolate">
    <g id="Group_658" data-name="Group 658" transform="translate(95.997 90.825)" style="isolation: isolate">
      <path id="Path_1549" data-name="Path 1549" d="M104.394,110.825H97.6a1.663,1.663,0,0,1-1.143-.455,1.465,1.465,0,0,1-.46-1.076V92.356a1.469,1.469,0,0,1,.46-1.077,1.663,1.663,0,0,1,1.143-.455h6.794a1.663,1.663,0,0,1,1.143.455,1.469,1.469,0,0,1,.46,1.077v16.938a1.465,1.465,0,0,1-.46,1.076A1.663,1.663,0,0,1,104.394,110.825ZM96.314,93.552h9.364v-1.2a1.155,1.155,0,0,0-.38-.865,1.243,1.243,0,0,0-.9-.363H97.6a1.243,1.243,0,0,0-.9.363,1.156,1.156,0,0,0-.381.865Zm0,13.364h9.364V93.855H96.314Zm0,.3v2.076a1.154,1.154,0,0,0,.381.864,1.24,1.24,0,0,0,.9.364h6.794a1.24,1.24,0,0,0,.9-.364,1.153,1.153,0,0,0,.38-.864v-2.076Zm4.7,2.62a.985.985,0,1,1,1.032-.984A1.006,1.006,0,0,1,101.013,109.839Zm0-1.666a.683.683,0,1,0,.714.682A.7.7,0,0,0,101.013,108.173Z" transform="translate(-95.997 -90.825)" fill="#ff2d30" stroke="#ff2d30" stroke-width="1"/>
    </g>
    <g id="Group_659" data-name="Group 659" transform="translate(95.997 90.825)" style="isolation: isolate">
      <path id="Path_1550" data-name="Path 1550" d="M104.394,110.825H97.6a1.663,1.663,0,0,1-1.143-.455,1.465,1.465,0,0,1-.46-1.076V92.356a1.469,1.469,0,0,1,.46-1.077,1.663,1.663,0,0,1,1.143-.455h6.794a1.663,1.663,0,0,1,1.143.455,1.469,1.469,0,0,1,.46,1.077v16.938a1.465,1.465,0,0,1-.46,1.076A1.663,1.663,0,0,1,104.394,110.825ZM96.314,93.552h9.364v-1.2a1.155,1.155,0,0,0-.38-.865,1.243,1.243,0,0,0-.9-.363H97.6a1.243,1.243,0,0,0-.9.363,1.156,1.156,0,0,0-.381.865Zm0,13.364h9.364V93.855H96.314Zm0,.3v2.076a1.154,1.154,0,0,0,.381.864,1.24,1.24,0,0,0,.9.364h6.794a1.24,1.24,0,0,0,.9-.364,1.153,1.153,0,0,0,.38-.864v-2.076Zm4.7,2.62a.985.985,0,1,1,1.032-.984A1.006,1.006,0,0,1,101.013,109.839Zm0-1.666a.683.683,0,1,0,.714.682A.7.7,0,0,0,101.013,108.173Z" transform="translate(-95.997 -90.825)" fill="#ff2d30" stroke="#ff2d30" stroke-width="1"/>
    </g>
  </g>
</svg>
