<?xml version="1.0" encoding="utf-8"?>
<!-- Generator: Adobe Illustrator 24.2.3, SVG Export Plug-In . SVG Version: 6.00 Build 0)  -->
<svg version="1.1" id="Layer_7" xmlns="http://www.w3.org/2000/svg" xmlns:xlink="http://www.w3.org/1999/xlink" x="0px" y="0px"
	 viewBox="0 0 320.61 234.67" style="enable-background:new 0 0 320.61 234.67;" xml:space="preserve" preserveAspectRatio="xMidYMid meet">
<style type="text/css">
	.st0{fill:#E6E7E8;}
	.st1{fill:#D1D3D4;}
	.st2{fill:#FFFFFF;}
	.st3{fill:#1268B3;}
	.st4{fill:none;stroke:#E6E7E8;stroke-miterlimit:10;}
	.st5{clip-path:url(#SVGID_2_);fill:#1769B0;}
	.st6{fill:#1769B0;}
	.st7{clip-path:url(#SVGID_4_);fill:#1769B0;}
	.st8{fill:#EA1C3C;}
	.st9{clip-path:url(#SVGID_6_);fill:#1769B0;}
	.st10{clip-path:url(#SVGID_8_);fill:#1769B0;}
	.st11{fill:#6D6E71;}
	.st12{fill:none;}
</style>
<g>
	<g>
		<rect y="0.44" class="st0" width="320.61" height="234.13"/>
	</g>
	<g>
		<rect x="101.36" y="111.73" class="st1" width="12.18" height="15.7"/>
	</g>
	<g>
		<rect x="134.81" y="27.63" class="st1" width="49.38" height="77.34"/>
	</g>
	<g>
		<rect x="69.99" y="0.35" class="st1" width="39.94" height="70.14"/>
	</g>
	<g>
		<rect x="69.99" y="74.56" class="st1" width="39.94" height="24.46"/>
	</g>
	<g>
		<rect x="184" y="27.34" class="st1" width="136.6" height="13.13"/>
	</g>
	<g>
		<rect x="188.38" y="45" class="st1" width="59.03" height="37.26"/>
	</g>
	<g>
		<rect x="181.4" y="110.94" class="st1" width="35.64" height="22.7"/>
	</g>
	<g>
		<rect x="183.83" y="165.24" class="st1" width="71.48" height="27.48"/>
	</g>
	<g>
		<rect x="302.6" y="165.24" class="st1" width="18.01" height="27.48"/>
	</g>
	<g>
		<rect x="167.44" y="147.34" class="st1" width="25.31" height="15.52"/>
	</g>
	<g>
		<rect x="221.52" y="110.94" class="st1" width="47.17" height="22.7"/>
	</g>
	<g>
		<rect x="273.2" y="110.94" class="st1" width="35.01" height="22.7"/>
	</g>
	<g>
		<rect x="312.56" y="50.98" class="st1" width="8.05" height="88.67"/>
	</g>
	<g>
		<rect x="221.52" y="138" class="st1" width="16.86" height="22.7"/>
	</g>
	<g>
		<rect x="273.2" y="138" class="st1" width="16.86" height="22.7"/>
	</g>
	<g>
		<rect x="115.8" y="111.88" class="st1" width="51.64" height="113.21"/>
	</g>
	<g>
		<polygon class="st2" points="192.3,139.85 172.57,139.85 172.57,136.77 189.21,136.77 189.21,133.64 192.3,133.64 		"/>
	</g>
	<g>
		<rect x="62.32" y="0.44" class="st2" width="3.08" height="234.13"/>
	</g>
	<g>
		<polygon class="st2" points="296.14,106.94 63.87,106.94 63.87,103.86 293.05,103.86 293.05,-0.1 296.14,-0.1 		"/>
	</g>
	<g>
		<rect x="133.8" y="0.44" class="st2" width="3.08" height="104.95"/>
	</g>
	<g>
		<rect x="110.34" y="43.39" class="st2" width="24.47" height="3.08"/>
	</g>
	<g>
		<rect x="134.81" y="24.23" class="st2" width="185.8" height="3.08"/>
	</g>
	<g>
		<rect x="230.71" y="0.44" class="st2" width="3.08" height="25.52"/>
	</g>
	<g>
		<polygon class="st2" points="320.61,207.81 171.91,207.81 171.91,25.78 174.73,25.78 174.73,204.72 320.61,204.72 		"/>
	</g>
	<g>
		<g>
			<path class="st3" d="M141.62,122.75c-5.82,0-10.54,4.72-10.54,10.54c0,8.09,6.79,20.57,10.54,20.57
				c3.75,0,10.54-12.48,10.54-20.57C152.16,127.47,147.44,122.75,141.62,122.75z M141.62,140.53c-3.47,0-6.28-2.81-6.28-6.28
				c0-3.47,2.81-6.28,6.28-6.28c3.46,0,6.28,2.81,6.28,6.28C147.9,137.72,145.09,140.53,141.62,140.53z"/>
		</g>
	</g>
	<g>
		<g>
			<path class="st3" d="M143.29,99.67v0.9h-3.12V94h0.95v5.67H143.29z"/>
		</g>
		<g>
			<path class="st3" d="M147.43,98.59v0.23c0,1.16-0.69,1.86-1.76,1.86c-1.08,0-1.76-0.69-1.76-1.86v-0.23
				c0-0.63,0.27-1.16,0.72-1.44c-0.38-0.3-0.61-0.8-0.61-1.35v-0.15c0-1.07,0.64-1.75,1.65-1.75c1.01,0,1.65,0.68,1.65,1.75v0.15
				c0,0.55-0.23,1.04-0.62,1.35C147.16,97.43,147.43,97.96,147.43,98.59z M146.53,98.59c0-0.64-0.32-0.97-0.86-0.97
				c-0.54,0-0.86,0.34-0.86,0.97v0.23c0,0.64,0.32,0.97,0.86,0.97c0.54,0,0.86-0.33,0.86-0.97V98.59z M144.9,95.81
				c0,0.62,0.28,0.95,0.76,0.95c0.48,0,0.76-0.33,0.76-0.95v-0.14c0-0.59-0.28-0.89-0.76-0.89c-0.48,0-0.76,0.3-0.76,0.89V95.81z"/>
		</g>
	</g>
	<g>
		<g>
			<path class="st3" d="M285.97,36.29v0.9h-3.12v-6.57h0.95v5.67H285.97z"/>
		</g>
		<g>
			<path class="st3" d="M290.11,35.21v0.23c0,1.16-0.69,1.86-1.76,1.86c-1.08,0-1.76-0.69-1.76-1.86v-0.23
				c0-0.63,0.27-1.16,0.72-1.44c-0.38-0.3-0.61-0.8-0.61-1.35v-0.15c0-1.07,0.64-1.74,1.65-1.74c1.01,0,1.65,0.68,1.65,1.74v0.15
				c0,0.55-0.23,1.04-0.62,1.35C289.84,34.04,290.11,34.58,290.11,35.21z M289.21,35.21c0-0.64-0.32-0.97-0.86-0.97
				s-0.86,0.34-0.86,0.97v0.23c0,0.64,0.32,0.97,0.86,0.97s0.86-0.33,0.86-0.97V35.21z M287.59,32.43c0,0.62,0.28,0.95,0.76,0.95
				c0.48,0,0.76-0.33,0.76-0.95v-0.14c0-0.59-0.28-0.89-0.76-0.89c-0.48,0-0.76,0.3-0.76,0.89V32.43z"/>
		</g>
	</g>
	<g>
		<g>
			<path class="st3" d="M302.25,36.29v0.9h-3.12v-6.57h0.95v5.67H302.25z"/>
		</g>
		<g>
			<path class="st3" d="M305.69,30.61v0.63l-1.77,5.96h-0.95l1.69-5.73h-2.24v-0.85H305.69z"/>
		</g>
	</g>
	<g>
		<g>
			<path class="st3" d="M162.93,119.73v0.9h-3.12v-6.57h0.95v5.67H162.93z"/>
		</g>
		<g>
			<path class="st3" d="M165.27,114.06v6.54h-0.91v-5.31l-0.99,0.69v-1.03l1.22-0.89H165.27z"/>
		</g>
	</g>
	<g>
		<g>
			<path class="st3" d="M121.1,222.02v0.9h-3.12v-6.57h0.95v5.67H121.1z"/>
		</g>
		<g>
			<path class="st3" d="M123.44,216.35v6.54h-0.91v-5.31l-0.99,0.69v-1.03l1.22-0.89H123.44z"/>
		</g>
	</g>
	<g>
		<g>
			<path class="st3" d="M216.1,68.72c1.24,0,1.91-0.5,1.91-2.13V56.9h1.66v9.69c0,2.44-1.24,3.76-3.58,3.76V68.72z"/>
		</g>
	</g>
	<g>
		<path class="st3" d="M50.42,183.98v1.74l1.32,0.3v0.99l-6.57-1.65v-1.02l6.57-1.65v0.99L50.42,183.98z M49.54,184.18l-1.76,0.41
			c-0.43,0.09-1.06,0.2-1.41,0.24v0.03c0.35,0.05,0.98,0.14,1.41,0.24l1.76,0.4V184.18z"/>
		<path class="st3" d="M44.95,181.95v-0.91h6.79v0.91H44.95z"/>
		<path class="st3" d="M51.27,180.03c-0.34,0-0.56-0.23-0.56-0.57c0-0.34,0.23-0.57,0.56-0.57c0.35,0,0.57,0.23,0.57,0.57
			C51.84,179.8,51.62,180.03,51.27,180.03z"/>
		<path class="st3" d="M50.42,173.15v1.74l1.32,0.3v0.99l-6.57-1.65v-1.02l6.57-1.65v0.99L50.42,173.15z M49.54,173.35l-1.76,0.41
			c-0.43,0.09-1.06,0.2-1.41,0.24v0.03c0.35,0.05,0.98,0.14,1.41,0.24l1.76,0.4V173.35z"/>
		<path class="st3" d="M46.76,168.56h0.9c-0.08,0.18-0.11,0.37-0.11,0.61c0,0.62,0.43,1.01,1.23,1.01h2.97v0.91H46.8v-0.65l0.6-0.1
			c-0.45-0.26-0.71-0.69-0.71-1.27C46.68,168.87,46.7,168.71,46.76,168.56z"/>
		<path class="st3" d="M48.65,162.09h3.1v0.9h-3.07c-0.83,0-1.13,0.23-1.13,0.66c0,0.5,0.41,0.83,1.14,0.83h3.06v0.9h-3.07
			c-0.83,0-1.13,0.25-1.13,0.67c0,0.49,0.41,0.82,1.14,0.82h3.06v0.9H46.8v-0.65l0.55-0.09c-0.42-0.24-0.67-0.64-0.67-1.18
			c0-0.53,0.24-0.92,0.75-1.15c-0.48-0.24-0.75-0.67-0.75-1.25C46.67,162.6,47.32,162.09,48.65,162.09z"/>
		<path class="st3" d="M45.4,161.03c-0.34,0-0.58-0.23-0.58-0.57s0.24-0.58,0.58-0.58c0.32,0,0.57,0.24,0.57,0.58
			S45.73,161.03,45.4,161.03z M46.8,160.91V160h4.94v0.91H46.8z"/>
		<path class="st3" d="M45.4,158.89c-0.34,0-0.58-0.23-0.58-0.57c0-0.34,0.24-0.58,0.58-0.58c0.32,0,0.57,0.24,0.57,0.58
			C45.97,158.65,45.73,158.89,45.4,158.89z M46.8,158.77v-0.91h4.94v0.91H46.8z"/>
		<path class="st3" d="M48.87,152.98l0.65,0.43h2.22v0.94h-6.57v-0.94h2.85l-0.77-0.43l-2.08-1.31v-1.11l2.86,1.88l3.71-2.15v1.09
			L48.87,152.98z"/>
		<path class="st3" d="M46.76,147.14h0.9c-0.08,0.18-0.11,0.37-0.11,0.61c0,0.62,0.43,1.01,1.23,1.01h2.97v0.91H46.8v-0.65l0.6-0.1
			c-0.45-0.26-0.71-0.69-0.71-1.27C46.68,147.45,46.7,147.28,46.76,147.14z"/>
		<path class="st3" d="M48.46,143.21h3.28v0.74l-0.47,0.07c0.35,0.21,0.59,0.56,0.59,1.1c0,0.91-0.6,1.52-1.53,1.52
			c-1,0-1.52-0.69-1.52-1.79v-0.72h-0.36c-0.58,0-0.91,0.22-0.91,0.71c0,0.4,0.22,0.7,0.66,0.75v0.91
			c-0.95-0.05-1.53-0.69-1.53-1.68C46.67,143.75,47.32,143.21,48.46,143.21z M49.57,144.12v0.72c0,0.55,0.26,0.87,0.76,0.87
			c0.45,0,0.72-0.29,0.72-0.79c0-0.5-0.32-0.81-0.84-0.81H49.57z"/>
		<path class="st3" d="M45.41,141.9c-0.34,0-0.58-0.23-0.58-0.57c0-0.33,0.24-0.57,0.58-0.57c0.32,0,0.57,0.24,0.57,0.57
			C45.98,141.67,45.74,141.9,45.41,141.9z M52.68,142.66c-0.01-0.63-0.32-0.88-0.94-0.88H46.8v-0.9h4.91c1.15,0,1.84,0.59,1.85,1.78
			H52.68z"/>
		<path class="st3" d="M49.98,139.64h-1.43c-1.21,0-1.88-0.67-1.88-1.74c0-1.08,0.67-1.75,1.88-1.75h1.43
			c1.21,0,1.88,0.67,1.88,1.75C51.85,138.97,51.19,139.64,49.98,139.64z M49.98,137.08h-1.43c-0.69,0-0.99,0.31-0.99,0.83
			c0,0.51,0.3,0.82,0.99,0.82h1.43c0.7,0,0.99-0.31,0.99-0.82C50.97,137.39,50.67,137.08,49.98,137.08z"/>
		<path class="st3" d="M46.8,129.87l4.94,1.17v0.99l-1.79,0.43c-0.68,0.15-1.48,0.29-1.95,0.34v0.04c0.47,0.04,1.28,0.18,1.95,0.34
			l1.79,0.42v0.99l-4.94,1.18v-0.95l2.21-0.44c0.55-0.1,1.36-0.23,1.7-0.28v-0.04c-0.39-0.06-1.15-0.19-1.74-0.31l-2.08-0.45v-0.97
			l2.08-0.45c0.58-0.11,1.34-0.25,1.74-0.31v-0.04c-0.34-0.04-1.14-0.18-1.7-0.28l-2.21-0.44V129.87z"/>
		<path class="st3" d="M50.19,125.81c1.05,0.09,1.65,0.72,1.65,1.77c0,1.03-0.68,1.68-1.86,1.68h-1.47c-1.17,0-1.84-0.66-1.84-1.7
			c0-1.07,0.67-1.74,1.84-1.74h1.1v2.52h0.38c0.68,0,0.99-0.29,0.99-0.79c0-0.53-0.24-0.76-0.78-0.84V125.81z M48.5,128.35h0.42
			v-1.62H48.5c-0.67,0-0.98,0.3-0.98,0.83C47.53,128.05,47.83,128.35,48.5,128.35z"/>
		<path class="st3" d="M45.41,124.67c-0.34,0-0.58-0.23-0.58-0.57c0-0.33,0.24-0.57,0.58-0.57c0.32,0,0.57,0.24,0.57,0.57
			C45.98,124.44,45.74,124.67,45.41,124.67z M52.68,125.43c-0.01-0.63-0.32-0.88-0.94-0.88H46.8v-0.9h4.91
			c1.15,0,1.84,0.59,1.85,1.78H52.68z"/>
	</g>
	<g>
		<rect y="0.64" class="st0" width="320.61" height="234.13"/>
	</g>
	<g>
		<g>
			<path class="st3" d="M89.62,33.28c0,2.42-1.29,3.76-3.55,3.76h-1.38v4.06h-1.67V29.56h3.05C88.33,29.56,89.62,30.93,89.62,33.28z
				 M87.92,33.28c0-1.42-0.61-2.14-1.86-2.14h-1.37v4.32h1.37C87.31,35.46,87.92,34.77,87.92,33.28z"/>
		</g>
		<g>
			<path class="st3" d="M96.91,36.55v1.17c0,2.38-1.09,3.56-2.85,3.56c-1.75,0-2.84-1.15-2.9-3.12h1.62
				c0.05,1.11,0.48,1.57,1.29,1.57c0.79,0,1.24-0.49,1.24-1.99v-1.2c0-1.25-0.38-1.75-1.2-1.75c-0.68,0-1.11,0.36-1.27,1.1h-1.57
				v-6.33h5.29v1.43h-3.69v2.74c0.38-0.28,0.87-0.46,1.45-0.46C95.85,33.27,96.91,34.44,96.91,36.55z"/>
		</g>
	</g>
	<g>
		<g>
			<path class="st3" d="M89.29,84.75c0,2.42-1.29,3.76-3.55,3.76h-1.38v4.06H82.7V81.02h3.05C88.01,81.02,89.29,82.39,89.29,84.75z
				 M87.59,84.75c0-1.42-0.61-2.14-1.86-2.14h-1.37v4.32h1.37C86.98,86.93,87.59,86.23,87.59,84.75z"/>
		</g>
		<g>
			<path class="st3" d="M90.48,89.4h1.7c0.02,1.19,0.66,1.76,1.68,1.76c1.11,0,1.65-0.66,1.65-1.58c0-2.29-4.83-2.42-4.83-5.85
				c0-1.66,1.22-2.92,3.17-2.92c1.98,0,3.16,1.27,3.21,3.23h-1.7c-0.03-1.1-0.61-1.63-1.5-1.63c-0.94,0-1.48,0.53-1.48,1.35
				c0,2.26,4.85,2.26,4.85,5.84c0,1.72-1.2,3.18-3.36,3.18C91.82,92.78,90.5,91.51,90.48,89.4z"/>
		</g>
	</g>
	<g>
		<g>
			<path class="st3" d="M237.57,124.9h1.7c0.02,1.19,0.66,1.76,1.68,1.76c1.11,0,1.65-0.66,1.65-1.58c0-2.29-4.83-2.43-4.83-5.85
				c0-1.67,1.22-2.92,3.17-2.92c1.98,0,3.16,1.27,3.21,3.23h-1.7c-0.03-1.11-0.61-1.63-1.5-1.63c-0.94,0-1.48,0.53-1.48,1.35
				c0,2.26,4.85,2.26,4.85,5.84c0,1.72-1.2,3.18-3.36,3.18C238.91,128.28,237.59,127.01,237.57,124.9z"/>
		</g>
		<g>
			<path class="st3" d="M252.65,120.25c0,2.42-1.29,3.76-3.55,3.76h-1.38v4.06h-1.67v-11.54h3.05
				C251.36,116.52,252.65,117.89,252.65,120.25z M250.95,120.25c0-1.42-0.61-2.14-1.86-2.14h-1.37v4.32h1.37
				C250.34,122.43,250.95,121.73,250.95,120.25z"/>
		</g>
	</g>
	<g>
		<g>
			<path class="st3" d="M218.41,179.71l-0.76,1.14v3.91H216v-11.54h1.65v5.01l0.76-1.35l2.31-3.66h1.94l-3.3,5.03l3.78,6.51h-1.91
				L218.41,179.71z"/>
		</g>
	</g>
	<path class="st1" d="M148.93,112.08h-62.3v75.13h14.72v20.89h4.46v17.19h61.42v-94.9C167.25,120.28,159.05,112.08,148.93,112.08z"
		/>
	<g>
		<rect x="69.8" y="111.92" class="st1" width="12.18" height="15.7"/>
	</g>
	<g>
		<rect x="93.43" y="117.21" class="st4" width="15.7" height="12.18"/>
	</g>
	<g>
		<rect x="146.3" y="160.13" class="st4" width="15.7" height="12.18"/>
	</g>
	<g>
		<rect x="152.81" y="178.09" class="st4" width="9.19" height="8.92"/>
	</g>
	<g>
		
			<rect x="114.24" y="129.3" transform="matrix(1 -8.841743e-03 8.841743e-03 1 -1.2511 1.1831)" class="st2" width="37.87" height="25.59"/>
	</g>
	<g>
		<rect x="134.62" y="27.82" class="st1" width="49.38" height="77.34"/>
	</g>
	<g>
		<rect x="69.8" y="0.54" class="st1" width="39.94" height="70.14"/>
	</g>
	<g>
		<rect x="69.8" y="74.76" class="st1" width="39.94" height="24.46"/>
	</g>
	<g>
		<rect x="183.81" y="27.53" class="st1" width="136.8" height="13.13"/>
	</g>
	<g>
		<rect x="188.18" y="45.19" class="st1" width="59.03" height="37.26"/>
	</g>
	<g>
		<rect x="181.21" y="111.13" class="st1" width="35.64" height="22.7"/>
	</g>
	<g>
		<rect x="183.64" y="165.44" class="st1" width="71.48" height="27.48"/>
	</g>
	<g>
		<rect x="302.41" y="165.44" class="st1" width="18.2" height="27.48"/>
	</g>
	<g>
		<rect x="167.25" y="147.54" class="st1" width="25.31" height="15.52"/>
	</g>
	<g>
		<rect x="221.33" y="111.13" class="st1" width="47.17" height="22.7"/>
	</g>
	<g>
		<rect x="273.01" y="111.13" class="st1" width="35.01" height="22.7"/>
	</g>
	<g>
		<rect x="312.37" y="51.17" class="st1" width="8.24" height="88.67"/>
	</g>
	<g>
		<rect x="221.33" y="138.19" class="st1" width="16.86" height="22.7"/>
	</g>
	<g>
		<rect x="273.01" y="138.19" class="st1" width="16.86" height="22.7"/>
	</g>
	<g>
		<polygon class="st2" points="192.1,140.04 172.37,140.04 172.37,136.96 189.02,136.96 189.02,133.84 192.1,133.84 		"/>
	</g>
	<g>
		<g>
			<path class="st3" d="M143.1,99.86v0.9h-3.12V94.2h0.95v5.67H143.1z"/>
		</g>
		<g>
			<path class="st3" d="M147.23,98.78v0.23c0,1.16-0.69,1.86-1.76,1.86c-1.08,0-1.76-0.69-1.76-1.86v-0.23
				c0-0.63,0.27-1.16,0.72-1.44c-0.38-0.3-0.61-0.8-0.61-1.35v-0.15c0-1.07,0.64-1.75,1.65-1.75c1.01,0,1.65,0.68,1.65,1.75v0.15
				c0,0.55-0.23,1.04-0.62,1.35C146.96,97.62,147.23,98.15,147.23,98.78z M146.33,98.78c0-0.64-0.32-0.97-0.86-0.97
				c-0.54,0-0.86,0.34-0.86,0.97v0.23c0,0.64,0.32,0.97,0.86,0.97c0.54,0,0.86-0.33,0.86-0.97V98.78z M144.71,96.01
				c0,0.62,0.28,0.95,0.76,0.95c0.48,0,0.76-0.33,0.76-0.95v-0.14c0-0.59-0.28-0.89-0.76-0.89c-0.48,0-0.76,0.3-0.76,0.89V96.01z"/>
		</g>
	</g>
	<g>
		<g>
			<path class="st3" d="M285.78,36.48v0.9h-3.12v-6.57h0.95v5.67H285.78z"/>
		</g>
		<g>
			<path class="st3" d="M289.92,35.4v0.23c0,1.16-0.69,1.86-1.76,1.86c-1.08,0-1.76-0.69-1.76-1.86V35.4c0-0.63,0.27-1.16,0.72-1.44
				c-0.38-0.3-0.61-0.8-0.61-1.35v-0.15c0-1.07,0.64-1.75,1.65-1.75c1.01,0,1.65,0.68,1.65,1.75v0.15c0,0.55-0.23,1.04-0.62,1.35
				C289.65,34.24,289.92,34.77,289.92,35.4z M289.02,35.4c0-0.64-0.32-0.97-0.86-0.97c-0.54,0-0.86,0.34-0.86,0.97v0.23
				c0,0.64,0.32,0.97,0.86,0.97c0.54,0,0.86-0.33,0.86-0.97V35.4z M287.39,32.62c0,0.62,0.28,0.95,0.76,0.95
				c0.48,0,0.76-0.33,0.76-0.95v-0.14c0-0.59-0.28-0.89-0.76-0.89c-0.48,0-0.76,0.3-0.76,0.89V32.62z"/>
		</g>
	</g>
	<g>
		<g>
			<path class="st3" d="M302.06,36.48v0.9h-3.12v-6.57h0.95v5.67H302.06z"/>
		</g>
		<g>
			<path class="st3" d="M305.5,30.8v0.63l-1.77,5.96h-0.95l1.69-5.73h-2.24V30.8H305.5z"/>
		</g>
	</g>
	<g>
		<g>
			<path class="st3" d="M166.34,115.61v0.9h-3.12v-6.57h0.95v5.67H166.34z"/>
		</g>
		<g>
			<path class="st3" d="M168.67,109.95v6.54h-0.91v-5.31l-0.99,0.69v-1.03l1.22-0.89H168.67z"/>
		</g>
	</g>
	<g>
		<g>
			<path class="st3" d="M91.52,222.21v0.9H88.4v-6.57h0.95v5.67H91.52z"/>
		</g>
		<g>
			<path class="st3" d="M93.86,216.55v6.54h-0.91v-5.31l-0.99,0.69v-1.03l1.22-0.89H93.86z"/>
		</g>
	</g>
	<g>
		<g>
			<path class="st3" d="M215.91,68.92c1.24,0,1.91-0.5,1.91-2.13v-9.69h1.66v9.69c0,2.44-1.24,3.76-3.58,3.76V68.92z"/>
		</g>
	</g>
	<g>
		<path class="st3" d="M50.22,69.65v1.74l1.32,0.3v0.99l-6.57-1.65v-1.02l6.57-1.65v0.99L50.22,69.65z M49.34,69.85l-1.76,0.41
			c-0.43,0.09-1.06,0.2-1.41,0.24v0.03c0.35,0.05,0.98,0.14,1.41,0.24l1.76,0.4V69.85z"/>
		<path class="st3" d="M44.75,67.62v-0.91h6.79v0.91H44.75z"/>
		<path class="st3" d="M51.08,65.7c-0.34,0-0.56-0.23-0.56-0.57c0-0.34,0.23-0.57,0.56-0.57c0.35,0,0.57,0.23,0.57,0.57
			C51.65,65.47,51.43,65.7,51.08,65.7z"/>
		<path class="st3" d="M50.22,58.82v1.74l1.32,0.3v0.99l-6.57-1.65v-1.02l6.57-1.65v0.99L50.22,58.82z M49.34,59.02l-1.76,0.41
			c-0.43,0.09-1.06,0.2-1.41,0.24v0.03c0.35,0.05,0.98,0.14,1.41,0.24l1.76,0.4V59.02z"/>
		<path class="st3" d="M46.57,54.23h0.9c-0.08,0.18-0.11,0.37-0.11,0.61c0,0.62,0.43,1.01,1.23,1.01h2.97v0.91H46.6v-0.65l0.6-0.1
			c-0.45-0.26-0.71-0.69-0.71-1.27C46.49,54.54,46.51,54.37,46.57,54.23z"/>
		<path class="st3" d="M48.45,47.76h3.1v0.9h-3.07c-0.83,0-1.14,0.23-1.14,0.66c0,0.5,0.41,0.83,1.14,0.83h3.06v0.9h-3.07
			c-0.83,0-1.14,0.25-1.14,0.67c0,0.49,0.41,0.82,1.14,0.82h3.06v0.9H46.6v-0.65l0.55-0.09c-0.42-0.24-0.67-0.64-0.67-1.18
			c0-0.53,0.24-0.92,0.75-1.15c-0.48-0.24-0.75-0.67-0.75-1.25C46.48,48.27,47.13,47.76,48.45,47.76z"/>
		<path class="st3" d="M45.21,46.7c-0.34,0-0.58-0.23-0.58-0.57c0-0.34,0.24-0.58,0.58-0.58c0.32,0,0.57,0.24,0.57,0.58
			C45.78,46.46,45.53,46.7,45.21,46.7z M46.6,46.57v-0.91h4.94v0.91H46.6z"/>
		<path class="st3" d="M45.21,44.56c-0.34,0-0.58-0.23-0.58-0.57c0-0.34,0.24-0.58,0.58-0.58c0.32,0,0.57,0.24,0.57,0.58
			C45.78,44.32,45.53,44.56,45.21,44.56z M46.6,44.43v-0.91h4.94v0.91H46.6z"/>
		<path class="st3" d="M48.68,38.65l0.65,0.43h2.22v0.94h-6.57v-0.94h2.85l-0.77-0.43l-2.08-1.31v-1.11l2.86,1.88l3.71-2.15v1.09
			L48.68,38.65z"/>
		<path class="st3" d="M46.57,32.81h0.9c-0.08,0.18-0.11,0.37-0.11,0.61c0,0.62,0.43,1.01,1.23,1.01h2.97v0.91H46.6v-0.65l0.6-0.1
			c-0.45-0.26-0.71-0.69-0.71-1.27C46.49,33.12,46.51,32.95,46.57,32.81z"/>
		<path class="st3" d="M48.26,28.87h3.28v0.74l-0.47,0.07c0.35,0.21,0.59,0.56,0.59,1.1c0,0.91-0.6,1.52-1.53,1.52
			c-1,0-1.52-0.69-1.52-1.79v-0.72h-0.36c-0.58,0-0.91,0.22-0.91,0.71c0,0.4,0.22,0.7,0.66,0.75v0.91
			c-0.95-0.05-1.53-0.69-1.53-1.68C46.48,29.42,47.13,28.87,48.26,28.87z M49.38,29.78v0.72c0,0.55,0.26,0.87,0.76,0.87
			c0.45,0,0.72-0.29,0.72-0.79c0-0.5-0.32-0.81-0.84-0.81H49.38z"/>
		<path class="st3" d="M45.22,27.57c-0.34,0-0.58-0.23-0.58-0.57c0-0.33,0.24-0.57,0.58-0.57c0.32,0,0.57,0.24,0.57,0.57
			C45.79,27.34,45.54,27.57,45.22,27.57z M52.49,28.33c-0.01-0.63-0.32-0.88-0.94-0.88H46.6v-0.9h4.91c1.15,0,1.84,0.59,1.85,1.78
			H52.49z"/>
		<path class="st3" d="M49.78,25.31h-1.43c-1.21,0-1.88-0.67-1.88-1.74c0-1.08,0.67-1.75,1.88-1.75h1.43c1.21,0,1.88,0.67,1.88,1.75
			C51.66,24.64,50.99,25.31,49.78,25.31z M49.78,22.75h-1.43c-0.69,0-0.99,0.31-0.99,0.83c0,0.51,0.3,0.82,0.99,0.82h1.43
			c0.69,0,0.99-0.31,0.99-0.82C50.78,23.06,50.48,22.75,49.78,22.75z"/>
		<path class="st3" d="M46.6,15.54l4.94,1.17v0.99l-1.79,0.43c-0.68,0.15-1.48,0.29-1.95,0.34v0.04c0.47,0.04,1.28,0.18,1.95,0.34
			l1.79,0.42v0.99l-4.94,1.18v-0.95l2.21-0.44c0.55-0.1,1.36-0.23,1.7-0.28v-0.04c-0.39-0.06-1.15-0.19-1.74-0.31l-2.08-0.45V18
			l2.08-0.45c0.58-0.11,1.34-0.25,1.74-0.31V17.2c-0.34-0.04-1.14-0.18-1.7-0.28l-2.21-0.44V15.54z"/>
		<path class="st3" d="M50,11.47c1.05,0.09,1.65,0.72,1.65,1.77c0,1.03-0.68,1.68-1.86,1.68h-1.47c-1.17,0-1.84-0.66-1.84-1.7
			c0-1.07,0.67-1.74,1.84-1.74h1.1v2.52h0.38c0.68,0,0.99-0.29,0.99-0.79c0-0.53-0.24-0.76-0.78-0.84V11.47z M48.31,14.02h0.42
			v-1.62h-0.42c-0.67,0-0.98,0.3-0.98,0.83C47.34,13.72,47.64,14.02,48.31,14.02z"/>
		<path class="st3" d="M45.22,10.34c-0.34,0-0.58-0.23-0.58-0.57c0-0.33,0.24-0.57,0.58-0.57c0.32,0,0.57,0.24,0.57,0.57
			C45.79,10.11,45.54,10.34,45.22,10.34z M52.49,11.1c-0.01-0.63-0.32-0.88-0.94-0.88H46.6v-0.9h4.91c1.15,0,1.84,0.59,1.85,1.78
			H52.49z"/>
	</g>
	<g>
		<g>
			<path class="st3" d="M89.42,33.48c0,2.42-1.29,3.76-3.55,3.76h-1.38v4.06h-1.67V29.75h3.05C88.14,29.75,89.42,31.12,89.42,33.48z
				 M87.73,33.48c0-1.42-0.61-2.14-1.86-2.14h-1.37v4.32h1.37C87.12,35.65,87.73,34.96,87.73,33.48z"/>
		</g>
		<g>
			<path class="st3" d="M96.72,36.74v1.17c0,2.38-1.09,3.56-2.85,3.56c-1.75,0-2.84-1.15-2.9-3.12h1.62
				c0.05,1.11,0.48,1.57,1.29,1.57c0.79,0,1.24-0.49,1.24-1.99v-1.2c0-1.25-0.38-1.75-1.2-1.75c-0.68,0-1.11,0.36-1.27,1.1h-1.57
				v-6.33h5.29v1.43h-3.69v2.74c0.38-0.28,0.87-0.46,1.45-0.46C95.66,33.46,96.72,34.63,96.72,36.74z"/>
		</g>
	</g>
	<g>
		<g>
			<path class="st3" d="M89.1,84.94c0,2.42-1.29,3.76-3.55,3.76h-1.38v4.06H82.5V81.22h3.05C87.81,81.22,89.1,82.59,89.1,84.94z
				 M87.4,84.94c0-1.42-0.61-2.14-1.86-2.14h-1.37v4.32h1.37C86.79,87.12,87.4,86.43,87.4,84.94z"/>
		</g>
		<g>
			<path class="st3" d="M90.29,89.59h1.7c0.02,1.19,0.66,1.76,1.68,1.76c1.11,0,1.65-0.66,1.65-1.58c0-2.29-4.83-2.42-4.83-5.85
				c0-1.66,1.22-2.92,3.17-2.92c1.98,0,3.16,1.27,3.21,3.23h-1.7c-0.03-1.1-0.61-1.63-1.5-1.63c-0.94,0-1.48,0.53-1.48,1.35
				c0,2.26,4.85,2.26,4.85,5.84c0,1.72-1.2,3.18-3.36,3.18C91.63,92.97,90.31,91.7,90.29,89.59z"/>
		</g>
	</g>
	<g>
		<g>
			<path class="st3" d="M237.38,125.09h1.7c0.02,1.19,0.66,1.76,1.68,1.76c1.11,0,1.65-0.66,1.65-1.58c0-2.29-4.83-2.43-4.83-5.85
				c0-1.67,1.22-2.92,3.17-2.92c1.98,0,3.16,1.27,3.21,3.23h-1.7c-0.03-1.11-0.61-1.63-1.5-1.63c-0.94,0-1.48,0.53-1.48,1.35
				c0,2.26,4.85,2.26,4.85,5.84c0,1.72-1.2,3.18-3.36,3.18C238.71,128.47,237.4,127.2,237.38,125.09z"/>
		</g>
		<g>
			<path class="st3" d="M252.45,120.44c0,2.42-1.29,3.76-3.55,3.76h-1.38v4.06h-1.67v-11.54h3.05
				C251.17,116.71,252.45,118.08,252.45,120.44z M250.75,120.44c0-1.42-0.61-2.14-1.86-2.14h-1.37v4.32h1.37
				C250.14,122.62,250.75,121.93,250.75,120.44z"/>
		</g>
	</g>
	<g>
		<g>
			<path class="st3" d="M218.22,179.9l-0.76,1.14v3.91h-1.65v-11.54h1.65v5.01l0.76-1.35l2.31-3.66h1.94l-3.3,5.03l3.78,6.51h-1.91
				L218.22,179.9z"/>
		</g>
	</g>
	<g>
		<g>
			<defs>
				<rect id="SVGID_1_" x="118.45" y="133.27" width="29.44" height="17.64"/>
			</defs>
			<clipPath id="SVGID_2_">
				<use xlink:href="#SVGID_1_"  style="overflow:visible;"/>
			</clipPath>
			<path class="st5" d="M118.52,150.92v-0.53h2.31c0.14,0,0.25-0.04,0.33-0.11c0.08-0.07,0.11-0.17,0.11-0.29
				c0-0.13-0.03-0.19-0.11-0.25c-0.08-0.06-0.18-0.1-0.33-0.1h-1.38c-0.14,0-0.27-0.02-0.38-0.06c-0.11-0.04-0.21-0.1-0.29-0.18
				c-0.08-0.08-0.14-0.17-0.18-0.27c-0.04-0.11-0.07-0.26-0.07-0.38c0-0.12,0.02-0.23,0.06-0.34c0.04-0.1,0.1-0.19,0.18-0.27
				c0.08-0.07,0.18-0.13,0.29-0.18c0.12-0.04,0.25-0.06,0.4-0.06h2.31v0.53h-2.31c-0.12,0-0.22,0.03-0.28,0.1
				c-0.07,0.07-0.1,0.16-0.1,0.27c0,0.12,0.03,0.21,0.1,0.27c0.07,0.06,0.16,0.1,0.28,0.1h1.38c0.31,0,0.54,0.07,0.7,0.22
				c0.16,0.14,0.24,0.36,0.24,0.66c0,0.13-0.02,0.24-0.06,0.35c-0.04,0.11-0.1,0.2-0.17,0.28c-0.08,0.08-0.17,0.14-0.29,0.18
				c-0.12,0.04-0.25,0.07-0.41,0.07H118.52z"/>
			<path class="st5" d="M144.66,150.92v-0.53h2.3c0.14,0,0.25-0.04,0.33-0.11c0.08-0.07,0.11-0.17,0.11-0.29
				c0-0.13-0.03-0.19-0.11-0.25c-0.08-0.06-0.18-0.1-0.33-0.1h-1.38c-0.14,0-0.27-0.02-0.38-0.06c-0.11-0.04-0.21-0.1-0.29-0.18
				c-0.08-0.08-0.14-0.17-0.18-0.27c-0.04-0.11-0.07-0.26-0.07-0.38c0-0.12,0.02-0.23,0.06-0.34c0.04-0.1,0.1-0.19,0.18-0.27
				c0.08-0.07,0.18-0.13,0.29-0.18c0.12-0.04,0.25-0.06,0.4-0.06h2.31v0.53h-2.31c-0.12,0-0.22,0.03-0.28,0.1
				c-0.07,0.07-0.1,0.16-0.1,0.27c0,0.12,0.03,0.21,0.1,0.27c0.07,0.06,0.16,0.1,0.28,0.1h1.38c0.31,0,0.54,0.07,0.7,0.22
				c0.16,0.14,0.24,0.36,0.24,0.66c0,0.13-0.02,0.24-0.06,0.35c-0.04,0.11-0.1,0.2-0.17,0.28c-0.08,0.08-0.17,0.14-0.29,0.18
				c-0.12,0.04-0.25,0.07-0.41,0.07H144.66z"/>
			<path class="st5" d="M124.32,150.39c0.14,0,0.27-0.02,0.38-0.07c0.12-0.05,0.22-0.12,0.3-0.21c0.08-0.09,0.15-0.19,0.2-0.31
				c0.05-0.12,0.07-0.25,0.07-0.39s-0.02-0.27-0.07-0.39c-0.05-0.12-0.11-0.22-0.2-0.31c-0.08-0.09-0.18-0.15-0.3-0.2
				c-0.12-0.05-0.24-0.07-0.38-0.07h-0.73c-0.14,0-0.26,0.02-0.38,0.07c-0.11,0.05-0.21,0.12-0.3,0.2
				c-0.08,0.09-0.15,0.19-0.19,0.31c-0.05,0.12-0.07,0.25-0.07,0.39c0,0.14,0.02,0.27,0.07,0.39c0.05,0.12,0.11,0.23,0.19,0.31
				c0.08,0.09,0.18,0.16,0.3,0.21c0.11,0.05,0.24,0.07,0.38,0.07H124.32z M123.59,150.92c-0.21,0-0.4-0.04-0.58-0.12
				c-0.18-0.08-0.33-0.19-0.46-0.32c-0.13-0.14-0.23-0.3-0.31-0.49c-0.07-0.19-0.11-0.39-0.11-0.61c0-0.22,0.04-0.42,0.11-0.61
				c0.07-0.18,0.18-0.34,0.31-0.47c0.13-0.13,0.29-0.23,0.46-0.3c0.18-0.07,0.37-0.11,0.58-0.11h0.73c0.22,0,0.42,0.04,0.6,0.11
				c0.18,0.07,0.34,0.17,0.47,0.3c0.13,0.13,0.23,0.29,0.3,0.47c0.07,0.18,0.11,0.38,0.11,0.6c0,0.22-0.04,0.42-0.11,0.61
				c-0.07,0.19-0.18,0.35-0.31,0.49c-0.13,0.14-0.29,0.24-0.47,0.32c-0.18,0.08-0.38,0.12-0.59,0.12H123.59z"/>
			<path class="st5" d="M131.85,147.9h0.51l0,1.64c0,0.23-0.03,0.43-0.09,0.61c-0.06,0.17-0.16,0.32-0.29,0.43
				c-0.13,0.11-0.3,0.2-0.5,0.25c-0.21,0.06-0.46,0.08-0.75,0.08c-0.29,0-0.54-0.03-0.74-0.08c-0.21-0.06-0.37-0.14-0.5-0.25
				c-0.13-0.11-0.23-0.26-0.29-0.43c-0.06-0.17-0.09-0.38-0.09-0.61v-1.64h0.54v1.64c0,0.15,0.02,0.28,0.06,0.39
				c0.04,0.11,0.1,0.2,0.18,0.27c0.08,0.07,0.2,0.12,0.34,0.15c0.14,0.03,0.32,0.05,0.52,0.05c0.21,0,0.38-0.02,0.52-0.05
				c0.14-0.03,0.25-0.08,0.34-0.15c0.08-0.07,0.15-0.16,0.18-0.27c0.04-0.11,0.06-0.24,0.06-0.39V147.9z"/>
		</g>
		<polygon class="st6" points="132.67,147.9 132.67,148.43 133.81,148.43 133.81,150.92 134.34,150.92 134.34,148.43 135.48,148.43 
			135.48,147.9 		"/>
		<g>
			<defs>
				<rect id="SVGID_3_" x="118.45" y="133.27" width="29.44" height="17.64"/>
			</defs>
			<clipPath id="SVGID_4_">
				<use xlink:href="#SVGID_3_"  style="overflow:visible;"/>
			</clipPath>
			<path class="st7" d="M139.05,150.39c0.14,0,0.27-0.02,0.38-0.07c0.12-0.05,0.22-0.12,0.3-0.21c0.08-0.09,0.15-0.19,0.2-0.31
				c0.05-0.12,0.07-0.25,0.07-0.39s-0.02-0.27-0.07-0.39c-0.05-0.12-0.11-0.22-0.2-0.31c-0.08-0.09-0.18-0.15-0.3-0.2
				c-0.12-0.05-0.24-0.07-0.38-0.07h-0.73c-0.14,0-0.26,0.02-0.38,0.07c-0.11,0.05-0.21,0.12-0.3,0.2
				c-0.08,0.09-0.15,0.19-0.19,0.31c-0.05,0.12-0.07,0.25-0.07,0.39c0,0.14,0.02,0.27,0.07,0.39c0.05,0.12,0.11,0.23,0.19,0.31
				c0.08,0.09,0.18,0.16,0.3,0.21c0.11,0.05,0.24,0.07,0.38,0.07H139.05z M138.31,150.92c-0.21,0-0.4-0.04-0.58-0.12
				c-0.18-0.08-0.33-0.19-0.46-0.32c-0.13-0.14-0.23-0.3-0.31-0.49c-0.07-0.19-0.11-0.39-0.11-0.61c0-0.22,0.04-0.42,0.11-0.61
				c0.07-0.18,0.18-0.34,0.31-0.47c0.13-0.13,0.29-0.23,0.46-0.3c0.18-0.07,0.37-0.11,0.58-0.11h0.73c0.22,0,0.42,0.04,0.6,0.11
				c0.18,0.07,0.34,0.17,0.47,0.3c0.13,0.13,0.23,0.29,0.3,0.47c0.07,0.18,0.11,0.38,0.11,0.6c0,0.22-0.04,0.42-0.11,0.61
				c-0.07,0.19-0.18,0.35-0.31,0.49c-0.13,0.14-0.29,0.24-0.47,0.32c-0.18,0.08-0.38,0.12-0.59,0.12H138.31z"/>
		</g>
		<polygon class="st8" points="136.38,148.96 136.38,147.9 135.86,147.9 135.86,148.43 		"/>
		<polygon class="st6" points="135.86,150.92 136.38,150.92 136.38,149.7 135.86,149.17 		"/>
		<g>
			<defs>
				<rect id="SVGID_5_" x="118.45" y="133.27" width="29.44" height="17.64"/>
			</defs>
			<clipPath id="SVGID_6_">
				<use xlink:href="#SVGID_5_"  style="overflow:visible;"/>
			</clipPath>
			<path class="st9" d="M127.95,150.4L127.95,150.4c-0.03,0-0.05,0-0.08,0c-0.21,0-0.38-0.02-0.52-0.05
				c-0.14-0.03-0.25-0.08-0.34-0.15c-0.08-0.07-0.15-0.16-0.18-0.27c-0.04-0.11-0.06-0.24-0.06-0.39v-1.64h-0.54l0,1.64
				c0,0.23,0.03,0.43,0.09,0.61c0.06,0.17,0.16,0.32,0.29,0.43c0.13,0.11,0.3,0.2,0.5,0.25c0.21,0.05,0.45,0.08,0.74,0.08
				c0.02,0,0.05,0,0.07,0v0h0.86v-0.52H127.95z"/>
			<path class="st9" d="M141.45,150.92h-0.51l0-1.64c0-0.23,0.03-0.43,0.09-0.61c0.06-0.17,0.16-0.32,0.29-0.43
				c0.13-0.11,0.3-0.2,0.5-0.25c0.21-0.06,0.46-0.08,0.75-0.08c0.29,0,0.54,0.03,0.74,0.08c0.21,0.06,0.37,0.14,0.5,0.25
				c0.13,0.11,0.23,0.26,0.29,0.43c0.06,0.17,0.09,0.38,0.09,0.61v1.64h-0.54v-1.64c0-0.15-0.02-0.28-0.06-0.39
				c-0.04-0.11-0.1-0.2-0.18-0.27c-0.08-0.07-0.2-0.12-0.34-0.15c-0.14-0.03-0.32-0.05-0.52-0.05c-0.21,0-0.38,0.02-0.52,0.05
				c-0.14,0.03-0.25,0.08-0.34,0.15c-0.08,0.07-0.15,0.16-0.18,0.27c-0.04,0.11-0.06,0.24-0.06,0.39V150.92z"/>
			<path class="st9" d="M131.13,140.53c-0.39-0.51-0.88-0.86-1.48-1.05c0.49-0.16,0.92-0.46,1.28-0.9c0.36-0.44,0.53-1.08,0.53-1.91
				c0-0.56-0.1-1.05-0.3-1.48c-0.2-0.43-0.49-0.78-0.86-1.07c-0.37-0.28-0.82-0.5-1.34-0.64c-0.52-0.15-1.1-0.22-1.74-0.22h-8.71
				v2.28h8.25c0.76,0,1.35,0.12,1.76,0.35c0.41,0.24,0.62,0.66,0.62,1.28c0,0.58-0.16,0.99-0.47,1.23c-0.31,0.24-0.8,0.36-1.45,0.36
				h-0.79c0,0,2.39,2.32,2.44,2.37c0.34,0.29,0.51,0.71,0.51,1.25c0,0.58-0.23,1.01-0.69,1.3c-0.46,0.29-1.05,0.43-1.77,0.43h-8.45
				v2.3h9.02c0.64,0,1.22-0.1,1.75-0.29c0.52-0.19,0.97-0.46,1.34-0.81c0.37-0.34,0.65-0.76,0.85-1.25c0.2-0.49,0.3-1.03,0.3-1.64
				C131.71,141.68,131.51,141.04,131.13,140.53"/>
		</g>
		<polygon class="st8" points="121.57,140.71 125.1,140.71 123.18,138.78 121.57,138.78 		"/>
		<g>
			<defs>
				<rect id="SVGID_7_" x="118.45" y="133.27" width="29.44" height="17.64"/>
			</defs>
			<clipPath id="SVGID_8_">
				<use xlink:href="#SVGID_7_"  style="overflow:visible;"/>
			</clipPath>
			<path class="st10" d="M135.92,146.43h-2.25l0-7.17c0-1.01,0.13-1.9,0.4-2.65c0.27-0.75,0.68-1.38,1.25-1.87
				c0.57-0.49,1.3-0.86,2.2-1.1c0.9-0.24,1.99-0.36,3.27-0.36c1.27,0,2.35,0.12,3.25,0.36c0.9,0.24,1.63,0.61,2.2,1.1
				c0.57,0.49,0.98,1.12,1.25,1.87c0.27,0.75,0.4,1.64,0.4,2.65l0,7.17h-2.37l0-7.17c0-0.66-0.08-1.23-0.24-1.7
				c-0.16-0.47-0.43-0.86-0.8-1.16c-0.37-0.3-0.86-0.52-1.48-0.66c-0.62-0.14-1.38-0.21-2.28-0.21c-0.91,0-1.67,0.07-2.28,0.21
				c-0.62,0.14-1.11,0.36-1.48,0.66c-0.37,0.3-0.63,0.69-0.8,1.16c-0.16,0.47-0.24,1.04-0.24,1.7L135.92,146.43z"/>
		</g>
	</g>
	<g>
		<rect x="179.02" y="195.59" class="st1" width="141.59" height="22.7"/>
	</g>
	<g>
		<rect x="62.13" y="0.64" class="st2" width="3.08" height="234.13"/>
	</g>
	<polygon class="st2" points="295.95,107.13 63.67,107.13 63.67,104.05 292.86,104.05 292.86,0.1 295.95,0.1 	"/>
	<g>
		<rect x="133.61" y="0.64" class="st2" width="3.08" height="104.95"/>
	</g>
	<g>
		<rect x="110.14" y="43.58" class="st2" width="24.47" height="3.08"/>
	</g>
	<g>
		<rect x="134.62" y="24.43" class="st2" width="185.99" height="3.08"/>
	</g>
	<g>
		<rect x="230.52" y="0.64" class="st2" width="3.08" height="25.52"/>
	</g>
	<g>
		<polygon class="st2" points="320.61,208 171.71,208 171.71,25.97 174.55,25.97 174.55,204.92 320.61,204.92 		"/>
	</g>
	<g>
		<g>
			<path class="st3" d="M133.08,101.51c-5.82,0.05-10.5,4.81-10.45,10.64c0.07,8.09,6.97,20.51,10.72,20.48
				c3.75-0.03,10.43-12.57,10.36-20.66C143.67,106.14,138.9,101.46,133.08,101.51z M133.24,119.29c-3.47,0.03-6.3-2.75-6.33-6.22
				c-0.03-3.47,2.75-6.3,6.22-6.33c3.46-0.03,6.3,2.75,6.33,6.22C139.49,116.43,136.71,119.26,133.24,119.29z"/>
		</g>
	</g>
	<g>
		<g>
			<path class="st3" d="M13.52,133.37h0.99l0.67,3.59c0.09,0.48,0.24,1.33,0.3,1.75h0.04c0.06-0.41,0.2-1.22,0.3-1.79l0.66-3.44h1
				l0.66,3.44c0.1,0.57,0.24,1.38,0.3,1.79h0.04c0.06-0.41,0.22-1.27,0.3-1.75l0.67-3.59h0.99l-1.47,6.57h-1.01l-0.64-2.9
				c-0.14-0.62-0.27-1.58-0.31-2.11h-0.04c-0.05,0.53-0.18,1.49-0.32,2.11l-0.64,2.9h-1.01L13.52,133.37z"/>
			<path class="st3" d="M20.27,140.88c0.63-0.01,0.88-0.32,0.88-0.94V135h0.9v4.91c0,1.15-0.59,1.84-1.78,1.85V140.88z
				 M21.03,133.61c0-0.34,0.23-0.58,0.57-0.58c0.33,0,0.57,0.24,0.57,0.58c0,0.32-0.24,0.57-0.57,0.57
				C21.25,134.18,21.03,133.94,21.03,133.61z"/>
			<path class="st3" d="M26.57,136.66v3.28h-0.74l-0.07-0.47c-0.21,0.35-0.56,0.59-1.1,0.59c-0.91,0-1.52-0.6-1.52-1.53
				c0-1,0.69-1.52,1.79-1.52h0.72v-0.36c0-0.58-0.22-0.91-0.71-0.91c-0.4,0-0.7,0.22-0.75,0.66h-0.91c0.05-0.95,0.69-1.53,1.68-1.53
				C26.03,134.88,26.57,135.52,26.57,136.66z M25.66,137.78h-0.72c-0.55,0-0.87,0.26-0.87,0.76c0,0.45,0.29,0.72,0.79,0.72
				c0.5,0,0.81-0.32,0.81-0.84V137.78z"/>
			<path class="st3" d="M27.35,139.33l1.94-3.5H27.5V135h2.94v0.6l-1.94,3.51h2.03v0.84h-3.17V139.33z"/>
			<path class="st3" d="M34.62,133.15v6.79h-0.66l-0.07-0.46c-0.24,0.32-0.67,0.57-1.12,0.57c-0.93,0-1.57-0.71-1.57-1.92v-1.36
				c0-1.19,0.61-1.89,1.57-1.89c0.36,0,0.71,0.15,0.96,0.4v-2.13H34.62z M33.74,136.77c0-0.64-0.31-1.03-0.81-1.03
				c-0.53,0-0.8,0.32-0.8,1.03v1.36c0,0.73,0.3,1.06,0.8,1.06c0.47,0,0.81-0.34,0.81-1.05V136.77z"/>
			<path class="st3" d="M38.12,133.37h0.95v6.57h-0.95V133.37z"/>
			<path class="st3" d="M16.45,149.25v-2.67c0-1.33,0.73-2.05,1.92-2.05c1.16,0,1.87,0.7,1.91,2h-0.94
				c-0.04-0.76-0.38-1.09-0.98-1.09c-0.6,0-0.96,0.35-0.96,1.14v2.66c0,0.8,0.38,1.14,0.99,1.14c0.63,0,1-0.35,1-1.1v-0.83h-1.04
				v-0.84h1.97v1.67c-0.02,1.28-0.76,2.01-1.94,2.01C17.21,151.31,16.45,150.58,16.45,149.25z"/>
			<path class="st3" d="M24.58,147.92v3.28h-0.74l-0.07-0.47c-0.21,0.35-0.56,0.59-1.1,0.59c-0.91,0-1.52-0.6-1.52-1.53
				c0-1,0.69-1.52,1.79-1.52h0.72v-0.36c0-0.58-0.22-0.91-0.71-0.91c-0.4,0-0.7,0.22-0.75,0.66H21.3c0.05-0.95,0.69-1.53,1.68-1.53
				C24.04,146.14,24.58,146.79,24.58,147.92z M23.67,149.04h-0.72c-0.55,0-0.87,0.26-0.87,0.76c0,0.45,0.29,0.72,0.79,0.72
				c0.5,0,0.81-0.32,0.81-0.84V149.04z"/>
			<path class="st3" d="M28,150.41v0.85h-0.35c-0.99,0-1.57-0.63-1.57-1.65v-2.52h-0.69v-0.82h0.69v-1.17h0.9v1.17h0.92v0.82h-0.92
				v2.53c0,0.53,0.22,0.79,0.71,0.79H28z"/>
			<path class="st3" d="M32.27,149.66c-0.09,1.05-0.72,1.65-1.77,1.65c-1.03,0-1.68-0.68-1.68-1.86v-1.47c0-1.17,0.66-1.84,1.7-1.84
				c1.07,0,1.74,0.67,1.74,1.84v1.1h-2.52v0.38c0,0.68,0.29,0.99,0.79,0.99c0.53,0,0.76-0.24,0.84-0.78H32.27z M29.72,147.97v0.42
				h1.62v-0.42c0-0.67-0.3-0.98-0.83-0.98C30.03,146.99,29.72,147.29,29.72,147.97z"/>
			<path class="st3" d="M35.6,144.64h0.95v6.57H35.6V144.64z"/>
		</g>
		<g>
			<g>
				<circle class="st2" cx="57.13" cy="101.15" r="5.71"/>
			</g>
		</g>
		<g>
			<g>
				<g>
					<path class="st3" d="M57.88,103.19h-1.5l-0.25,1.16h-1.17l1.57-6.39h1.2l1.57,6.39h-1.17L57.88,103.19z M57.66,102.12
						l-0.26-1.19c-0.09-0.44-0.19-1.14-0.26-1.57h-0.03c-0.05,0.43-0.15,1.13-0.25,1.57l-0.26,1.19H57.66z"/>
				</g>
			</g>
		</g>
		<g>
			<g>
				<polygon class="st2" points="62.85,115.34 60.45,112.63 60.45,100.67 62.85,97.96 				"/>
			</g>
		</g>
		<g>
			<g>
				<polygon class="st2" points="64.76,89.26 67.16,91.98 67.16,103.94 64.76,106.65 				"/>
			</g>
		</g>
		<g>
			<g>
				<g>
					
						<rect x="45.67" y="122.78" transform="matrix(0.7071 -0.7071 0.7071 0.7071 -72.3609 72.4071)" class="st11" width="11.1" height="1.54"/>
				</g>
			</g>
			<g>
				<g>
					<g>
						<polygon class="st11" points="50.11,129.01 44.17,130.61 45.76,124.66 						"/>
					</g>
				</g>
			</g>
			<g>
				<g>
					<g>
						<polygon class="st11" points="56.68,122.44 58.28,116.5 52.33,118.09 						"/>
					</g>
				</g>
			</g>
		</g>
		<g>
			<g>
				<circle class="st2" cx="68.56" cy="86.85" r="5.71"/>
			</g>
		</g>
		<g>
			<g>
				<g>
					<path class="st3" d="M69.31,88.88h-1.5l-0.25,1.16h-1.17l1.57-6.39h1.2l1.57,6.39h-1.17L69.31,88.88z M69.08,87.82l-0.26-1.19
						c-0.09-0.44-0.19-1.14-0.26-1.57h-0.03c-0.05,0.43-0.15,1.13-0.25,1.57l-0.26,1.19H69.08z"/>
				</g>
			</g>
		</g>
	</g>
	<rect class="st12" width="320.61" height="234.67"/>
</g>
</svg>
